<svg width="512" height="512" viewBox="0 0 512 512" fill="none" xmlns="http://www.w3.org/2000/svg">
<path d="M384 0H128C57.3075 0 0 57.3075 0 128V384C0 454.692 57.3075 512 128 512H384C454.692 512 512 454.692 512 384V128C512 57.3075 454.692 0 384 0Z" fill="#202124"/>
<path d="M142.77 333.483C139.737 333.328 136.687 333.324 133.661 332.992C126.715 332.231 119.922 330.453 113.978 326.853C105.356 321.637 96.7297 316.267 88.8404 310.033C78.8085 302.112 69.5846 293.189 62.4478 282.365C60.9032 280.02 58.7685 278.068 56.9902 275.866C56.3583 275.022 55.8341 274.103 55.4298 273.129C55.2753 272.784 55.3545 271.992 55.5526 271.905C55.7749 271.81 56.0156 271.765 56.2574 271.774C56.4991 271.783 56.7359 271.845 56.9506 271.957C58.5144 273.06 59.9981 274.272 61.3903 275.585C66.1865 280.381 70.8955 285.26 75.6481 290.104C76.6184 291.094 77.5095 292.195 78.6184 292.995C79.2521 293.45 80.8086 293.767 80.9947 293.506C81.5017 292.737 81.9928 291.415 81.6482 290.733C80.8302 289.008 79.7027 287.446 78.3214 286.127C70.1311 278.828 62.7408 270.788 55.7466 262.364C51.1604 256.82 46.5702 251.299 42.0552 245.707C41.2217 244.609 40.5631 243.39 40.1027 242.091C39.8849 241.528 40.0235 240.507 40.4235 240.111C40.8235 239.714 41.9047 239.841 42.3444 240.178C44.3795 241.729 46.3308 243.386 48.19 245.144C50.5148 247.374 52.7129 249.738 54.9229 252.071C58.4741 255.783 62.0148 259.504 65.5449 263.232C72.9136 271 81.2844 277.751 90.4365 283.307C99.3477 288.799 109.386 292.203 119.8 293.264C123.728 293.66 127.625 294.397 131.546 294.924C132.719 295.091 133.904 295.148 135.087 295.094C139.875 294.817 144.659 294.349 149.452 294.175C157.56 293.887 165.61 292.691 173.452 290.611C184.446 287.684 195.183 283.878 204.158 276.547C210.123 271.763 215.836 266.673 221.275 261.299C224.029 258.594 225.907 255.124 226.665 251.338C226.883 250.174 227.647 249.033 228.396 248.055C233.259 241.691 228.832 236.336 223.643 233.33C222.554 232.7 220.439 233.009 219.18 233.643C214.233 236.13 209.441 238.918 204.593 241.6C200.376 243.932 195.924 245.164 191.096 244.182C186.268 243.2 184.157 240.245 183.698 235.243C183.219 230.035 184.561 225.136 185.678 220.193C186.807 215.124 188.296 210.126 189.821 205.143C191.801 198.648 193.88 192.177 196.122 185.769C197.14 182.858 198.688 180.133 199.952 177.305C203.12 170.196 205.976 162.881 210.788 156.675C216.297 149.57 222.875 143.902 232.376 143.047C235.941 142.726 238.966 144.065 241.485 146.54C242.721 147.748 242.8 149.146 242.068 150.714C240.056 155.012 238.107 159.34 236.147 163.657C233.529 169.404 230.97 175.17 228.293 180.885C226.57 184.561 224.404 184.953 221.584 182.157C219.346 179.935 216.479 179.404 213.714 179.927C209.754 180.672 206.411 182.834 204.815 186.759C203.593 189.817 202.574 192.953 201.766 196.145C200.914 199.456 202.617 201.749 206.091 201.563C212.823 201.207 219.386 200.034 225.319 196.284C228.461 194.361 231.822 192.821 235.331 191.698C240.638 189.923 246.567 193.143 248.4 198.43C250.267 203.829 250.652 209.629 249.513 215.227C248.836 218.708 248.222 222.272 246.955 225.56C244.491 231.944 241.561 238.15 238.875 244.451C238.024 246.431 237.351 248.523 236.57 250.55C231.937 262.586 225.192 273.608 219.821 285.284C215.433 294.829 209.215 303.027 202.395 310.837C200.589 312.904 198.308 314.564 196.173 316.326C187.587 323.423 177.67 327.732 167.04 330.897C159.008 333.328 150.98 333.823 142.77 333.483Z" fill="#FFF6EB"/>
<path d="M244.548 326.724C245.012 326.558 245.471 326.261 245.939 326.245C251 326.067 256.066 325.944 261.127 325.778C269.226 325.516 277.44 326.003 285.381 324.752C293.746 323.433 301.75 320.221 309.267 316.039C317.615 311.458 325.259 305.698 331.964 298.937C338.19 292.601 343.105 285.325 347.014 277.25C352.163 266.592 354.658 255.071 358.741 244.077C362.361 234.33 365.078 224.116 371.522 215.668C379.05 205.779 387.522 196.82 399.17 191.672C402.762 190.087 404.009 187.398 404.92 183.842C406.453 178.122 408.275 172.483 410.378 166.946C410.774 165.826 412.358 164.828 413.625 164.38C420.492 161.87 427.14 158.8 433.503 155.2C442.676 150.106 450.379 143.267 457.599 135.793C458.811 134.538 459.975 132.969 462.149 133.979C464.13 134.898 465.187 136.684 464.605 139.259C464.05 141.489 463.217 143.64 462.126 145.663C454.502 160.356 446.945 175.093 439.064 189.652C434.192 198.654 428.794 207.442 420.691 213.977C414.948 218.611 408.734 222.532 401.594 224.979C397.332 226.437 393.494 229.094 389.383 231.039C376.599 237.083 369.526 248.255 363.517 260.208C361.814 263.586 361.268 267.63 360.618 271.44C358.931 281.397 356.166 291.142 352.373 300.502C350.848 304.26 350.143 308.348 348.713 312.154C345.224 321.461 339.695 329.58 333.572 337.33C330.895 340.822 327.103 343.292 322.827 344.328C322.012 344.527 321.271 345.022 320.491 345.374C319.956 345.616 319.433 345.996 318.875 346.063C315.164 346.515 311.441 347.224 307.722 347.232C300.415 347.232 293.068 347.255 285.805 346.499C279.417 345.83 273.131 344.146 266.795 342.839C265.644 342.557 264.533 342.129 263.491 341.564C263.278 341.435 263.099 341.257 262.97 341.044C262.841 340.83 262.766 340.589 262.751 340.34C262.852 340.115 263.008 339.919 263.204 339.769C263.401 339.62 263.632 339.522 263.876 339.485C265.976 339.364 268.081 339.364 270.181 339.485C276.078 339.924 281.963 340.483 287.852 340.99C289.298 341.117 290.748 341.386 292.185 341.311C294.375 341.22 295.156 340.122 295.286 337.544C295.385 335.564 294.035 335.378 292.593 335.124C286.823 334.106 281.068 333.013 275.29 332.039C274.007 331.821 272.648 332.106 271.353 331.944C264.62 331.116 257.887 330.225 251.186 329.326C250.008 329.176 248.842 328.935 247.701 328.605C246.584 328.269 245.519 327.758 244.43 327.322L244.548 326.724Z" fill="#FFF6EB"/>
<path d="M281.713 195.65C283.586 183.456 287.162 171.186 296.272 161.071C298.707 158.366 300.909 155.527 304.133 153.669C308.703 151.047 313.436 150.501 318.617 151.594C324.795 152.909 328.625 156.541 331.54 161.994C336.122 170.561 338.779 179.495 337.48 189.167C336.605 195.603 334.902 201.928 333.441 208.276C332.779 211.096 331.88 213.869 330.989 216.641C327.722 226.799 324.593 237.018 320.989 247.069C318.529 253.941 315.84 260.804 312.414 267.248C307.567 276.42 301.65 284.943 293.757 291.898C291.268 294.187 288.178 295.719 284.849 296.314C282.445 296.71 280.097 297.684 277.721 297.827C275.234 298.013 272.733 297.766 270.33 297.098C265.043 295.514 259.843 293.585 254.683 291.601C251.284 290.306 248.041 288.642 244.742 287.137C244.381 286.971 243.926 286.848 243.72 286.555C243.247 285.826 242.813 285.073 242.421 284.298C243.15 283.953 243.922 283.248 244.603 283.327C247.146 283.624 249.657 284.163 252.176 284.634C253.665 284.916 255.134 285.347 256.631 285.506C257.221 285.569 257.871 285.082 258.492 284.844C258.227 284.223 258.132 283.26 257.669 283.034C254.001 281.145 250.615 278.761 246.457 277.739C242.516 276.773 238.753 275.074 234.916 273.684C234.595 273.597 234.306 273.42 234.084 273.173C233.609 272.456 233.221 271.68 232.797 270.927C233.692 270.531 234.583 269.787 235.478 269.779C236.69 269.779 237.906 270.301 239.114 270.626C246.064 272.499 252.995 271.525 259.887 270.337C272.897 268.088 284.244 262.02 295 254.693C301.661 250.153 307.616 244.654 312.672 238.376C315.476 234.899 318.276 231.247 320.157 227.239C322.609 222.015 321.813 216.546 318.933 211.496C318.102 210.047 316.815 210.138 315.88 211.809C313.48 216.102 309.709 218.938 305.892 221.797C300.347 225.94 290.929 224.871 286.545 218.51C284.303 215.263 283.23 211.639 282.834 207.781C282.442 204.047 282.133 200.304 281.713 195.65Z" fill="#FFF6EB"/>
<path d="M161.269 378.602C157.269 378.959 153.206 378.963 149.289 379.735C140.136 381.541 132.259 385.747 126.69 393.486C123.878 397.383 121.276 401.431 118.583 405.411C118.508 405.518 118.476 405.676 118.377 405.744C117.371 406.401 116.361 407.047 115.351 407.692C115.193 406.599 114.761 405.462 114.916 404.413C115.858 398.044 117.498 391.842 121.07 386.405C126.615 377.981 131.886 369.351 139.483 362.487C144.722 357.735 149.855 352.891 156.117 349.469C162.83 345.802 169.768 342.863 177.559 342.503C181.044 342.34 184.525 341.928 188.002 341.972C189.717 341.996 191.5 342.614 193.115 343.287C194.949 344.051 195.302 345.358 194.521 347.192C194.341 347.76 194.037 348.281 193.63 348.717C189.064 352.531 187.052 358.242 183.234 362.602C179.064 367.355 175.004 372.234 170.624 376.793C169.495 377.981 167.372 378.345 165.63 378.729C164.247 379.034 162.746 378.789 161.297 378.789L161.269 378.602Z" fill="#FFF6EB"/>
</svg>
