<svg id="logo-unesco" xmlns="http://www.w3.org/2000/svg" xmlns:xlink="http://www.w3.org/1999/xlink" width="500" zoomAndPan="magnify"
     viewBox="0 0 375 374.999991" height="500" preserveAspectRatio="xMidYMid meet" version="1.0">
    <defs>
        <clipPath id="6a26596b89">
            <path d="M 73 9.082031 L 302.140625 9.082031 L 302.140625 366 L 73 366 Z M 73 9.082031 "
                  clip-rule="nonzero"/>
        </clipPath>
    </defs>
    <path fill="#ffffff"
          d="M 242.789062 120.203125 C 241.296875 117.402344 243.160156 114.066406 241.9375 111.183594 C 240.761719 108.433594 237.699219 107.367188 234.925781 107.289062 C 227.917969 107.101562 221.121094 110.304688 215.042969 113.480469 C 214.964844 113.53125 214.882812 113.585938 214.855469 113.640625 C 214.539062 113.878906 214.511719 114.46875 215.015625 114.574219 C 219.839844 115.480469 224.34375 117.402344 228.984375 118.949219 C 233.085938 120.3125 237.859375 121.753906 242.230469 121.003906 C 242.601562 121.058594 243.054688 120.660156 242.789062 120.203125 Z M 228.398438 117.617188 C 224.503906 116.28125 220.695312 114.761719 216.667969 113.828125 C 222.054688 111.050781 227.835938 108.515625 233.964844 108.328125 C 237.351562 108.222656 241.109375 109.449219 241.347656 113.347656 C 241.484375 115.613281 240.789062 117.855469 241.5625 119.992188 C 237.21875 120.632812 232.449219 119.03125 228.398438 117.617188 Z M 228.398438 117.617188 "
          fill-opacity="1" fill-rule="nonzero"/>
    <path fill="#ffffff"
          d="M 255.902344 144.464844 C 252.117188 145.398438 249.078125 148.628906 248.546875 152.523438 C 248.011719 156.421875 250.089844 160.34375 253.476562 162.265625 C 254.0625 162.613281 254.621094 161.679688 254.007812 161.332031 C 250.996094 159.625 249.105469 156.15625 249.585938 152.660156 C 250.066406 149.164062 252.808594 146.332031 256.167969 145.503906 C 256.859375 145.320312 256.566406 144.277344 255.902344 144.464844 Z M 255.902344 144.464844 "
          fill-opacity="1" fill-rule="nonzero"/>
    <path fill="#ffffff"
          d="M 270.585938 158.53125 C 269.921875 157.25 268.613281 156.847656 267.308594 156.5 C 265.710938 156.046875 264.058594 155.78125 262.378906 155.753906 C 260.191406 155.726562 255.847656 156.074219 255.316406 158.796875 C 255.183594 159.464844 256.222656 159.757812 256.355469 159.089844 C 256.78125 156.875 261.179688 156.769531 262.832031 156.820312 C 264.644531 156.902344 268.722656 157.222656 269.652344 159.0625 C 269.972656 159.675781 270.90625 159.117188 270.585938 158.53125 Z M 270.585938 158.53125 "
          fill-opacity="1" fill-rule="nonzero"/>
    <path fill="#ffffff"
          d="M 246.519531 118.816406 C 245.375 116.789062 245.90625 114.46875 245.960938 112.25 C 246.011719 110.410156 245.800781 108.542969 245.054688 106.859375 C 243.5625 103.496094 240.042969 101.894531 236.523438 101.65625 C 232.367188 101.363281 227.945312 102.511719 224.027344 103.765625 C 220 105.074219 216.136719 106.914062 212.566406 109.183594 C 211.980469 109.554688 212.511719 110.464844 213.097656 110.117188 C 216.402344 108.007812 219.921875 106.273438 223.625 105.019531 C 227.382812 103.738281 231.515625 102.671875 235.484375 102.671875 C 239.644531 102.695312 243.589844 104.566406 244.601562 108.890625 C 245.402344 112.332031 243.800781 116.148438 245.585938 119.324219 C 245.933594 119.9375 246.867188 119.402344 246.519531 118.816406 Z M 246.519531 118.816406 "
          fill-opacity="1" fill-rule="nonzero"/>
    <path fill="#ffffff"
          d="M 264.855469 200.296875 C 264.03125 197.921875 262.378906 195.921875 260.164062 194.71875 C 257.394531 193.226562 253.929688 193.304688 250.890625 193.625 C 250.222656 193.707031 250.199219 194.773438 250.890625 194.691406 C 253.609375 194.425781 256.753906 194.265625 259.285156 195.46875 C 261.445312 196.480469 263.070312 198.347656 263.84375 200.589844 C 264.058594 201.230469 265.070312 200.964844 264.855469 200.296875 Z M 264.855469 200.296875 "
          fill-opacity="1" fill-rule="nonzero"/>
    <path fill="#ffffff"
          d="M 233.515625 233.820312 C 228.664062 234.484375 223.867188 233.125 219.253906 231.683594 C 215.175781 230.402344 211.179688 228.960938 207.234375 227.359375 C 199.105469 224.023438 191.269531 219.96875 183.859375 215.242188 C 179.648438 212.574219 175.574219 209.664062 171.65625 206.597656 C 171.121094 206.167969 170.347656 206.917969 170.910156 207.34375 C 185.058594 218.472656 201.160156 227.066406 218.320312 232.511719 C 223.332031 234.113281 228.503906 235.582031 233.808594 234.859375 C 234.472656 234.753906 234.179688 233.710938 233.515625 233.820312 Z M 233.515625 233.820312 "
          fill-opacity="1" fill-rule="nonzero"/>
    <path fill="#ffffff"
          d="M 262.429688 99.148438 C 260.777344 96.371094 258.140625 94.636719 255.207031 93.410156 C 251.636719 91.914062 247.773438 91.035156 244.042969 90.152344 C 239.910156 89.191406 235.671875 88.550781 231.40625 88.84375 C 227.355469 89.113281 223.359375 90.101562 219.546875 91.515625 C 215.152344 93.140625 210.992188 95.277344 206.941406 97.597656 C 206.355469 97.945312 206.886719 98.855469 207.476562 98.535156 C 216.136719 93.570312 225.757812 89.21875 235.964844 89.941406 C 241.054688 90.285156 246.09375 91.703125 250.972656 93.117188 C 254.996094 94.289062 259.234375 95.945312 261.472656 99.707031 C 261.871094 100.269531 262.777344 99.734375 262.429688 99.148438 Z M 262.429688 99.148438 "
          fill-opacity="1" fill-rule="nonzero"/>
    <g clip-path="url(#6a26596b89)">
        <path fill="#ffffff"
              d="M 301.742188 300.433594 C 295.078125 297.390625 291.027344 290.984375 285.433594 286.503906 C 282.605469 284.234375 279.410156 282.578125 275.785156 282.046875 C 271.625 281.429688 267.414062 282.179688 263.335938 283.113281 C 263.230469 283.03125 263.097656 283.007812 262.9375 283.03125 C 260.59375 283.433594 258.035156 283.753906 256.246094 281.832031 C 255.023438 280.496094 254.515625 278.628906 254.140625 276.867188 C 253.210938 272.515625 252.464844 268.195312 251.183594 263.921875 C 249.90625 259.601562 248.304688 255.382812 246.464844 251.273438 C 245.535156 249.246094 244.546875 247.242188 243.507812 245.269531 C 242.390625 243.1875 240.65625 241 240.789062 238.542969 C 240.84375 238.488281 240.921875 238.4375 240.949219 238.355469 C 244.015625 233.097656 250.519531 232.109375 255.742188 230.136719 C 260.726562 228.242188 264.375 225.011719 266.1875 219.914062 C 267.015625 217.539062 267.414062 215.003906 267.574219 212.496094 C 267.761719 209.371094 267.335938 206.25 268.347656 203.207031 C 269.332031 200.164062 270.480469 197.335938 271.09375 194.1875 C 271.707031 191.011719 272.371094 187.859375 273.277344 184.738281 C 275.171875 178.144531 277.542969 171.234375 275.625 164.375 C 275.96875 164.214844 276.316406 164.054688 276.664062 163.894531 C 278.503906 163.066406 280.421875 162.214844 281.753906 160.636719 C 284.019531 157.96875 284.230469 154.152344 283.511719 150.871094 C 282.554688 146.492188 279.835938 142.808594 278.316406 138.648438 C 277.757812 137.125 277.355469 135.578125 276.957031 134.03125 C 281.140625 130.695312 284.578125 126.421875 286.925781 121.621094 C 288.125 119.164062 289.054688 116.574219 289.667969 113.90625 C 289.9375 112.785156 290.121094 111.664062 290.28125 110.515625 C 290.496094 108.835938 290.28125 106.699219 291.613281 105.417969 C 292.519531 104.566406 293.800781 104.191406 294.894531 103.632812 C 295.960938 103.097656 296.945312 102.402344 297.796875 101.550781 C 299.398438 99.949219 300.542969 97.839844 301.050781 95.625 C 301.582031 93.300781 301.371094 90.925781 300.464844 88.710938 C 299.371094 86.042969 297.476562 83.640625 297 80.730469 C 296.4375 77.34375 297.929688 73.875 296.917969 70.511719 C 296.304688 68.507812 295 66.773438 292.972656 66.292969 C 293.773438 64.773438 294.148438 63.039062 293.878906 61.167969 C 294.734375 60.582031 295.507812 59.835938 296.066406 58.953125 C 297.53125 56.632812 296.707031 53.882812 297.292969 51.347656 C 297.585938 50.121094 298.066406 48.945312 298.199219 47.691406 C 298.359375 46.382812 298.144531 45.078125 297.746094 43.847656 C 296.945312 41.285156 295.558594 38.722656 294.121094 36.457031 C 291.695312 32.613281 287.75 30.078125 283.328125 29.488281 C 286.125 27.996094 288.070312 24.953125 287.804688 21.671875 C 287.457031 17.347656 283.992188 14.332031 279.808594 13.929688 C 277.035156 13.664062 274.292969 14.089844 271.546875 13.398438 C 269.015625 12.757812 266.640625 11.609375 264.214844 10.675781 C 262.03125 9.847656 259.6875 9.179688 257.289062 9.261719 C 255.101562 9.339844 253.023438 10.0625 251.050781 10.914062 C 248.730469 11.929688 246.492188 13.183594 244.09375 14.011719 C 241.5625 14.890625 239.058594 15.078125 236.417969 14.542969 C 233.726562 13.984375 231.140625 12.96875 228.449219 12.355469 C 225.972656 11.796875 223.464844 11.742188 220.960938 12.0625 C 215.738281 12.757812 210.804688 14.785156 205.609375 15.585938 C 202.863281 16.011719 200.253906 15.746094 197.480469 15.585938 C 196.199219 15.503906 194.894531 15.53125 193.617188 15.878906 C 192.257812 16.226562 191.082031 17.027344 189.777344 17.507812 C 184.605469 19.347656 179.195312 15.824219 173.894531 16.359375 C 169.097656 16.8125 164.910156 19.429688 160.726562 21.589844 C 158.328125 22.816406 155.875 23.886719 153.265625 24.5 C 150.332031 25.191406 147.292969 25.40625 144.308594 25.726562 C 139.59375 26.207031 134.6875 26.953125 130.636719 29.648438 C 128.824219 30.851562 127.332031 32.425781 126.238281 34.292969 C 125.601562 35.386719 125.066406 36.5625 124.292969 37.601562 C 123.359375 38.859375 122.109375 39.792969 120.828125 40.644531 C 116.273438 43.609375 111.609375 46.355469 107.289062 49.667969 C 99.132812 55.910156 91.910156 63.757812 88.367188 73.554688 C 87.539062 75.875 86.929688 78.277344 86.582031 80.707031 C 86.207031 83.453125 86.234375 86.257812 86.046875 89.03125 C 85.863281 92.046875 85.277344 94.878906 83.96875 97.625 C 82.851562 100.027344 81.382812 102.269531 80.023438 104.539062 C 74.746094 113.320312 72.640625 123.539062 74.640625 133.683594 C 75.121094 136.191406 75.867188 138.648438 76.851562 140.996094 C 74.082031 147.105469 75.359375 154.605469 79.8125 159.597656 C 82.210938 162.265625 85.488281 163.414062 88.3125 165.496094 C 90.234375 166.882812 91.40625 168.832031 91.140625 171.261719 C 90.871094 173.796875 89.460938 175.957031 88.445312 178.226562 C 87.007812 181.457031 86.367188 186.417969 90.3125 188.207031 C 90.472656 188.289062 90.632812 188.261719 90.765625 188.207031 C 89.058594 192.558594 87.433594 197.042969 87.195312 201.738281 C 87.007812 205.183594 87.699219 209.183594 89.914062 211.960938 C 89.832031 212.039062 89.804688 212.148438 89.78125 212.28125 C 89.378906 217.085938 89.113281 222.128906 91.113281 226.667969 C 91.9375 228.5625 93.164062 230.324219 94.789062 231.628906 C 96.628906 233.125 98.707031 234.085938 99.960938 236.222656 C 101.132812 238.222656 101.585938 240.570312 102.09375 242.8125 C 102.625 245.242188 103.265625 247.644531 104.066406 249.992188 C 105.558594 254.367188 107.691406 258.558594 110.726562 262.054688 C 113.847656 265.660156 117.925781 268.433594 122.5625 269.609375 C 122.667969 269.636719 122.75 269.636719 122.828125 269.609375 C 122.90625 272.144531 122.960938 274.707031 123.042969 277.242188 C 123.175781 281.484375 123.28125 285.78125 122.75 290 C 120.9375 304.570312 109.847656 317.222656 97.933594 324.960938 C 91.433594 329.203125 84.183594 332.21875 76.585938 333.820312 C 76.558594 333.820312 76.292969 333.875 76.214844 333.929688 C 75.894531 334.140625 75.628906 334.460938 75.628906 334.863281 C 75.628906 334.941406 75.652344 335.023438 75.707031 335.101562 C 74.828125 337.210938 74.160156 339.371094 73.789062 341.613281 C 73.414062 343.828125 73.789062 345.351562 75.441406 346.898438 C 78.824219 350.046875 83.144531 351.996094 87.460938 353.492188 C 97.617188 356.988281 108.304688 359.28125 118.910156 360.777344 C 129.542969 362.273438 140.285156 362.886719 151 362.566406 C 156.515625 362.40625 162.007812 362.003906 167.46875 361.335938 C 172.960938 360.695312 178.449219 359.574219 184.019531 359.761719 C 194.867188 360.136719 204.996094 365.980469 215.949219 364.914062 C 218.429688 365.101562 220.960938 364.914062 223.574219 364.300781 C 232.046875 362.246094 239.617188 357.015625 247.054688 352.691406 C 251.128906 350.316406 255.207031 347.964844 259.285156 345.589844 C 263.203125 343.324219 267.226562 341.105469 270.878906 338.386719 C 282.605469 329.523438 287.191406 314.792969 297.613281 304.785156 C 298.917969 303.53125 300.332031 302.355469 301.824219 301.316406 C 302.035156 301.15625 302.140625 300.621094 301.742188 300.433594 Z M 296.226562 72.992188 C 296.277344 75.820312 295.453125 78.652344 296.066406 81.480469 C 296.625 84.042969 298.171875 86.203125 299.238281 88.550781 C 300.332031 90.953125 300.597656 93.515625 299.851562 96.078125 C 299.183594 98.375 297.746094 100.507812 295.773438 101.921875 C 294.066406 103.125 291.640625 103.523438 290.363281 105.285156 C 289.722656 106.167969 289.5625 107.179688 289.457031 108.25 C 289.324219 109.664062 289.191406 111.050781 288.921875 112.4375 C 288.445312 114.945312 287.671875 117.429688 286.632812 119.777344 C 284.390625 124.875 280.980469 129.386719 276.714844 132.910156 C 276.476562 131.949219 276.261719 130.960938 275.996094 130 C 279.566406 127.4375 279.59375 122.980469 280.554688 119.085938 C 281.113281 116.789062 282.445312 115.082031 283.511719 113.027344 C 284.417969 111.265625 284.632812 109.503906 284.074219 107.609375 C 283.886719 106.96875 283.671875 106.378906 283.433594 105.765625 C 283.433594 105.660156 283.378906 105.554688 283.328125 105.472656 C 282.738281 103.976562 282.101562 102.535156 281.886719 100.882812 C 281.621094 98.828125 281.539062 96.851562 280.6875 94.929688 C 279.835938 93.035156 278.476562 91.328125 277.941406 89.300781 C 277.355469 87.003906 278.636719 84.707031 277.914062 82.441406 C 277.890625 82.386719 277.863281 82.332031 277.835938 82.28125 C 277.835938 82.253906 277.835938 82.226562 277.835938 82.199219 C 277.863281 79.71875 276.210938 77.875 274.503906 76.300781 C 274.398438 76.195312 274.292969 76.113281 274.183594 76.007812 C 279.007812 75.660156 283.726562 74.21875 287.832031 71.65625 C 289.644531 70.511719 291.320312 69.042969 292.46875 67.308594 C 295.054688 67.628906 296.199219 70.671875 296.226562 72.992188 Z M 275.675781 128.933594 C 275.332031 127.730469 274.929688 126.53125 274.398438 125.355469 C 273.304688 122.925781 272 120.472656 271.734375 117.777344 C 271.4375 114.867188 272.585938 112.144531 273.679688 109.53125 C 273.679688 109.503906 273.703125 109.476562 273.703125 109.449219 C 273.730469 109.421875 273.757812 109.394531 273.757812 109.371094 C 275.492188 106.300781 279.0625 104.136719 282.339844 106.191406 C 283.191406 108.273438 283.699219 110.222656 282.632812 112.386719 C 281.808594 114.09375 280.582031 115.5625 279.941406 117.375 C 278.582031 121.113281 279.140625 126.183594 275.675781 128.933594 Z M 273.4375 74.96875 C 273.304688 74.96875 273.199219 75.019531 273.144531 75.074219 C 271.28125 73.417969 269.308594 71.898438 267.335938 70.378906 C 267.015625 70.109375 266.667969 69.871094 266.347656 69.601562 C 266.375 69.601562 266.375 69.578125 266.402344 69.578125 C 268.828125 69.578125 271.039062 68.640625 273.171875 67.546875 C 275.382812 66.425781 277.222656 65.253906 278.234375 62.902344 C 278.847656 61.488281 279.753906 59.140625 281.753906 60.316406 C 282.765625 60.929688 283.59375 61.675781 284.710938 62.128906 C 286.683594 62.929688 288.921875 63.0625 291.003906 62.503906 C 291.667969 62.316406 292.335938 62.078125 292.949219 61.757812 C 293.347656 66.160156 289.644531 69.417969 286.097656 71.390625 C 282.207031 73.578125 277.863281 74.78125 273.4375 74.96875 Z M 105.050781 249.699219 C 104.277344 247.484375 103.691406 245.214844 103.160156 242.917969 C 102.734375 240.972656 102.332031 238.996094 101.558594 237.128906 C 100.8125 235.339844 99.722656 233.871094 98.175781 232.722656 C 96.308594 231.335938 94.46875 230.242188 93.164062 228.265625 C 90.179688 223.730469 90.339844 218.125 90.765625 212.921875 C 90.953125 213.109375 91.164062 213.296875 91.378906 213.457031 C 97.429688 218.125 106.675781 217.246094 112.753906 212.949219 C 112.808594 212.949219 112.859375 212.949219 112.886719 212.949219 C 116.671875 212.09375 120.722656 212.335938 124.027344 214.46875 C 127.09375 216.472656 128.773438 219.753906 128.773438 223.382812 C 128.796875 230.242188 123.867188 238.996094 116.164062 238.730469 C 115.472656 238.703125 115.472656 239.769531 116.164062 239.796875 C 118.269531 239.878906 120.191406 239.316406 121.867188 238.355469 C 121.84375 238.410156 121.84375 238.460938 121.84375 238.542969 C 122.082031 247.214844 122.347656 255.863281 122.589844 264.539062 C 122.613281 265.871094 122.667969 267.234375 122.695312 268.566406 C 113.714844 266.21875 107.957031 258.132812 105.050781 249.699219 Z M 188.097656 359.148438 C 183.167969 358.429688 178.265625 358.882812 173.332031 359.550781 C 168.054688 360.269531 162.78125 360.910156 157.449219 361.230469 C 136.847656 362.566406 116.03125 360.457031 96.121094 355.039062 C 90.871094 353.597656 85.460938 352.128906 80.691406 349.433594 C 79.570312 348.792969 78.480469 348.074219 77.441406 347.273438 C 76.453125 346.5 75.121094 345.511719 74.722656 344.257812 C 74.242188 342.761719 74.933594 340.8125 75.308594 339.347656 C 75.628906 338.144531 76.027344 336.996094 76.480469 335.851562 C 91.859375 343.667969 108.410156 349.085938 125.441406 351.808594 C 133.96875 353.171875 142.578125 353.890625 151.210938 353.890625 C 155.609375 353.890625 160.007812 353.730469 164.40625 353.382812 C 169.042969 353.039062 173.679688 352.558594 178.34375 352.796875 C 182.6875 353.011719 186.847656 354.023438 190.871094 355.679688 C 194.523438 357.175781 197.988281 359.042969 201.558594 360.722656 C 204.277344 362.003906 207.023438 363.125 209.820312 363.898438 C 202.492188 363.179688 195.375 360.214844 188.097656 359.148438 Z M 275.25 332.992188 C 269.28125 339.371094 261.152344 343.269531 253.6875 347.59375 C 249.613281 349.96875 245.535156 352.316406 241.457031 354.691406 C 237.726562 356.855469 233.992188 359.09375 230.074219 360.882812 C 226.105469 362.699219 221.839844 364.03125 217.441406 364.03125 C 217.257812 364.085938 215.871094 363.898438 215.363281 363.953125 C 212.164062 363.660156 209.046875 362.726562 206.035156 361.523438 C 198.972656 358.667969 192.441406 354.316406 184.953125 352.582031 C 176.238281 350.554688 167.175781 352.289062 158.382812 352.664062 C 149.800781 353.011719 141.21875 352.691406 132.6875 351.703125 C 115.417969 349.703125 98.46875 344.949219 82.691406 337.636719 C 80.746094 336.730469 78.824219 335.796875 76.90625 334.835938 L 76.90625 334.808594 C 90.527344 331.875 103.105469 324.425781 112.21875 313.859375 C 117.042969 308.28125 121.148438 301.742188 122.960938 294.535156 C 125.039062 286.289062 124.082031 277.402344 123.839844 268.996094 C 123.546875 258.824219 123.253906 248.65625 122.960938 238.515625 C 122.960938 238.195312 122.722656 238.035156 122.453125 238.007812 C 127.226562 234.914062 130.050781 228.375 129.863281 222.902344 C 129.730469 219.113281 127.917969 215.75 124.773438 213.617188 C 124.613281 213.507812 124.425781 213.402344 124.242188 213.296875 C 126.585938 212.628906 128.183594 210.011719 129.144531 207.851562 C 130.664062 204.460938 130.425781 200.777344 129.171875 197.363281 C 132.394531 196.640625 132.503906 192.585938 132.476562 189.890625 C 132.421875 186.554688 131.703125 183.03125 128.691406 181.136719 C 128.851562 181.027344 129.011719 180.921875 129.144531 180.789062 C 132.128906 178.414062 133.59375 174.675781 133.863281 170.941406 C 134.101562 167.765625 133.753906 164.132812 131.808594 161.519531 C 132.609375 161.707031 133.382812 162 134.046875 162.535156 C 134.875 163.199219 135.460938 164.132812 136.261719 164.882812 C 137.566406 166.109375 139.21875 166.964844 140.953125 167.335938 C 141.617188 167.46875 142.257812 167.550781 142.921875 167.578125 C 142.898438 167.683594 142.871094 167.789062 142.898438 167.898438 C 143.910156 172.433594 144.976562 177.183594 146.921875 181.402344 C 148.734375 185.351562 151.90625 188.339844 155.050781 191.222656 C 155.558594 191.675781 156.304688 190.929688 155.796875 190.476562 C 152.703125 187.648438 149.585938 184.738281 147.828125 180.894531 C 145.933594 176.757812 144.894531 172.0625 143.910156 167.628906 C 143.910156 167.605469 143.910156 167.578125 143.882812 167.578125 C 146.734375 167.390625 149.453125 166.03125 151.160156 163.628906 C 153.476562 160.34375 153.636719 155.78125 151.53125 152.363281 C 151.160156 151.777344 150.253906 152.3125 150.597656 152.898438 C 152.4375 155.886719 152.359375 159.835938 150.441406 162.800781 C 148.386719 165.949219 144.417969 167.175781 140.871094 166.269531 C 138.980469 165.789062 137.460938 164.773438 136.207031 163.308594 C 135.035156 161.945312 133.890625 160.957031 132.101562 160.53125 C 130.289062 160.105469 128.398438 160.105469 126.585938 159.597656 C 124.855469 159.117188 123.175781 158.34375 121.65625 157.382812 C 120.722656 156.796875 119.816406 156.128906 119.015625 155.40625 C 118.964844 155.328125 118.910156 155.273438 118.832031 155.246094 C 113.792969 150.761719 111.101562 144.117188 110.675781 137.390625 C 110.382812 132.960938 110.941406 128.53125 112.0625 124.261719 C 113.125 120.179688 114.804688 115.90625 118.324219 113.320312 C 121.816406 110.757812 126.292969 110.089844 130.503906 110.0625 C 134.847656 110.0625 139.777344 110.464844 143.058594 113.613281 C 143.164062 113.71875 143.269531 113.746094 143.375 113.773438 C 143.429688 114.46875 143.5625 115.132812 143.828125 115.800781 C 144.441406 117.269531 145.667969 118.390625 147.054688 119.164062 C 150.304688 120.953125 154.304688 121.140625 157.875 120.5 C 162.964844 119.589844 168.9375 116.789062 171.335938 112.039062 C 172.640625 113.71875 172.855469 116.042969 172.695312 118.125 C 172.507812 120.820312 170.828125 123.035156 169.042969 124.957031 C 165.976562 128.316406 161.445312 130.71875 156.914062 129.226562 C 156.863281 128.878906 156.515625 128.613281 156.144531 128.824219 C 156.035156 128.878906 155.929688 128.957031 155.824219 129.011719 C 155.398438 129.277344 155.53125 129.8125 155.957031 130 C 161.339844 132.269531 166.882812 129.199219 170.347656 125.0625 C 170.933594 124.339844 171.496094 123.648438 172 122.902344 C 174.1875 126.503906 171.308594 131.199219 168.828125 133.921875 C 166.085938 136.910156 161.578125 138.808594 157.980469 136.085938 C 157.421875 135.65625 156.890625 136.589844 157.449219 137.019531 C 160.433594 139.261719 164.03125 138.699219 166.9375 136.859375 C 170.1875 139.179688 172.535156 142.863281 172.054688 147 C 171.601562 151.03125 168.136719 154.367188 164.003906 153.78125 C 166.351562 150.148438 165.390625 145.398438 161.632812 143.023438 C 161.046875 142.648438 160.515625 143.585938 161.101562 143.957031 C 164.457031 146.066406 165.285156 150.496094 162.804688 153.644531 C 162.566406 153.964844 162.699219 154.339844 162.964844 154.5 C 163.019531 154.605469 163.125 154.714844 163.3125 154.738281 C 167.921875 155.675781 172.1875 152.363281 173.015625 147.828125 C 173.839844 143.210938 171.441406 138.96875 167.84375 136.246094 C 168.589844 135.683594 169.253906 135.070312 169.84375 134.375 C 172.695312 131.09375 175.4375 125.96875 172.585938 121.914062 C 173.226562 120.683594 173.679688 119.378906 173.761719 117.882812 C 173.894531 115.402344 173.519531 112.8125 171.789062 110.945312 C 172.027344 110.328125 172.1875 109.664062 172.292969 108.996094 C 173.785156 109.101562 175.039062 107.902344 176.027344 106.832031 C 176.773438 106.007812 177.4375 105.097656 177.890625 104.085938 C 177.972656 104.191406 178.105469 104.273438 178.289062 104.296875 C 184.902344 104.644531 190.417969 99.386719 190.816406 92.902344 C 191.03125 89.378906 190.523438 85.644531 188.230469 82.8125 C 186.101562 80.171875 183.007812 78.515625 180.050781 76.996094 C 179.4375 76.675781 178.902344 77.609375 179.515625 77.929688 C 182.023438 79.238281 184.582031 80.570312 186.605469 82.601562 C 189.136719 85.136719 189.832031 88.445312 189.804688 91.941406 C 189.777344 95.171875 188.710938 98.132812 186.3125 100.347656 C 184.128906 102.351562 181.277344 103.417969 178.316406 103.257812 C 178.289062 103.257812 178.289062 103.257812 178.265625 103.257812 C 178.398438 102.882812 178.503906 102.535156 178.585938 102.136719 C 178.984375 100.109375 178.71875 97.8125 178.34375 95.757812 C 177.945312 93.703125 176.90625 92.289062 175.359375 90.925781 C 174.851562 90.472656 174.078125 91.222656 174.613281 91.675781 C 175.867188 92.769531 176.851562 93.917969 177.25 95.597656 C 177.597656 97.144531 177.785156 98.90625 177.730469 100.507812 C 177.679688 102.109375 177.171875 103.578125 176.265625 104.914062 C 175.546875 105.980469 173.945312 108.035156 172.453125 107.953125 C 172.453125 107.847656 172.453125 107.742188 172.453125 107.609375 C 172.480469 104.191406 170.988281 100.9375 168.269531 98.878906 C 167.710938 98.480469 167.175781 99.386719 167.738281 99.816406 C 170.535156 101.921875 171.8125 105.605469 171.308594 109.023438 C 170.695312 113.078125 167.445312 115.5625 164.003906 117.347656 C 160.246094 119.269531 155.875 120.285156 151.664062 119.589844 C 149.773438 119.269531 147.800781 118.628906 146.308594 117.375 C 144.230469 115.585938 144.28125 113.050781 144.871094 110.597656 C 145.027344 109.929688 143.988281 109.636719 143.828125 110.304688 C 143.644531 111.050781 143.511719 111.824219 143.429688 112.570312 C 140.445312 109.984375 136.449219 109.289062 132.582031 109.101562 C 128.558594 108.914062 124.320312 109.210938 120.589844 110.863281 C 116.566406 112.652344 113.925781 115.988281 112.328125 120.019531 C 110.566406 124.449219 109.6875 129.359375 109.554688 134.109375 C 109.34375 142.304688 111.953125 150.601562 118.136719 156.101562 C 119.65625 160.53125 116.113281 165.496094 112.59375 167.84375 C 109.34375 170.007812 103.238281 171.714844 100.359375 168.058594 C 99.933594 167.523438 99.1875 168.269531 99.613281 168.804688 C 102.757812 172.835938 109.503906 171.152344 113.125 168.75 C 116.644531 166.402344 120.136719 161.707031 119.496094 157.195312 C 122.640625 159.570312 126.132812 160.824219 130.023438 161.304688 C 130.078125 161.304688 130.15625 161.332031 130.210938 161.332031 C 130.238281 161.359375 130.265625 161.386719 130.289062 161.414062 C 132.714844 163.789062 133.0625 167.578125 132.875 170.78125 C 132.664062 174.195312 131.410156 177.613281 128.746094 179.855469 C 126.078125 182.121094 121.761719 182.738281 118.351562 182.921875 C 114.9375 183.109375 111.234375 182.203125 109.394531 179.054688 C 109.050781 178.464844 108.117188 179 108.460938 179.585938 C 110.273438 182.710938 113.820312 183.992188 117.3125 184.019531 C 119.578125 184.019531 121.84375 183.589844 124.027344 183.109375 C 125.386719 182.789062 126.691406 182.390625 127.890625 181.695312 C 127.890625 181.855469 127.972656 181.988281 128.132812 182.097656 C 130.664062 183.671875 131.304688 186.660156 131.382812 189.460938 C 131.464844 191.835938 131.703125 195.972656 128.558594 196.453125 C 128.292969 196.480469 128.183594 196.667969 128.183594 196.855469 C 128.023438 196.960938 127.945312 197.148438 128.023438 197.386719 C 129.117188 200.21875 129.570312 203.3125 128.636719 206.222656 C 127.839844 208.730469 125.652344 213.027344 122.453125 212.386719 C 122.375 212.359375 122.320312 212.386719 122.269531 212.386719 C 119.816406 211.425781 117.097656 211.238281 114.460938 211.613281 C 117.789062 208.570312 119.949219 204.382812 120.5625 199.925781 C 120.644531 199.257812 119.628906 198.964844 119.523438 199.628906 C 118.484375 207.210938 112.832031 213.5625 105.292969 215.109375 C 101.347656 215.9375 96.949219 215.457031 93.351562 213.507812 C 89.328125 211.320312 88.019531 206.542969 88.152344 202.21875 C 88.3125 197.28125 90.125 192.558594 91.910156 188.019531 C 92.046875 187.648438 91.777344 187.40625 91.484375 187.378906 C 91.40625 187.273438 91.273438 187.21875 91.085938 187.21875 C 90.953125 187.21875 90.847656 187.246094 90.765625 187.328125 C 86.234375 185.296875 88.898438 179.5625 90.417969 176.464844 C 91.964844 173.316406 93.191406 169.527344 90.765625 166.457031 C 88.792969 163.949219 85.59375 162.90625 83.0625 161.171875 C 80.210938 159.195312 78.160156 156.179688 77.148438 152.898438 C 75.972656 149.109375 76.105469 144.972656 77.8125 141.367188 C 77.839844 141.316406 77.867188 141.234375 77.867188 141.183594 C 77.917969 141.074219 77.917969 140.96875 77.867188 140.835938 C 74 131.496094 73.949219 120.765625 77.734375 111.371094 C 79.679688 106.566406 82.957031 102.511719 85.089844 97.8125 C 87.273438 92.957031 87.007812 87.9375 87.433594 82.761719 C 88.289062 72.511719 93.964844 63.382812 101.214844 56.339844 C 105.023438 52.628906 109.289062 49.398438 113.714844 46.464844 C 115.84375 45.050781 118.03125 43.6875 120.214844 42.355469 C 122.214844 41.125 124.132812 39.820312 125.464844 37.84375 C 126.851562 35.789062 127.707031 33.574219 129.597656 31.863281 C 131.382812 30.238281 133.59375 29.167969 135.859375 28.421875 C 140.792969 26.820312 146.042969 26.875 151.105469 26.046875 C 156.011719 25.246094 160.140625 23.136719 164.457031 20.871094 C 166.617188 19.722656 168.828125 18.628906 171.203125 17.988281 C 173.8125 17.265625 176.371094 17.320312 179.011719 17.855469 C 181.382812 18.335938 183.726562 19.027344 186.152344 19.132812 C 187.21875 19.1875 188.3125 19.082031 189.351562 18.8125 C 190.628906 18.46875 191.722656 17.773438 192.949219 17.292969 C 195.613281 16.253906 198.441406 16.945312 201.183594 17.027344 C 203.558594 17.105469 205.929688 16.757812 208.246094 16.253906 C 213.257812 15.15625 218.136719 13.183594 223.304688 13.023438 C 228.503906 12.863281 233.085938 15.53125 238.203125 15.984375 C 242.789062 16.386719 246.734375 14.089844 250.757812 12.277344 C 252.996094 11.261719 255.367188 10.40625 257.847656 10.433594 C 260.300781 10.460938 262.671875 11.339844 264.910156 12.25 C 267.121094 13.128906 269.308594 14.144531 271.652344 14.675781 C 274.132812 15.238281 276.582031 14.972656 279.089844 15.105469 C 281.832031 15.238281 284.257812 16.332031 285.699219 18.761719 C 286.949219 20.84375 287.085938 23.40625 285.964844 25.566406 C 284.871094 27.648438 282.898438 29.0625 280.609375 29.488281 C 280.339844 29.542969 280.234375 29.730469 280.234375 29.917969 C 280.128906 30.238281 280.289062 30.636719 280.714844 30.609375 C 280.902344 30.609375 281.0625 30.609375 281.246094 30.609375 C 281.328125 30.664062 281.40625 30.691406 281.515625 30.691406 C 281.566406 30.691406 281.621094 30.691406 281.648438 30.664062 L 281.726562 30.609375 C 286.125 30.746094 290.230469 32.90625 292.761719 36.5625 C 294.226562 38.699219 295.53125 41.207031 296.4375 43.636719 C 296.867188 44.808594 297.183594 46.0625 297.132812 47.316406 C 297.050781 48.679688 296.519531 49.933594 296.199219 51.242188 C 295.640625 53.644531 296.4375 56.417969 295.078125 58.582031 C 293.878906 60.503906 291.5625 61.625 289.347656 61.890625 C 287.058594 62.15625 284.84375 61.542969 283.007812 60.183594 C 281.59375 59.140625 280.128906 58.554688 278.6875 59.914062 C 277.808594 60.742188 277.488281 61.917969 277.007812 62.984375 C 276.371094 64.34375 275.332031 65.226562 274.050781 65.972656 C 271.546875 67.414062 268.746094 68.800781 265.789062 68.640625 C 265.683594 68.640625 265.601562 68.667969 265.523438 68.695312 C 265.363281 68.667969 265.203125 68.667969 265.042969 68.640625 C 264.988281 68.640625 264.9375 68.640625 264.882812 68.667969 C 263.230469 67.386719 261.578125 66.082031 259.925781 64.800781 C 258.488281 63.679688 257.019531 62.851562 255.367188 62.476562 C 260.058594 60.769531 264.242188 57.511719 263.070312 51.988281 C 262.9375 51.320312 261.898438 51.589844 262.03125 52.28125 C 262.75 55.617188 260.617188 58.660156 257.847656 60.289062 C 255.023438 61.96875 251.503906 62.664062 248.253906 62.929688 C 242.523438 63.410156 233.300781 62.664062 231.96875 55.589844 C 231.835938 54.925781 230.820312 55.191406 230.929688 55.886719 C 231.328125 57.992188 232.339844 59.59375 233.78125 60.824219 C 233.753906 60.847656 233.726562 60.875 233.726562 60.902344 C 231.488281 63.972656 228.101562 65.894531 224.480469 66.800781 C 222.507812 67.28125 220.507812 67.46875 218.480469 67.496094 C 216.910156 67.496094 215.308594 67.441406 213.84375 66.933594 C 214.269531 66.585938 214.699219 66.1875 215.042969 65.707031 C 216.617188 63.570312 217.628906 60.929688 218.375 58.421875 C 218.5625 57.753906 217.550781 57.488281 217.335938 58.125 C 216.695312 60.316406 215.84375 62.53125 214.589844 64.453125 C 213.339844 66.402344 211.445312 67.226562 209.3125 67.949219 C 206.996094 68.722656 204.675781 68.617188 202.304688 68.1875 C 200.066406 67.789062 197.695312 67.496094 196.148438 65.652344 C 195.695312 65.121094 194.949219 65.894531 195.402344 66.402344 C 197.027344 68.320312 199.425781 68.722656 201.796875 69.148438 C 203.398438 69.441406 205.023438 69.628906 206.621094 69.523438 C 208.140625 75.554688 216.644531 78.625 222.320312 76.328125 C 217.46875 84.574219 207.289062 87.777344 198.441406 84.015625 C 197.375 83.5625 196.335938 83.132812 195.1875 82.894531 C 194.175781 82.679688 193.136719 82.546875 192.148438 82.199219 C 189.9375 81.425781 188.070312 79.824219 186.765625 77.902344 C 183.914062 73.660156 184.046875 68.296875 185.40625 63.542969 C 185.59375 62.878906 184.582031 62.609375 184.367188 63.25 C 182.289062 70.378906 183.488281 79.664062 191.136719 82.949219 C 193.082031 83.773438 195.214844 83.828125 197.160156 84.601562 C 199.210938 85.429688 201.160156 86.203125 203.34375 86.523438 C 207.289062 87.085938 211.390625 86.46875 214.964844 84.65625 C 218.773438 82.734375 221.894531 79.585938 223.8125 75.769531 C 223.867188 75.660156 223.867188 75.582031 223.867188 75.472656 C 224.984375 74.726562 225.890625 73.738281 226.53125 72.433594 C 226.824219 71.816406 225.917969 71.285156 225.597656 71.898438 C 222.214844 78.835938 209.605469 76.328125 207.632812 69.390625 C 208.273438 69.28125 208.914062 69.148438 209.582031 68.9375 C 210.671875 68.5625 211.765625 68.160156 212.75 67.601562 C 214.378906 68.320312 216.164062 68.480469 217.976562 68.507812 C 220.242188 68.535156 222.53125 68.320312 224.746094 67.789062 C 228.664062 66.828125 232.207031 64.71875 234.605469 61.4375 C 238.605469 64.183594 244.867188 64.398438 249.238281 63.890625 C 250.222656 63.785156 251.316406 63.597656 252.4375 63.332031 C 252.488281 63.359375 252.570312 63.359375 252.675781 63.359375 C 255.714844 63.089844 257.820312 64.503906 260.113281 66.292969 C 262.246094 67.949219 264.351562 69.601562 266.480469 71.257812 C 268.535156 72.859375 270.585938 74.460938 272.53125 76.167969 C 274.34375 77.769531 276.664062 79.664062 276.636719 82.308594 C 276.636719 82.441406 276.664062 82.519531 276.714844 82.601562 C 276.714844 82.679688 276.714844 82.761719 276.742188 82.839844 C 277.382812 84.84375 276.316406 86.898438 276.609375 88.953125 C 276.875 90.714844 277.835938 92.261719 278.6875 93.808594 C 279.835938 95.863281 280.316406 97.757812 280.554688 100.109375 C 280.742188 101.761719 281.085938 103.257812 281.648438 104.753906 C 278.183594 103.417969 274.53125 105.6875 272.71875 108.890625 C 272.664062 108.96875 272.640625 109.050781 272.640625 109.128906 C 272.585938 109.183594 272.558594 109.234375 272.503906 109.316406 C 271.679688 111.316406 270.828125 113.347656 270.558594 115.507812 C 270.320312 117.535156 270.667969 119.539062 271.359375 121.460938 C 272.105469 123.539062 273.171875 125.488281 273.972656 127.542969 C 274.746094 129.546875 275.199219 131.628906 275.675781 133.734375 C 275.4375 133.976562 275.570312 134.296875 275.835938 134.457031 C 276.289062 136.511719 276.851562 138.511719 277.675781 140.460938 C 278.503906 142.4375 279.542969 144.332031 280.449219 146.253906 C 282.207031 149.9375 283.644531 154.472656 281.832031 158.421875 C 280.792969 160.664062 278.796875 161.8125 276.664062 162.800781 C 274.023438 164.027344 271.359375 165.230469 268.695312 166.429688 C 268.082031 166.722656 268.613281 167.628906 269.226562 167.363281 C 270.988281 166.5625 272.71875 165.761719 274.476562 164.960938 C 276.15625 171.261719 274.132812 177.613281 272.34375 183.644531 C 270.640625 189.488281 270 195.628906 267.789062 201.339844 C 267.28125 202.671875 266.800781 203.980469 266.589844 205.394531 C 266.347656 206.96875 266.402344 208.570312 266.429688 210.171875 C 266.429688 212.894531 266.1875 215.617188 265.496094 218.234375 C 264.804688 220.792969 263.65625 223.25 261.84375 225.199219 C 259.871094 227.332031 257.207031 228.585938 254.515625 229.546875 C 249.210938 231.445312 242.976562 232.699219 239.910156 237.957031 C 239.910156 237.980469 239.882812 238.007812 239.882812 238.007812 C 239.75 238.089844 239.617188 238.222656 239.617188 238.4375 C 239.457031 240.199219 240.148438 241.746094 240.976562 243.238281 C 241.988281 245.054688 242.976562 246.84375 243.90625 248.683594 C 245.746094 252.339844 247.320312 256.128906 248.679688 260 C 250.011719 263.84375 251.105469 267.765625 251.957031 271.714844 C 252.625 274.839844 252.808594 278.308594 254.328125 281.164062 C 256.0625 284.421875 259.179688 284.742188 262.457031 284.261719 C 262.5625 284.367188 262.722656 284.421875 262.9375 284.367188 C 267.441406 283.300781 272.1875 282.390625 276.796875 283.40625 C 280.316406 284.179688 283.328125 286.15625 285.992188 288.503906 C 290.734375 292.722656 294.625 298.113281 300.355469 301.046875 C 289.324219 309.269531 284.550781 323.066406 275.25 332.992188 Z M 275.25 332.992188 "
              fill-opacity="1" fill-rule="nonzero"/>
    </g>
    <path fill="#ffffff"
          d="M 177.945312 75.101562 C 174.292969 75.289062 172.613281 79.316406 171.09375 82.09375 C 168.988281 85.9375 166.832031 89.859375 163.710938 93.007812 C 160.886719 95.863281 157.128906 98.1875 153 98.320312 C 149.292969 98.425781 145.535156 96.71875 143.644531 93.460938 C 144.894531 91.542969 145.617188 89.273438 145.457031 86.816406 C 145.402344 86.125 144.335938 86.125 144.390625 86.816406 C 144.523438 88.980469 143.9375 91.007812 142.84375 92.742188 C 142.605469 92.824219 142.390625 93.0625 142.417969 93.355469 C 140.738281 95.625 138.179688 97.253906 135.300781 97.707031 C 132.503906 98.160156 129.597656 97.652344 127.066406 96.425781 C 124.640625 95.25 122.054688 93.222656 121.789062 90.339844 C 121.734375 89.671875 120.667969 89.644531 120.722656 90.339844 C 121.28125 96.585938 129.542969 99.496094 134.875 98.855469 C 138.074219 98.480469 140.976562 96.800781 142.921875 94.398438 C 144.683594 97.144531 147.722656 98.828125 150.945312 99.253906 C 154.703125 99.761719 158.410156 98.453125 161.445312 96.265625 C 164.910156 93.78125 167.46875 90.339844 169.628906 86.738281 C 170.855469 84.707031 171.949219 82.601562 173.09375 80.546875 C 174.132812 78.675781 175.464844 76.273438 177.890625 76.140625 C 178.609375 76.113281 178.609375 75.046875 177.945312 75.101562 Z M 177.945312 75.101562 "
          fill-opacity="1" fill-rule="nonzero"/>
    <path fill="#ffffff"
          d="M 177.359375 69.816406 C 172.855469 66.933594 166.511719 67.574219 162.832031 71.523438 C 158.542969 76.113281 158.25 84.121094 152.09375 87.003906 C 151.480469 87.296875 152.011719 88.207031 152.625 87.9375 C 157.957031 85.457031 159.101562 79.210938 161.875 74.59375 C 163.445312 71.976562 165.65625 70.082031 168.644531 69.363281 C 171.441406 68.695312 174.371094 69.175781 176.796875 70.722656 C 177.382812 71.097656 177.917969 70.191406 177.359375 69.816406 Z M 177.359375 69.816406 "
          fill-opacity="1" fill-rule="nonzero"/>
    <path fill="#ffffff"
          d="M 178.769531 57.914062 C 171.203125 53.828125 161.660156 53.296875 154.25 58.046875 C 151 60.128906 148.253906 63.117188 146.628906 66.667969 C 145.75 68.589844 145.347656 70.617188 144.84375 72.671875 C 144.230469 75.128906 143.03125 77.796875 140.257812 78.222656 C 139.59375 78.332031 139.859375 79.34375 140.550781 79.265625 C 144.949219 78.570312 145.640625 73.632812 146.546875 70.136719 C 147.5625 66.242188 149.878906 62.824219 153.023438 60.289062 C 160.222656 54.445312 170.347656 54.578125 178.289062 58.875 C 178.851562 59.167969 179.382812 58.261719 178.769531 57.914062 Z M 178.769531 57.914062 "
          fill-opacity="1" fill-rule="nonzero"/>
    <path fill="#ffffff"
          d="M 279.808594 40.058594 C 278.636719 33.253906 272.824219 28.636719 266.164062 28.023438 C 264.003906 27.835938 261.792969 27.835938 259.632812 27.96875 C 257.792969 28.101562 255.980469 28.476562 254.488281 29.625 C 253.957031 30.023438 254.488281 30.957031 255.023438 30.558594 C 256.675781 29.277344 258.671875 29.0625 260.699219 29.007812 C 262.859375 28.957031 265.070312 28.902344 267.226562 29.222656 C 270.960938 29.785156 274.371094 31.785156 276.554688 34.882812 C 280.847656 40.964844 279.328125 52.414062 270.90625 54.042969 C 270.238281 54.175781 270.507812 55.191406 271.199219 55.085938 C 277.808594 53.804688 280.847656 46.144531 279.808594 40.058594 Z M 279.808594 40.058594 "
          fill-opacity="1" fill-rule="nonzero"/>
    <path fill="#ffffff"
          d="M 258.378906 47.371094 C 257.527344 49.558594 256.566406 52.042969 254.410156 53.242188 C 252.277344 54.417969 249.53125 54.125 247.210938 53.804688 C 244.839844 53.457031 242.816406 52.574219 241.667969 50.332031 C 240.710938 48.414062 240.523438 46.195312 240.496094 44.0625 C 240.496094 43.367188 239.429688 43.367188 239.429688 44.0625 C 239.429688 46.464844 239.695312 49.027344 240.894531 51.1875 C 242.230469 53.535156 244.46875 54.496094 247.054688 54.871094 C 249.691406 55.246094 252.730469 55.511719 255.101562 54.070312 C 257.421875 52.683594 258.460938 50.066406 259.394531 47.664062 C 259.660156 46.996094 258.621094 46.730469 258.378906 47.371094 Z M 258.378906 47.371094 "
          fill-opacity="1" fill-rule="nonzero"/>
    <path fill="#ffffff"
          d="M 198.011719 334.78125 C 194.363281 334.222656 193.082031 330.058594 192.097656 327.042969 C 190.765625 322.960938 189.566406 318.824219 188.523438 314.660156 C 186.417969 306.199219 184.925781 297.605469 184.046875 288.929688 C 183.96875 288.265625 182.902344 288.238281 182.980469 288.929688 C 183.914062 298.191406 185.539062 307.398438 187.859375 316.421875 C 189.003906 320.824219 190.203125 325.308594 191.828125 329.550781 C 192.871094 332.300781 194.546875 335.316406 197.746094 335.824219 C 198.386719 335.929688 198.679688 334.890625 198.011719 334.78125 Z M 198.011719 334.78125 "
          fill-opacity="1" fill-rule="nonzero"/>
    <path fill="#ffffff"
          d="M 170.480469 306.597656 C 170.320312 305.933594 169.308594 306.226562 169.441406 306.890625 C 171.496094 316.019531 173.707031 327.761719 165.496094 334.675781 C 164.964844 335.128906 165.738281 335.875 166.246094 335.421875 C 174.773438 328.242188 172.613281 316.101562 170.480469 306.597656 Z M 170.480469 306.597656 "
          fill-opacity="1" fill-rule="nonzero"/>
    <path fill="#ffffff"
          d="M 224.691406 273.132812 C 222.453125 285.621094 216.003906 297.070312 206.515625 305.476562 C 206.007812 305.933594 206.753906 306.679688 207.261719 306.226562 C 216.882812 297.710938 223.4375 286.046875 225.703125 273.398438 C 225.839844 272.757812 224.796875 272.464844 224.691406 273.132812 Z M 224.691406 273.132812 "
          fill-opacity="1" fill-rule="nonzero"/>
    <path fill="#ffffff"
          d="M 102.492188 127.382812 C 101.90625 132.480469 97.003906 135.390625 92.257812 135.683594 C 87.539062 135.976562 82.050781 133.523438 81.890625 128.15625 C 81.863281 127.464844 80.796875 127.464844 80.824219 128.15625 C 80.984375 134.082031 86.929688 137.070312 92.257812 136.75 C 97.640625 136.40625 102.890625 133.09375 103.558594 127.382812 C 103.640625 126.71875 102.574219 126.71875 102.492188 127.382812 Z M 102.492188 127.382812 "
          fill-opacity="1" fill-rule="nonzero"/>
    <path fill="#ffffff"
          d="M 99.480469 120.339844 C 97.589844 123.167969 94.070312 124.957031 90.6875 124.207031 C 87.433594 123.515625 84.902344 120.550781 84.824219 117.214844 C 84.796875 116.523438 83.730469 116.523438 83.757812 117.214844 C 83.863281 121.003906 86.6875 124.421875 90.417969 125.222656 C 94.308594 126.078125 98.253906 124.074219 100.414062 120.84375 C 100.785156 120.3125 99.855469 119.777344 99.480469 120.339844 Z M 99.480469 120.339844 "
          fill-opacity="1" fill-rule="nonzero"/>
    <path fill="#ffffff"
          d="M 135.808594 115.640625 C 132.210938 112.945312 126.585938 114.308594 123.203125 116.734375 C 119.175781 119.589844 118.511719 124.527344 118.03125 129.117188 C 117.496094 134.296875 117.363281 139.847656 120.164062 144.464844 C 123.203125 149.535156 128.585938 150.601562 134.074219 150.921875 C 134.769531 150.976562 134.769531 149.910156 134.074219 149.855469 C 129.703125 149.589844 125.148438 149.027344 122.160156 145.453125 C 119.230469 141.929688 118.644531 137.179688 118.832031 132.75 C 119.015625 128.585938 119.175781 123.355469 121.65625 119.804688 C 124 116.414062 129.570312 114.308594 133.515625 115.613281 C 139.140625 117.457031 138.605469 124.6875 138.074219 129.332031 C 137.992188 130.027344 139.058594 130 139.140625 129.332031 C 139.644531 124.660156 140.046875 118.816406 135.808594 115.640625 Z M 135.808594 115.640625 "
          fill-opacity="1" fill-rule="nonzero"/>
    <path fill="#ffffff"
          d="M 147.429688 140.703125 C 147.082031 139.632812 146.601562 138.621094 146.414062 137.5 C 146.148438 136.003906 146.363281 134.511719 146.867188 133.070312 C 147.109375 132.429688 146.070312 132.132812 145.828125 132.773438 C 145.324219 134.242188 145.109375 135.765625 145.296875 137.285156 C 145.507812 138.992188 146.496094 140.515625 146.679688 142.222656 C 146.816406 143.371094 146.414062 144.597656 145.164062 144.945312 C 144.257812 145.183594 143.296875 144.917969 142.417969 144.707031 C 140.738281 144.277344 139.21875 144.226562 137.488281 144.4375 C 134.101562 144.839844 130.609375 145.238281 128.929688 141.582031 C 127.625 138.78125 127.492188 135.042969 129.8125 132.722656 C 130.289062 132.242188 129.542969 131.496094 129.066406 131.976562 C 126.640625 134.402344 126.507812 138.191406 127.679688 141.261719 C 128.238281 142.757812 129.089844 144.171875 130.476562 145 C 131.996094 145.90625 133.863281 145.90625 135.566406 145.746094 C 136.714844 145.640625 137.832031 145.398438 138.980469 145.34375 C 140.257812 145.292969 141.378906 145.558594 142.628906 145.851562 C 144.121094 146.199219 145.933594 146.332031 147.027344 145.050781 C 148.039062 143.796875 147.882812 142.089844 147.429688 140.703125 Z M 147.429688 140.703125 "
          fill-opacity="1" fill-rule="nonzero"/>
    <path fill="#ffffff"
          d="M 269.148438 186.125 C 269.175781 186.097656 269.175781 186.074219 269.199219 186.019531 C 270.480469 183.082031 271.304688 178.734375 269.46875 175.851562 C 268.585938 174.464844 266.933594 173.714844 265.46875 173.128906 C 263.738281 172.433594 261.898438 172.007812 260.03125 171.875 C 256.140625 171.605469 252.570312 172.808594 249.078125 174.410156 C 245.105469 176.222656 241.242188 178.253906 237.378906 180.308594 C 237.058594 180.46875 237.058594 180.789062 237.191406 181.027344 C 237.191406 181.109375 237.21875 181.1875 237.246094 181.242188 C 237.273438 181.457031 237.429688 181.640625 237.75 181.617188 C 237.859375 181.589844 237.992188 181.589844 238.125 181.5625 C 243.453125 182.523438 248.707031 183.910156 253.929688 185.324219 C 256.515625 186.019531 259.074219 186.714844 261.65625 187.433594 C 264.164062 188.15625 266.640625 189.007812 268.773438 190.53125 C 268.960938 190.664062 269.121094 190.664062 269.253906 190.554688 C 269.414062 190.503906 269.546875 190.394531 269.601562 190.210938 C 270.027344 188.875 269.8125 187.59375 269.253906 186.3125 C 269.199219 186.257812 269.175781 186.179688 269.148438 186.125 Z M 247.347656 176.382812 C 250.519531 174.863281 253.742188 173.261719 257.289062 172.941406 C 260.566406 172.648438 264.03125 173.34375 266.882812 174.996094 C 270.214844 176.917969 269.761719 181.667969 268.507812 184.898438 C 268.054688 184.070312 267.496094 183.296875 266.828125 182.761719 C 265.601562 181.828125 264.644531 182.628906 263.285156 182.335938 C 261.84375 181.988281 260.832031 180.574219 259.5 179.988281 C 258.246094 179.425781 256.835938 179.347656 255.476562 179.347656 C 253.53125 179.347656 251.582031 179.425781 249.636719 179.507812 C 246.304688 179.667969 242.976562 179.933594 239.644531 180.335938 C 242.203125 178.945312 244.761719 177.640625 247.347656 176.382812 Z M 254.703125 184.417969 C 250.359375 183.242188 246.011719 182.070312 241.617188 181.136719 C 243.613281 180.921875 245.585938 180.761719 247.585938 180.628906 C 250.757812 180.441406 254.195312 180.015625 257.339844 180.441406 C 258.832031 180.65625 259.871094 181.320312 261.046875 182.203125 C 261.816406 182.789062 262.671875 183.351562 263.683594 183.402344 C 264.402344 183.429688 265.203125 183.082031 265.921875 183.378906 C 266.5625 183.617188 267.042969 184.550781 267.363281 185.085938 C 268.160156 186.339844 268.90625 187.726562 268.722656 189.195312 C 264.617188 186.527344 259.339844 185.699219 254.703125 184.417969 Z M 254.703125 184.417969 "
          fill-opacity="1" fill-rule="nonzero"/>
    <path fill="#ffffff"
          d="M 260.753906 111.878906 C 260.511719 111.238281 259.472656 111.53125 259.710938 112.171875 C 261.230469 116.121094 263.175781 121.859375 259.074219 125.035156 C 258.539062 125.4375 259.074219 126.371094 259.605469 125.96875 C 264.164062 122.421875 262.484375 116.414062 260.753906 111.878906 Z M 260.753906 111.878906 "
          fill-opacity="1" fill-rule="nonzero"/>
</svg>