<svg xmlns="http://www.w3.org/2000/svg">
  <defs>
    <svg id="icon-arrow" fill="currentColor" viewBox="0 0 24 24">
      <path d="M4 12l1.4 1.4L11 7.8V20h2V7.8l5.6 5.6L20 12l-8-8-8 8z" />
    </svg>

    <svg id="icon-play" fill="currentColor" viewBox="0 0 24 24">
      <path d="M8 5v14l11-7z" />
    </svg>

    <svg id="icon-play-small" fill="currentColor" viewBox="0 0 24 24">
      <path d="M10 16.5v-9l6 4.5z" />
    </svg>

    <svg id="icon-play-circle" fill="none" viewBox="0 0 32 32">
      <path fill="currentColor" d="M12 11v10.4a1 1 0 0 0 1.5.8l8.2-5.2a1 1 0 0 0 0-1.7l-8.2-5.1a1 1 0 0 0-1.5.8Z"/>
      <circle cx="16" cy="16" r="14" stroke="currentColor" stroke-width="2"/>
    </svg>

    <svg id="icon-pause" fill="currentColor" viewBox="0 0 24 24">
      <path d="M6 19h4V5H6v14zm8-14v14h4V5h-4z" />
    </svg>

    <svg id="icon-pause-small" fill="currentColor" viewBox="0 0 24 24">
      <path d="M11 16H8V8h3zM16 16h-3V8h3z" />
    </svg>

    <svg id="icon-chevron" fill="currentColor" viewBox="0 0 24 24">
      <path d="M12 8l-6 6 1.4 1.4 4.6-4.6 4.6 4.6L18 14l-6-6z" />
    </svg>

    <svg id="icon-chevron-trim" fill="currentColor" viewBox="0 0 12 7.41">
      <path
        d="M12 1.40991L10.59 -8.78613e-05L6 4.57991L1.41 -8.86638e-05L5.24537e-07 1.40991L6 7.40991L12 1.40991Z" />
    </svg>

    <svg id="icon-email" fill="currentColor" viewBox="0 0 24 24">
      <path
        d="M20 4H4a2 2 0 0 0-2 2v12c0 1.1.9 2 2 2h16a2 2 0 0 0 2-2V6a2 2 0 0 0-2-2zm0 14H4V8l8 5 8-5v10zm-8-7L4 6h16l-8 5z" />
    </svg>

    <svg id="icon-link" fill="currentColor" viewBox="0 0 24 24">
      <path
        d="M3.9 12c0-1.7 1.4-3.1 3.1-3.1h4V7H7a5 5 0 0 0 0 10h4v-1.9H7A3.1 3.1 0 0 1 3.9 12zM8 13h8v-2H8v2zm9-6h-4v1.9h4a3.1 3.1 0 0 1 0 6.2h-4V17h4a5 5 0 0 0 0-10z" />
    </svg>

    <svg id="icon-share" fill="currentColor" viewBox="0 0 24 24">
      <path
        d="M18 16.08c-.76 0-1.44.3-1.96.77L8.91 12.7c.05-.23.09-.46.09-.7s-.04-.47-.09-.7l7.05-4.11A2.99 2.99 0 0 0 21 5a3 3 0 1 0-5.91.7L8.04 9.81A2.99 2.99 0 0 0 3 12a3 3 0 0 0 5.04 2.19l7.12 4.16A2.92 2.92 0 1 0 18 16.08zM18 4c.55 0 1 .45 1 1s-.45 1-1 1-1-.45-1-1 .45-1 1-1zM6 13c-.55 0-1-.45-1-1s.45-1 1-1 1 .45 1 1-.45 1-1 1zm12 7.02c-.55 0-1-.45-1-1s.45-1 1-1 1 .45 1 1-.45 1-1 1z" />
    </svg>

    <svg id="icon-facebook" fill="currentColor" viewBox="0 0 24 24">
      <path d="M10 8H7v4h3v12h5V12h3.6l.4-4h-4V6.3c0-1 .2-1.3 1.1-1.3H19V0h-3.8C11.6 0 10 1.6 10 4.6V8Z" />
    </svg>

    <svg id="icon-twitter" fill="currentColor" viewBox="0 0 24 24">
      <path
        d="M24 4.3a9 9 0 0 1-2.8.8 5 5 0 0 0 2.1-2.7c-1 .5-2 1-3 1.2A5 5 0 0 0 11.7 8a14 14 0 0 1-10-5 5 5 0 0 0 1.5 6.6c-.8 0-1.6-.3-2.2-.6a5 5 0 0 0 4 4.8 5 5 0 0 1-2.3.1 5 5 0 0 0 4.6 3.5 9.9 9.9 0 0 1-7.3 2A14 14 0 0 0 21.5 6.9 10 10 0 0 0 24 4.3Z" />
    </svg>

    <svg id="icon-menu" fill="currentColor" viewBox="0 0 24 24">
      <path d="M3 18h12v-2H3v2zM3 6v2h18V6H3zm0 7h18v-2H3v2z" />
    </svg>

    <svg id="icon-forward-10" fill="currentColor" viewBox="0 0 24 24">
      <path d="M18 13a6 6 0 1 1-6-6v4l5-5-5-5v4a8 8 0 1 0 8 8h-2z" />
      <path
        d="M10.9 16v-4.27h-.09l-1.77.63v.69l1.01-.31V16zm3.42-4.22c-.18-.07-.37-.1-.59-.1s-.41.03-.59.1-.33.18-.45.33-.23.34-.29.57-.1.5-.1.82v.74c0 .32.04.6.11.82s.17.42.3.57.28.26.46.33.37.1.59.1.41-.03.59-.1.33-.18.45-.33.22-.34.29-.57.1-.5.1-.82v-.74c0-.32-.04-.6-.11-.82s-.17-.42-.3-.57-.29-.26-.46-.33zm.01 2.57c0 .19-.01.35-.04.48s-.06.24-.11.32-.11.14-.19.17-.16.05-.25.05-.18-.02-.25-.05-.14-.09-.19-.17-.09-.19-.12-.32-.04-.29-.04-.48v-.97c0-.19.01-.35.04-.48s.06-.23.12-.31.11-.14.19-.17.16-.05.25-.05.18.02.25.05.14.09.19.17.09.18.12.31.04.29.04.48v.97z" />
    </svg>

    <svg id="icon-backward-10" fill="currentColor" viewBox="0 0 24 24">
      <path
        d="M11.99 5V1l-5 5 5 5V7a6 6 0 1 1-6 6h-2a8 8 0 1 0 8-8zm-1.1 11h-.85v-3.26l-1.01.31v-.69l1.77-.63h.09V16zm4.28-1.76c0 .32-.03.6-.1.82s-.17.42-.29.57-.28.26-.45.33-.37.1-.59.1-.41-.03-.59-.1-.33-.18-.46-.33-.23-.34-.3-.57-.11-.5-.11-.82v-.74c0-.32.03-.6.1-.82s.17-.42.29-.57.28-.26.45-.33.37-.1.59-.1.41.03.59.1.33.18.46.33.23.34.3.57.11.5.11.82v.74zm-.85-.86c0-.19-.01-.35-.04-.48s-.07-.23-.12-.31-.11-.14-.19-.17-.16-.05-.25-.05-.18.02-.25.05-.14.09-.19.17-.09.18-.12.31-.04.29-.04.48v.97c0 .19.01.35.04.48s.07.24.12.32.11.14.19.17.16.05.25.05.18-.02.25-.05.14-.09.19-.17.09-.19.11-.32.04-.29.04-.48v-.97z" />
    </svg>

    <svg id="icon-tap" fill="currentColor" viewBox="0 0 24 24">
      <path
        d="M9 11.2V7.5a2.5 2.5 0 0 1 5 0v3.7A4.5 4.5 0 0 0 11.5 3 4.5 4.5 0 0 0 9 11.2zm9.8 4.7-4.5-2.3-.5-.1H13v-6a1.5 1.5 0 1 0-3 0v10.7l-3.7-.7c-.3 0-.6.1-.8.3l-.8.8 5 5c.3.2.6.4 1 .4h6.8c.8 0 1.4-.6 1.5-1.3l.7-5.3v-.1c0-.7-.3-1.2-.9-1.4z" />
    </svg>

    <svg id="icon-swipe" fill="currentColor" viewBox="0 0 24 24">
      <path
        d="m18.9 14.8-4.1-2a2 2 0 0 0-.9-.3H13v-6a1.5 1.5 0 1 0-3 0v10.7l-3.3-.7a1 1 0 0 0-.9.3l-.8.8 4.5 4.8c.4.4 1.2.6 1.7.6h6.2a2 2 0 0 0 2-1.7l.6-4.5a2 2 0 0 0-1.1-2z" />
      <path
        d="M20.1 3.9C18.7 2.2 15.6 1 12 1S5.3 2.2 3.9 3.9L2 2v5h5L5 5c1-1.4 3.6-2.5 7-2.5s6 1.1 7 2.4L17 7h5V2l-1.9 1.9z" />
    </svg>

    <svg id="icon-scale" fill="currentColor" viewBox="0 0 24 24">
      <path d="m22 3.4-5.3 5.3L20 12h-8V4l3.3 3.3L20.6 2 22 3.4zM3.4 22l5.3-5.3L12 20v-8H4l3.3 3.3L2 20.6 3.4 22z" />
    </svg>

    <svg id="icon-skip" fill="currentColor" viewBox="0 0 24 24">
      <path d="m6 18 8.5-6L6 6v12zM16 6v12h2V6h-2z" />
    </svg>

    <svg id="icon-close" fill="currentColor" viewBox="0 0 24 24">
      <path d="M19 6.4 17.6 5 12 10.6 6.4 5 5 6.4l5.6 5.6L5 17.6 6.4 19l5.6-5.6 5.6 5.6 1.4-1.4-5.6-5.6L19 6.4z" />
    </svg>

    <svg id="logo-google" fill="currentColor" viewBox="0 0 211 24">
      <path d="M10.38.57h1.26a8.74 8.74 0 0 1 5.6 2.5c-.6.56-1.13 1.2-1.78 1.72-.7-.47-1.35-1.04-2.16-1.31a6.48 6.48 0 0 0-7.18 1.85A6.68 6.68 0 0 0 6.2 14c2.22 2.62 6.66 2.93 9.16.55a5.23 5.23 0 0 0 1.56-3.27h-5.94v-2.5c2.72.02 5.44-.03 8.16.02.32-.04.26.33.3.53.17 2-.14 4.1-1.26 5.8a8.02 8.02 0 0 1-5.1 3.36 9.48 9.48 0 0 1-7.01-1.25 9.1 9.1 0 0 1-4.16-6.33 8.86 8.86 0 0 1 1.6-6.5A9.35 9.35 0 0 1 10.38.57Zm48.36.6h2.59v17.14h-2.59V1.17Zm65.73 3.87c.44-2.2 3.03-3.45 5.07-2.68 1.1.4 1.87 1.4 2.27 2.48-.6.33-1.18.65-1.8.93-.23-.47-.45-.99-.88-1.31-.8-.66-2.2-.26-2.54.72-.24.7-.03 1.48.43 2.04L132.2 14c.47-.78.92-1.58 1.42-2.34l1.61 1-1.82 2.93c.48.65 1 1.29 1.47 1.96-.53.37-1.04.76-1.55 1.15l-1.07-1.4a5.8 5.8 0 0 1-8.07-.52 5.43 5.43 0 0 1-.37-6.78 6.49 6.49 0 0 1 1.66-1.57c-.65-1-1.35-2.15-1.01-3.4Zm.4 9.18c.73 2.52 4.4 3.49 6.22 1.54-1.5-1.94-2.96-3.9-4.45-5.82-1.44.84-2.35 2.64-1.77 4.28Zm18-9.48a7.97 7.97 0 0 1 5.99-2.59c2.22-.08 4.5.83 5.9 2.57-.4.54-.94.94-1.4 1.43-2.04-2.6-6.3-2.65-8.6-.39a6.01 6.01 0 0 0-1.9 4.64 6.14 6.14 0 0 0 1.68 4.48 6.23 6.23 0 0 0 9.3-.49c.47.48.94.96 1.43 1.42-2.8 3.54-8.68 3.86-11.92.76-3.32-2.93-3.5-8.63-.48-11.83ZM83.56 2.5l2.34.01c1.97 5.27 3.97 10.53 5.95 15.8-.76 0-1.5.04-2.26-.01-.63-1.37-1.02-2.85-1.58-4.25-2.2.01-4.4-.02-6.6.01-.48 1.43-1.02 2.83-1.5 4.25H77.6a3065 3065 0 0 1 5.96-15.8ZM84.69 5c-.82 2.38-1.72 4.74-2.55 7.11h5.16c-.88-2.37-1.67-4.77-2.6-7.1Zm84.16-2.5h2.06v15.8h-2.06c0-5.27-.02-10.54 0-15.81Zm-66.3 1.69h2.07v3.3c.86.02 1.74.02 2.6 0 .03.64.03 1.27.02 1.9h-2.62v5.48c0 .57.12 1.24.64 1.55.54.32 1.17.17 1.73.05.26.59.5 1.19.72 1.8-1.21.33-2.6.4-3.72-.23-.94-.52-1.41-1.6-1.43-2.65-.03-2 .02-4-.02-6h-1.89V7.5h1.9V4.19Zm72.11-.01 2.08.01c-.01 1.1-.01 2.2 0 3.31h2.6c.02.63.02 1.26.02 1.9h-2.62c-.03 1.76 0 3.53-.01 5.3 0 .6.05 1.33.6 1.7.54.35 1.21.19 1.8.06l.71 1.77c-1.11.39-2.37.4-3.47-.05-1.08-.47-1.68-1.66-1.7-2.8-.03-2 0-4-.01-5.98h-1.9c0-.64 0-1.27.02-1.9l1.88-.01v-3.3ZM25.24 7.07a5.98 5.98 0 0 1 5 1.5 5.99 5.99 0 0 1 .39 8.15 6.02 6.02 0 0 1-6.52 1.62 5.7 5.7 0 0 1-3.37-3.23 5.97 5.97 0 0 1 1.55-6.7 5.88 5.88 0 0 1 2.95-1.34Zm.14 2.37c-1.16.3-2.1 1.3-2.36 2.47a3.66 3.66 0 0 0 1.36 3.87c1.04.75 2.55.75 3.6 0 1.7-1.17 1.95-3.84.58-5.35a3.18 3.18 0 0 0-3.18-.99Zm12.6-2.37a6 6 0 0 1 5.01 1.5 6 6 0 0 1 .54 7.96 5.97 5.97 0 0 1-9.87-1.04 6 6 0 0 1 1.12-6.84c.86-.85 2-1.4 3.2-1.58Zm.15 2.37a3.35 3.35 0 0 0-2.38 2.57 3.66 3.66 0 0 0 1.37 3.77c1.08.77 2.66.74 3.7-.07a3.72 3.72 0 0 0 .49-5.28 3.18 3.18 0 0 0-3.18-.99Zm12.31-2.35a4.5 4.5 0 0 1 4.14 1.22l-.02-.93h2.46v10.59c0 1.56-.39 3.22-1.49 4.38a5.78 5.78 0 0 1-2.99 1.54c-.74-.09-1.5-.04-2.24-.09a5.57 5.57 0 0 1-4.04-3.37c.76-.3 1.5-.62 2.27-.92.37.7.87 1.39 1.6 1.75 1.26.63 3 .34 3.82-.85.62-.87.62-1.99.62-3.01a4.53 4.53 0 0 1-3.95 1.23 5.9 5.9 0 0 1-.18-11.54Zm.45 2.34a3.2 3.2 0 0 0-1.75 1.2 3.75 3.75 0 0 0 .46 4.94 3.02 3.02 0 0 0 3.81.18c1.72-1.34 1.76-4.24.15-5.68a2.94 2.94 0 0 0-2.67-.64Zm13.56-1.09a5.39 5.39 0 0 1 6.03-.74c1.46.78 2.34 2.28 2.86 3.8-2.6 1.1-5.22 2.13-7.8 3.25.56.96 1.52 1.74 2.67 1.7 1.23.1 2.33-.64 3-1.62.66.45 1.36.85 1.99 1.34a5.79 5.79 0 0 1-6.26 2.46 5.62 5.62 0 0 1-3.88-3.17 6.2 6.2 0 0 1 1.39-7.02Zm2.35 1.32a3.36 3.36 0 0 0-1.7 2.97c1.73-.73 3.5-1.4 5.21-2.2a2.65 2.65 0 0 0-3.5-.77Zm42.38-1.03a5.24 5.24 0 0 1 6.88-.43c.48.4.78.94 1.04 1.48-.6.25-1.2.5-1.8.73-.7-1.55-2.9-1.85-4.2-.9-.6.44-.5 1.44.17 1.76 1.42.66 3.1.6 4.47 1.39 1 .57 1.63 1.73 1.5 2.89-.07 1.26-1.03 2.3-2.17 2.76a5.9 5.9 0 0 1-4.05.06 5.13 5.13 0 0 1-2.82-2.8c.62-.26 1.24-.52 1.86-.76.34.67.77 1.36 1.48 1.7.96.47 2.24.49 3.1-.19.62-.45.66-1.46.04-1.92-.7-.53-1.63-.59-2.46-.82a5.64 5.64 0 0 1-3-1.46c-.88-.94-.84-2.52-.04-3.5Zm94.16-1.3a6.05 6.05 0 0 1 3.45.1 4.94 4.94 0 0 1 3.02 3.18c.32.87.19 1.8.22 2.7h-8.47c.11 1.02.47 2.06 1.3 2.7a3.48 3.48 0 0 0 3.97.31c.53-.31.84-.86 1.14-1.37.62.23 1.24.5 1.85.76a4.96 4.96 0 0 1-3.48 2.86c-1.7.33-3.6.04-4.91-1.14-1.82-1.55-2.3-4.23-1.64-6.45a5.42 5.42 0 0 1 3.55-3.65Zm-.2 2.2a3.76 3.76 0 0 0-1.43 2.06c2.08 0 4.18.03 6.27-.02-.22-.98-.83-1.94-1.8-2.31a3.41 3.41 0 0 0-3.04.26ZM94.96 9.2c.75-1.56 2.6-2.18 4.24-1.94v2.02c-1.15-.1-2.44.01-3.3.88-.72.67-.91 1.7-.85 2.65.02 1.83 0 3.66.01 5.5H93c0-3.6-.02-7.2 0-10.81h1.97v1.7Zm99.8-.01c.56-1 1.56-1.74 2.7-1.92.7-.13 1.4.01 2.08.19-.27.61-.46 1.25-.77 1.85-.31.11-.66-.05-.99-.03-1.54-.11-2.88 1.32-2.9 2.82-.04 2.07 0 4.14-.01 6.21h-2.07V7.5h1.97c.01.57.01 1.13-.01 1.7ZM156.83 7.5h2.06c.02 2.11 0 4.22 0 6.33 0 .78.14 1.62.68 2.21.63.71 1.68.86 2.56.69.97-.2 1.64-1.04 1.99-1.92.3-.75.25-1.57.25-2.36V7.49h2.06c.02 3.61 0 7.22 0 10.82h-1.97v-1.4a5.03 5.03 0 0 1-2.66 1.7c-1.28.23-2.74 0-3.72-.92a4.67 4.67 0 0 1-1.25-3.34V7.5Zm24.12 0h2.06c.03 2.05 0 4.1.01 6.16.03.83.1 1.73.68 2.37.69.76 1.86.92 2.81.63 1.2-.44 1.95-1.75 1.98-3V7.5h2.1c.03 3.6 0 7.2.01 10.81h-2.02v-1.4a4.63 4.63 0 0 1-2.84 1.73c-1.3.19-2.78-.1-3.68-1.13a5.18 5.18 0 0 1-1.1-3.5V7.5Z"/>
    </svg>

    <svg id="icon-cc" fill="currentColor" viewBox="0 0 24 24">
      <path d="M11 11H9.5v-.5h-2v3h2V13H11v2H6V9h5v2Zm7 0h-1.5v-.5h-2v3h2V13H18v2h-5V9h5v2Z" />
    </svg>

    <svg id="icon-headphones" fill="currentColor" viewBox="0 0 24 24">
      <path
        d="M12 3c-5 0-9 4-9 9v7c0 1.1.9 2 2 2h4v-8H5v-1a7 7 0 1 1 14 0v1h-4v8h4a2 2 0 0 0 2-2v-7c0-5-4-9-9-9zM7 15v4H5v-4h2zm12 4h-2v-4h2v4z" />
    </svg>

    <svg id="icon-streetview" fill="currentColor" viewBox="0 0 24 24">
      <path
        d="M12.56 14.33c-.34.27-.56.7-.56 1.17V21h7c1.1 0 2-.9 2-2v-5.98c-.94-.33-1.95-.52-3-.52-2.03 0-3.93.7-5.44 1.83zM18 11a5 5 0 1 0 0-10 5 5 0 0 0 0 10z" />
      <path
        d="M11.5 6c0-1.08.27-2.1.74-3H5c-1.1 0-2 .9-2 2v14c0 .55.23 1.05.59 1.41l9.82-9.82A6.435 6.435 0 0 1 11.5 6z" />
    </svg>

    <svg id="icon-external" fill="currentColor" viewBox="0 0 11 11">
      <path d="M4 .333v1.333h4.393L.667 9.393l.94.94 7.726-7.727V7h1.333V.333H4Z" />
    </svg>

    <svg id="icon-info" fill="currentColor" viewBox="0 0 24 24">
      <path
        d="M11 7h2v2h-2zm0 4h2v6h-2zm1-9a10 10 0 1 0 0 20 10 10 0 0 0 0-20zm0 18a8 8 0 1 1 0-16 8 8 0 0 1 0 16z" />
    </svg>

    <svg id="icon-device" fill="currentColor" viewBox="0 0 24 24">
      <path
        d="M21.249 5v12.712l2.5 2.5V3.75a2.497 2.497 0 0 0-2.5-2.487l-12.5-.013c-1.063 0-1.975.688-2.338 1.625L8.75 5.213 21.249 5zm-12.5-1.25h12.5V5l-12.5.213V3.75zm17.737 22.738L23.75 23.75l-2.5-2.5-12.5-12.5-2.5-2.5-2.74-2.737-1.774 1.761L6.25 9.787V26.25c0 1.375 1.125 2.5 2.5 2.5h12.5c1.062 0 1.975-.688 2.337-1.625l1.138 1.137 1.762-1.774zm-5.237-.238h-12.5V22.5H18.96l2.29 2.5v1.25zm-12.5-3.75V12.287L18.96 22.5H8.75z" />
      <circle cx="15" cy="6.25" r="1.25" />
    </svg>

    <svg id="icon-catch-all" fill="currentColor" viewBox="0 0 24 24">
      <path
        d="M3.136 3.955c0-.725.594-1.319 1.319-1.319H7.09V0H4.455A3.95 3.95 0 0 0 .5 3.955V6.59h2.636V3.955zM3.136 25.046v-2.637H.5v2.637A3.95 3.95 0 0 0 4.455 29H7.09v-2.636H4.455a1.322 1.322 0 0 1-1.319-1.318zM25.545 0h-2.637v2.636h2.637c.725 0 1.318.594 1.318 1.319V6.59h2.636V3.955A3.95 3.95 0 0 0 25.545 0zM26.863 25.046c0 .725-.593 1.318-1.318 1.318h-2.637V29h2.637a3.95 3.95 0 0 0 3.954-3.954v-2.637h-2.636v2.637zM14.292 15.332c.73-1.317 2.131-2.094 2.946-3.26.862-1.221.379-3.504-2.065-3.504-1.601 0-2.388 1.212-2.72 2.216L10 9.752C10.673 7.734 12.501 6 15.163 6c2.227 0 3.752 1.014 4.529 2.283.663 1.09 1.051 3.127.028 4.643-1.137 1.676-2.226 2.188-2.814 3.268-.236.436-.331.72-.331 2.122h-2.738c-.01-.739-.123-1.942.455-2.984zm2.775 6.773A1.9 1.9 0 0 1 15.173 24a1.9 1.9 0 0 1-1.895-1.895 1.9 1.9 0 0 1 1.895-1.894 1.9 1.9 0 0 1 1.894 1.895z" />
    </svg>

    <svg id="icon-360" fill="currentColor" viewBox="0 0 24 24">
      <path
        d="M12 7C6.5 7 2 9.2 2 12c0 2.2 3 4.1 7 4.8V20l4-4-4-4v2.7c-3.1-.5-5-1.9-5-2.7 0-1 3-3 8-3s8 2 8 3c0 .7-1.5 1.9-4 2.5v2c3.5-.7 6-2.5 6-4.5 0-2.8-4.5-5-10-5z" />
    </svg>

    <svg id="logo-unesco" fill="currentColor" viewBox="0 0 45 34">
      <path
        d="M7.41 10.39v13.86c0 .37-.04.56.08.75a.34.34 0 0 0 .3.19.39.39 0 0 0 .35-.21c.13-.2.1-.38.1-.78V10.4h.65v14.13c0 .96-.35 1.44-1.1 1.44a1 1 0 0 1-.8-.34c-.2-.23-.31-.58-.31-1.08V10.39h.73Zm6.9 15.48-1.04-9.51v9.51h-.56V10.4h.75l1.07 8.93V10.4H15v15.48h-.7Zm6.33-8.51v.54h-1.02v7.33h1.17v.64H18.7V10.4h1.94v.66h-1.02v6.3h1.02ZM40.91 8.2v1.29H4.45v-1.3H40.9Zm0 18.82v1.3H4.45v-1.3H40.9Zm2 2.61v1.3H2.11v-1.3h40.8Zm2.05 2.53v1.31H.04v-1.31h44.92ZM22.5.06l18.32 5.21v1.38L22.34 1.62 4.36 6.73V5.36L22.5.06Z" />
      <path
        d="M36.67 6.73H32.9L22.65 3.96l-10.23 2.7-3.9.07 14.17-4.07 13.98 4.07Zm-10.83 8.12h.8v-3s-.03-.88-.24-1.13a1.2 1.2 0 0 0-1-.44c-.52.02-.65.17-.83.4-.21.23-.3.63-.3 1.04 0 .42.02 2.28.09 2.9.06.61.64 3.07.98 4.26a16 16 0 0 1 .48 2.15c.02.36.06 1.55.02 2.13-.02.59 0 1.4 0 1.4s.04.65-.33.65c-.4 0-.36-.65-.36-.65V20.9h-.8v3.65s-.2 1.34 1.05 1.34c1.27 0 1.27-1.2 1.27-1.2v-3.33s-.06-1.11-.27-1.88c-.2-.75-.87-3.15-1.02-3.82-.17-.71-.23-1.76-.23-2.7 0-.93.02-1.52.02-1.52s-.02-.44.34-.44c.33 0 .3.46.3.46l.03 3.4Zm6.07.05h.7v-3.61c0-.57-.32-1.13-1.1-1.13-.7 0-1.12.52-1.12 1.15v13.56c0 .6.42 1.13 1.13 1.13.77 0 1.08-.54 1.08-1.1v-4.08h-.69v4.05c0 .21.02.46-.4.46-.43 0-.39-.37-.39-.52V11.35c0-.15-.04-.52.4-.52.41 0 .4.27.4.48v3.59Zm5.76-4.74c-.7 0-1.2.52-1.2 1.15v13.56c0 .6.5 1.13 1.2 1.13.78 0 1.17-.54 1.17-1.1V11.28c0-.57-.4-1.13-1.17-1.13Zm.48 14.71c0 .21-.06.46-.48.46-.44 0-.48-.37-.48-.52V11.35c0-.15.05-.52.48-.52.42 0 .48.27.48.48v13.56Z" />
    </svg>

    <svg id="decorative-diamond" fill="currentColor" viewBox="0 0 24 24">
      <path d="m12 6 6 6-6 6-6-6z" />
    </svg>

    <svg id="calligraphy-meroe" fill="currentColor" viewBox="0 0 1971 820">
      <path
        d="M1826 344a53 53 0 0 0-45-28 251 251 0 0 0-141 25c-22 10-42 24-57 43l-26 40-31 52-16 34-11 15c-18 13-34 27-47 44-20 22-29 50-44 75l-20 30c-10 13-23 21-36 29-28 15-57 26-90 26h-25c-16-2-31-3-46-6-16-2-31-7-47-10l-13-2-5 1 3 5a6 6 0 0 0 2 2l56 31 32 19a14 14 0 0 1 3 3c2 3 2 6-1 7h-15c-6-1-12-5-18-8l-43-18-6 1a54 54 0 0 0 2 5 6 6 0 0 0 3 2c14 9 27 20 44 26 22 7 43 18 64 28a2 2 0 0 1 1 0c4 7 10 4 15 4h12c7-1 14 1 20-1 26-8 48-22 65-42 15-18 24-39 33-60 7-15 11-31 21-44l8-14c6-10 11-20 23-25a18 18 0 0 0 2-2c12-7 23-15 36-18 4-1 6-1 9 2 6 6 13 9 21 10l24 6c13 2 26 5 40 2 35-6 65-24 92-45 31-22 52-53 74-83l35-50c13-17 27-32 34-53l11-29c3-10 3-19-2-29Zm-221 145c-8 4-17 9-26 12l-27 5-12 1c-4 0-5-1-4-8a76 76 0 0 1 27-39 234 234 0 0 1 23-14c6-4 11-3 15 3s6 13 9 20a54 54 0 0 1 2 6c2 8 1 11-7 14Zm143-29c-2 12-7 23-14 34-2 4-7 8-11 11-19 14-41 22-64 28a204 204 0 0 1-28 5c-6 1-13 0-20-1-4-1-5-3-2-8l35-50c11-16 20-33 30-50 8-12 18-21 34-18a10 10 0 0 0 2 0c25-1 42 19 38 44ZM536 283c-2-14-16-25-30-22a117 117 0 0 0-27 8c-16 7-33 8-50 6-8-1-12-7-9-15a188 188 0 0 1 11-22c6-9 15-14 25-14 7 0 14 2 19 8 6 8 12 8 17-1l26-40 19-30c3-4 3-7 0-11-5-7-12-11-21-12-24-1-43 11-59 27-14 13-24 31-34 47l-13 20a1306 1306 0 0 0-38 82c-5 12-10 24-11 37 0 13 4 21 16 25s23 3 34-1c13-5 26-11 40-15 3-1 8-1 11 1 12 9 21 24 6 38l-5 8a49 49 0 0 1-17 23 563 563 0 0 1-48 32c-25 15-53 21-82 24a275 275 0 0 1-61 0l-37-2a48 48 0 0 1-8-2l-29-9a175 175 0 0 1-70-35 304 304 0 0 1-55-59l-22-32-15-19a185 185 0 0 0-13-15l-4-1-2 5a34 34 0 0 0 4 10l28 46c14 24 30 47 48 68a40 40 0 0 1 7 12l-3 7c-1 1-4-1-6-2l-6-8-31-42a102 102 0 0 0-9-10 4 4 0 0 0-4-1l-1 3a32 32 0 0 0 3 8c4 6 9 11 12 18 14 29 33 55 56 78 17 19 37 35 56 51 14 11 30 18 47 23l23 4a204 204 0 0 0 139-24c6-3 13-6 18-11 20-17 38-35 53-58 17-27 38-52 54-80l8-15 27-44 10-25a81 81 0 0 0 3-42Zm558-85c-5-3-9 0-12 3-21 16-43 30-68 40a336 336 0 0 1-53 15c-3 1-7 3-9 6a441 441 0 0 0-19 40c-4 9-8 15-17 18-31 8-56 28-78 50-19 18-30 43-42 66-14 26-25 54-41 79-13 19-28 35-46 49a250 250 0 0 1-63 34c-20 8-41 13-62 13-21 1-41-3-61-6l-39-4-3 1-1 1 8 5a57 57 0 0 0 8 3l50 13 10 2 42 14c3 1 7 2 6 7-1 6-4 9-9 8l-11-2-44-10a137 137 0 0 0-15-2c-1-1-3 0-4 1a4 4 0 0 0 2 4 35 35 0 0 0 8 4c15 5 30 12 46 16l54 10 29 1 4-2 6-1a49 49 0 0 0 30-14c18-17 34-35 46-57l14-28a352 352 0 0 0 31-70c3-9 5-19 11-27 19-28 41-53 75-64 11-3 22-8 33-10a177 177 0 0 0 106-75l73-102a70 70 0 0 0 9-15c2-6 0-11-4-14Zm196 158c-3-2-8 1-10 4l-4 6-26 25c-18 18-40 30-64 39-20 8-41 14-62 18-8 1-12 5-14 13l-12 51c-2 11-4 21-17 24a6 6 0 0 0-2 1c-13 7-27 13-39 23-11 9-24 16-36 24-23 15-41 34-52 60-9 22-18 44-23 67l-7 42c-4 17-3 34-1 51l3 7h2a31 31 0 0 0 1-4l5-34a61 61 0 0 1 2-10 152 152 0 0 1 21-41l7-5 1 1c-6 14-14 27-16 43l8-4 7-10c9-17 18-34 32-47l15-14 17-15a398 398 0 0 1 62-40l37-19 44-28c21-15 37-35 50-57 11-18 19-37 29-55l18-40 15-37 12-29c1-4 2-8-3-10Zm201-91a187 187 0 0 0 1-21c0-2-2-3-3-5l-4 5v3c1 12-2 24-6 36a25 25 0 0 1-3 4h-1a43 43 0 0 1 0-5l2-39-1-61c0-3 2-5 3-8a74 74 0 0 1 4 7l6 14h2a17 17 0 0 0 0-4l-4-34c-2-11-6-21-7-32a146 146 0 0 0-9-40l-21-52c-2-5-5-6-9-3a96 96 0 0 0-14 14l-40 53-24 29c-3 4-5 8-3 13l16 51a379 379 0 0 1 25 115c0 24-2 49-4 73a287 287 0 0 1-5 39 392 392 0 0 1-12 45 562 562 0 0 1-22 53c-5 12-13 22-19 33l-21 33-14 21a38 38 0 0 0-2 6l1 1 7-6 17-21 50-64 19-23c12-14 24-29 34-45 6-12 14-22 20-33 15-30 26-61 32-94 4-19 6-38 9-58Zm-734-44c-5-15-13-25-28-31-13-4-25-4-37 0-9 4-16 10-23 16-26 22-39 52-48 81l-2 31c0 10 1 19 5 28 9 18 32 24 48 15 10-5 21-11 28-21 3-4 6-4 8 0 5 14 5 28-3 40-6 9-14 18-22 25a207 207 0 0 1-50 35c-30 14-60 25-94 26-17 1-35 1-52-6l-9-4-7 2 3 6a4 4 0 0 0 2 2l27 14c10 4 18 11 26 17l2 5-5 1-11-4-19-6-5 2a61 61 0 0 0 2 6l2 2 24 15 37 19a55 55 0 0 0 18 4c6 1 12-1 18-1a45 45 0 0 0 24-8c22-14 40-33 56-55 11-15 20-31 28-47 13-24 24-48 36-73 3-6 7-13 9-20 6-15 13-30 17-46 7-24 4-47-5-70Zm1213 77a118 118 0 0 0 0-23l-6-48-3-17-7-38c-1-2-3-5-5-5l-7 3-3 3c-7 6-15 12-21 19-20 19-39 40-58 60-3 4-4 8-3 13l11 58a332 332 0 0 1-1 95c-5 30-13 60-26 87-8 18-18 34-26 51-15 27-30 54-49 78l-69 90a45 45 0 0 0-6 10 4 4 0 0 0 1 3h4a15 15 0 0 0 4-3l18-19 42-43 17-17c14-15 26-31 40-45 19-20 36-42 52-64l33-44c11-14 19-31 26-47 2-4 1-7-2-10a79 79 0 0 1-4 7l-4 2-2-4 6-20 14-35 14-47c4-12 6-25 9-37a36 36 0 0 1 1-4h2c0 26-4 51-9 76l2 1c1-1 3-3 3-5l5-15 7-66Zm-47-267a32 32 0 0 0-9 0c-7 1-13 3-20 3l-14-1c-6-3-10-7-15-11-3-3 0-8 0-13a3 3 0 0 0 0-1l-1-8c-3 2-6 3-7 5l-13 21-29 45c-6 11-8 23-10 34l-1 12a18 18 0 0 0 6 14c9 8 19 10 30 5a125 125 0 0 1 14-6c2-1 4 1 6 1l-1 4c-12 12-23 24-37 30l-53 23a74 74 0 0 1-10 4l-21 5-6 5 8 3 51-8 28-8c8-2 16-2 22 6 3 4 8 4 12 1a35 35 0 0 0 4-7l29-45 28-46a143 143 0 0 0 20-52c1-8-3-14-11-15ZM346 625c-4-3-8-5-12-5l-26-3c-20-2-38 3-56 10-17 6-32 17-47 27-21 14-37 34-54 53-11 12-17 27-22 43v8l8-4 1-1 24-27c17-17 38-25 62-26l30 2 11 2c4-1 10-1 13-4 13-9 25-20 37-31 11-9 18-23 31-31a10 10 0 0 0 2-3c3-4 3-8-2-10Zm1589-189-2-3-3 2 3 4 2-3Z" />
      <path
        d="M1826 344a53 53 0 0 0-45-28 251 251 0 0 0-141 25c-22 10-42 24-57 43l-26 40-31 52-16 34-11 15c-18 13-34 27-47 44-20 22-29 50-44 75l-20 30c-10 13-23 21-36 29-28 15-57 26-90 26h-25c-16-2-31-3-46-6-16-2-31-7-47-10l-13-2-5 1 3 5a6 6 0 0 0 2 2l56 31 32 19a14 14 0 0 1 3 3c2 3 2 6-1 7h-15c-6-1-12-5-18-8l-43-18-6 1a54 54 0 0 0 2 5 6 6 0 0 0 3 2c14 9 27 20 44 26 22 7 43 18 64 28a2 2 0 0 1 1 0c4 7 10 4 15 4h12c7-1 14 1 20-1 26-8 48-22 65-42 15-18 24-39 33-60 7-15 11-31 21-44l8-14c6-10 11-20 23-25a18 18 0 0 0 2-2c12-7 23-15 36-18 4-1 6-1 9 2 6 6 13 9 21 10l24 6c13 2 26 5 40 2 35-6 65-24 92-45 31-22 52-53 74-83l35-50c13-17 27-32 34-53l11-29c3-10 3-19-2-29Zm-221 145c-8 4-17 9-26 12l-27 5-12 1c-4 0-5-1-4-8a76 76 0 0 1 27-39 234 234 0 0 1 23-14c6-4 11-3 15 3s6 13 9 20a54 54 0 0 1 2 6c2 8 1 11-7 14Zm143-29c-2 12-7 23-14 34-2 4-7 8-11 11-19 14-41 22-64 28a204 204 0 0 1-28 5c-6 1-13 0-20-1-4-1-5-3-2-8l35-50c11-16 20-33 30-50 8-12 18-21 34-18a10 10 0 0 0 2 0c25-1 42 19 38 44ZM224 582l-23-4c-17-5-33-12-47-23-19-16-39-32-56-51-23-23-42-49-56-78-3-7-8-12-12-18a32 32 0 0 1-3-8l1-3a4 4 0 0 1 4 1 102 102 0 0 1 9 10l31 42 6 8c2 1 5 3 6 2l3-7a40 40 0 0 0-7-12c-18-21-34-44-48-68L4 327a34 34 0 0 1-4-10c0-1 0-4 2-5s3 0 4 1a181 181 0 0 1 13 15l15 19 22 32a305 305 0 0 0 55 59 175 175 0 0 0 70 35l29 9a47 47 0 0 0 8 2l37 2a274 274 0 0 0 61 0c29-3 57-9 82-24a564 564 0 0 0 48-32 49 49 0 0 0 17-23c1-3 3-6 6-8 14-14 5-29-7-38-3-2-8-2-11-1-14 4-27 10-40 15-11 4-23 5-34 1s-16-12-16-25c1-13 6-25 11-37a504 504 0 0 1 38-82l13-20c10-16 20-34 34-47 16-16 35-28 59-27 9 1 16 5 22 12 2 4 2 7 0 11l-20 30-26 40c-5 9-11 9-17 1-5-6-12-8-19-8-10 0-19 5-24 14a186 186 0 0 0-11 22c-4 8 0 14 8 15 17 2 34 1 50-6a116 116 0 0 1 27-8c14-3 28 8 30 22a81 81 0 0 1-3 42l-10 25-27 44-8 15c-16 28-37 53-54 80-15 23-33 41-53 58-5 5-12 8-18 12a204 204 0 0 1-139 23Zm257 20 3-1 39 4c20 3 40 7 61 6 21 0 42-5 62-13a251 251 0 0 0 63-34c18-14 33-30 46-49 16-25 27-53 41-79 12-23 23-48 42-66 22-22 47-42 78-50 9-3 13-9 17-18a441 441 0 0 1 19-40c2-3 6-5 9-6a337 337 0 0 0 53-15c25-10 47-24 68-40 3-3 7-6 12-3 4 3 6 8 4 14a69 69 0 0 1-9 15l-73 102c-15 20-32 40-55 54-16 9-33 17-51 21-11 2-22 7-33 10-34 11-56 36-75 64-6 8-8 18-11 27a352 352 0 0 1-31 70c-6 9-9 19-14 28-12 22-28 40-47 57a49 49 0 0 1-29 14l-6 1-4 2-29-1-54-10c-16-4-31-10-46-16a35 35 0 0 1-8-4 4 4 0 0 1-2-4 4 4 0 0 1 4-1 141 141 0 0 1 15 2l44 10 11 2c5 1 8-2 9-8 1-5-3-6-6-7l-42-14-10-2-50-13a58 58 0 0 1-8-3l-8-5Zm443 209-3-7c-2-17-3-34 1-51l7-42c5-23 14-45 23-67 11-26 29-45 52-60 12-8 25-15 36-24 12-10 26-16 39-23a6 6 0 0 1 2-1c13-3 15-13 17-24l12-51c2-8 6-12 14-13 21-4 42-10 62-18 24-9 46-21 64-39l26-25 4-6c2-4 7-6 10-4 5 2 4 6 3 10l-12 29-15 37-18 39c-9 19-18 38-29 56-13 22-29 42-50 57l-44 28-37 19a580 580 0 0 0-62 39l-17 15-15 15c-14 13-23 30-32 47-2 3-4 7-7 9l-8 4c2-15 10-28 16-42l-1-1-7 5a152 152 0 0 0-21 41 61 61 0 0 0-2 10l-5 34a31 31 0 0 1-1 4Z" />
      <path
        d="M1476 287a25 25 0 0 0 3-4c4-12 7-24 6-36v-3l4-5c1 2 3 3 3 5a185 185 0 0 1-1 21c-3 20-5 39-9 58-7 33-17 64-32 94-6 11-14 21-20 33-10 16-22 31-34 45l-19 23-50 64-17 21-7 6-1-2a37 37 0 0 1 2-5l14-21 21-33c6-11 14-21 19-33a562 562 0 0 0 22-53 392 392 0 0 0 12-45 287 287 0 0 0 5-39c2-24 4-49 4-73 0-14-2-28-4-42-4-25-12-49-21-73l-16-51c-2-5 0-10 3-13l24-29 40-53a96 96 0 0 1 14-14c4-3 7-2 9 3l21 52a145 145 0 0 1 9 40c1 11 5 22 7 32l4 34a17 17 0 0 1 0 4h-2l-6-14a74 74 0 0 0-4-7c-1 3-3 5-3 8l1 61-2 39a43 43 0 0 0 0 5Zm-855 0c9-29 22-59 48-81 7-6 14-12 23-16 12-4 24-4 37 0 15 6 23 16 28 31 9 23 12 46 5 70-4 16-11 31-17 46-2 7-6 14-9 20-12 25-23 49-36 73-8 16-17 32-28 47-16 21-34 41-56 55a45 45 0 0 1-24 8c-6 0-12 2-18 1a54 54 0 0 1-18-4l-37-20-24-14-2-2a65 65 0 0 1-2-6l5-2 19 6 11 4 5-1-2-5c-8-6-16-13-26-17l-27-14a4 4 0 0 1-2-2l-3-6 7-2 9 4c17 7 35 7 52 6 34-1 64-12 94-26a207 207 0 0 0 50-35c8-7 16-16 22-25 8-12 8-26 3-40-2-4-5-4-8 0-7 10-18 16-28 21-16 9-39 3-48-15-4-9-5-18-5-28l2-31Zm1332 96c5-25 9-50 9-76h-2a36 36 0 0 0-1 4c-3 12-5 25-9 37l-14 47-14 35-6 20 2 4 4-2 4-7c3 3 4 6 2 10-7 16-15 33-26 47l-33 44c-16 22-33 44-52 64-14 14-26 30-40 45l-17 17-42 43-18 19a15 15 0 0 1-4 3h-3a4 4 0 0 1-1-3 45 45 0 0 1 5-10l69-90c19-25 34-51 49-78 8-17 18-33 26-51 13-27 21-57 26-87a332 332 0 0 0 1-95l-11-58c-1-5 0-9 3-13l58-60 21-19 3-3c2-2 5-4 7-3l5 5 7 38 3 17 6 48a118 118 0 0 1 0 23l-7 66-5 15c0 2-2 4-3 5Zm-148-278c2-12 4-23 10-34l29-45 13-21c1-2 4-3 7-5l1 8a3 3 0 0 1 0 1c0 5-3 10 0 13 5 4 9 8 15 11l14 1c7 0 13-2 20-3a32 32 0 0 1 9 0c8 1 12 7 11 15a143 143 0 0 1-20 52l-28 45-29 46a35 35 0 0 1-4 6c-4 4-9 4-12 0-6-8-14-8-22-6l-28 8-51 8-8-3 6-5 21-5a74 74 0 0 0 10-4l53-23c14-7 25-19 37-30l1-4c-2-1-4-2-6-1a125 125 0 0 0-14 6c-11 5-21 3-30-5a18 18 0 0 1-6-14l1-12ZM254 702l-30-2c-24 1-45 9-62 26l-24 27-1 1-8 4v-8c5-16 11-31 22-43 17-19 33-39 54-53 15-10 30-21 47-27 18-7 36-12 56-10l26 3c4 0 8 2 12 5 5 2 5 6 2 10a10 10 0 0 1-2 3c-13 8-20 22-31 31-12 11-24 22-37 31-3 3-9 3-13 3-4 1-7 0-11-1Z" />
      <path d="m1933 439-3-4 3-2 2 3-2 3Z" />
    </svg>

    <svg id="calligraphy-kush-kingdom" fill="currentColor" viewBox="0 0 2970 835">
      <path
        d="m0 306 3-13c2-13 8-23 14-34l23-38c8-11 18-21 28-31 3-3 8-5 12-7a92 92 0 0 1 86-8c5 2 7 6 5 12l-15 44c-2 4-4 8-10 6l-3 1 2 3c6 5 5 10-2 13a19 19 0 0 1-5 1l-46 5-11 4-22 11a55 55 0 0 0-24 21l-21 36-1 3c-2 3-4 5-8 4s-4-4-4-7l-1-15Zm2532 60 3-5 7-16c0-2 3-3 4-4l3 5a42 42 0 0 1-2 12c-7 20-13 40-23 59l-18 34a570 570 0 0 1-44 65c-17 22-36 43-55 63l-28 27c-5 5-5 8 1 12 26 15 54 24 83 30 27 6 55 5 81-9 7-4 8-5 5-14-3-6-1-12 1-17l16-34 22-49 28-54 20-25c7-7 13-15 17-24l17-30c11-25 18-51 23-77l6-47a218 218 0 0 0-35-123c-7-11-7-20 0-31 14-19 25-39 38-58 5-9 12-9 18-1 24 33 38 70 43 111a145 145 0 0 1 1 37 564 564 0 0 1-11 62c-7 29-20 56-37 80a42 42 0 0 0-4 7c-2 4 0 6 4 7a12 12 0 0 0 4 0c12-3 24-5 35-12l29-20 5-3h8c2 2 3 5 3 8l-5 12c-15 27-34 50-52 74-12 16-23 32-37 47-16 18-35 31-57 42-15 7-30 17-44 26l-4 7 5 4c12 4 24 2 36-1a152 152 0 0 0 51-23c3-2 5-4 8-4 3-1 6-1 8 1s2 5 1 8c0 2-1 4-3 5a586 586 0 0 0-41 55 143 143 0 0 1-23 26c-13 12-23 25-33 39a281 281 0 0 1-50 54c-3 3-8 4-12 4a97 97 0 0 1-49-17 411 411 0 0 0-39-23c-17-10-36-18-54-27l-20-8-13-7c-5-2-8-2-12 2a53 53 0 0 0-3 5l-35 52a59 59 0 0 1-8 9c-3 3-6 3-10 0a8 8 0 0 1-2-1c-9-12-22-20-32-31a21 21 0 0 1-4-4c-6-10-15-15-25-19-15-6-31-12-48-11-21 0-41-1-62 4l-26 8c-22 8-45 18-68 25-16 4-33 1-48-7a131 131 0 0 1-26-19c-5-5-9-13-12-19a165 165 0 0 1-16-51l-3-12c-2-11-1-23-1-34 1-8-1-9-8-11-14-4-25-1-36 8a134 134 0 0 0-43 58c-5 13-7 26-8 40l-4 25v15c0 2-2 4-3 5-2-1-4-2-4-4a53 53 0 0 1-2-11l-7-56a192 192 0 0 1 38-130 116 116 0 0 1 52-39c23-9 46-6 68 1 9 3 11 9 6 18-8 16-15 32-18 51-2 9-1 18 2 28 6 15 13 29 26 41 8 7 17 12 27 16 24 10 48 5 71-5a208 208 0 0 1 25-8c24-7 48-14 74-15 33-2 66-2 97 11a44 44 0 0 0 8 2c5 1 7-1 5-6a64 64 0 0 0-4-11 165 165 0 0 0-36-46l-31-25c-6-4-11-7-19-5-2 0-5-1-7-3l-67-41-50-36c-9-7-13-18-17-28-8-18-9-37-8-56 1-13 5-25 7-38 5-34 21-64 40-93 13-20 31-34 53-44 17-8 34-14 52-18l45-10a78 78 0 0 1 10-2c21-2 40-8 59-16 30-12 59-27 80-53 4-4 5-10 8-14 1-3 4-4 5-6l2 7c-1 16-2 32-5 47-3 23-13 44-26 63-9 13-21 21-33 30s-26 14-41 17l-57 15c-29 7-57 13-85 21a199 199 0 0 0-52 24c-11 7-21 16-30 25q-8 8-4 18c4 16 12 30 25 41 20 17 41 31 63 44 33 20 66 40 96 65l19 20c14 14 27 30 36 49 12 23 14 48 5 72-3 8-1 14 5 19l21 18c5 4 8 3 12-2l22-29a30 30 0 0 0 4-5l27-58 23-60a380 380 0 0 0 24-180c-1-8 0-17-2-25-4-29-12-56-27-81l-6-12c-4-7-3-13 3-19l29-34 30-35c7-9 11-13 20-1a279 279 0 0 1 44 125 499 499 0 0 1 2 77l-2 13c-1 3-4 5-8 4-3-2-5 0-5 3l-6 19-9 53-1 5ZM738 770c6-4 11-4 16-4l43 4a66 66 0 0 0 17-1c23-4 46-9 68-18a184 184 0 0 0 68-47l23-26c7-8 8-17 6-28a156 156 0 0 0-5-16c-2-5-6-5-9-1l-2 1a43 43 0 0 1-69-4 74 74 0 0 1-12-40c0-12 0-25 2-38a165 165 0 0 1 7-32c2-6 7-11 10-17l10-13c13-19 47-20 62-9 11 9 20 20 26 32a286 286 0 0 1 12 29 207 207 0 0 1 7 27c2 8 2 11 11 12 13 1 27 4 40 2a487 487 0 0 0 68-13c24-7 47-16 71-25 30-10 61-17 93-17 23 0 46 4 68 12l7 1-4-7c-10-8-20-17-31-24-19-12-39-24-59-34-23-12-46-21-69-32l-36-17c-21-12-35-30-45-52a29 29 0 0 1-2-13l4-43c1-5 4-9 6-13s4-8 4-12l1-36c-1-30 10-57 27-81s38-42 63-56c30-18 62-31 94-45 23-10 47-20 68-35 12-9 22-19 30-31a47 47 0 0 1 7-8c3-3 5-2 6 2a20 20 0 0 1 0 7l-5 20-7 19c-8 31-21 59-43 82-9 10-20 17-32 23-28 14-55 29-84 42a240 240 0 0 0-105 85c-13 20-9 22 5 34 10 9 23 15 35 20l57 26c32 15 66 29 96 49 26 17 52 34 70 61 9 15 13 30 14 47l-2 9-10 37c-2 5-1 9 3 13l25 21c3 2 7 2 10 0a57 57 0 0 0 11-12l13-23 28-44a180 180 0 0 0 22-54c4-17 8-34 10-52a268 268 0 0 0 3-38c1-50-11-98-33-143l-23-46a159 159 0 0 0-39-48c-3-4-4-8-1-12l48-83c7-11 11-11 19-1l29 37 20 29c9 17 17 33 24 50a323 323 0 0 1 14 41c3 11 4 22 5 32 1 3-1 5-4 5-4-1-5 2-5 5l3 20 2 22a33 33 0 0 0 1 5c1 2 2 4 5 2 5-3 9-2 9 4l-2 33-2 12a447 447 0 0 1-67 156l-54 79c-12 16-25 30-36 46l-27 41-15 21c-5 6-10 6-16 1l-24-20-17-14c-12-7-24-16-37-21-27-11-55-12-83-6l-36 8c-24 5-47 12-69 24-17 8-35 15-55 17a24 24 0 0 1-17-5l-15-11a9 9 0 0 1-2-2l-26-38c-1-3-5-5-7-7l-5 8-17 49-18 54c-9 28-21 54-38 77a101 101 0 0 1-42 35c-10 4-21 4-32 2l-51-15-22-10-28-12a55 55 0 0 1-7-3c-3-2-6-4-4-8 2-3 7-4 11-3l19 7a19 19 0 0 0 8 1 4 4 0 0 0 3-3 4 4 0 0 0-2-3c-2-1-5-3-8-3l-19-1a18 18 0 0 1-5 0l-21-9-5-2ZM403 531a51 51 0 0 0-4 5c-10 13-19 27-30 39l-27 29-6 5c-8 11-19 18-31 24a64 64 0 0 1-21 6c-25 2-49-4-71-18-28-17-48-40-55-72a172 172 0 0 1-2-87c2-8 1-11-7-14-21-9-41-8-60 4a142 142 0 0 0-21 16 239 239 0 0 0-42 77c-7 16-5 33-6 50l1 12c0 3 0 6-4 7s-4-3-5-6l-4-22a344 344 0 0 1 3-74c4-36 14-69 35-98a374 374 0 0 1 26-35c5-6 12-11 19-15 6-4 14-7 21-10 22-9 45-7 68-1 11 3 14 8 11 20l-5 40a89 89 0 0 0 1 26c10 55 47 93 100 101 29 5 57-2 79-22 14-13 28-27 39-44l23-29 26-35a101 101 0 0 1 8-10c3-2 6-4 9-1s2 5 1 8l-23 43c-5 9-7 17-5 27l5 31a78 78 0 0 0 13 33c11 16 23 32 38 44l17 15c3 2 7 4 9 3s4-5 4-8c3-20 2-39-3-59-4-14-8-29-15-42a13 13 0 0 1 1-13l44-68a25 25 0 0 1 3-4c4-4 9-4 12 1a47 47 0 0 1 7 12c8 24 15 49 15 74a91 91 0 0 1 0 12c-1 7 1 13 6 19a139 139 0 0 1 13 16c11 16 19 33 18 52a22 22 0 0 0 0 4l2 1c1-3 4-6 4-10 4-18 7-37 6-56-2-23-7-46-13-69-2-6 0-11 3-16l32-49 8-12c6-8 14-7 17 1 4 9 6 19 8 28 7 28 8 57 1 85-1 4 1 8 4 11 17 21 30 44 34 71 2 10 1 20 2 31v10l2 6 5-4 10-22a190 190 0 0 0 9-99c-3-13-8-26-13-37s-5-20 1-30l31-54a54 54 0 0 1 7-11c4-4 9-3 12 1 6 9 11 17 12 27a14 14 0 0 0 1 3c12 27 11 56 7 84-2 12-6 24-10 36l-9 27c-6 18-16 34-25 50a2545 2545 0 0 1-43 73c-3 4-7 4-9 0a33 33 0 0 1-3-9c-5-20-16-37-31-51-7-7-16-12-24-17-3-2-5 0-7 3l-20 32-24 41a21 21 0 0 1-1 2c-4 5-8 5-10-1-8-25-26-43-44-61-5-5-8-5-13 1l-49 65-10 16c-4 7-8 8-15 4-34-21-59-50-72-88-4-12-4-27-4-40 0-11 3-22 5-33v-7Z" />
      <path
        d="m2956 245-5 73h2c3-3 4-7 5-11l2-8c2-3 7-3 8 1a18 18 0 0 1 1 9 433 433 0 0 1-34 110c-11 25-26 48-42 70l-33 47-15 16-34 42-44 53-19 20a24 24 0 0 1-4 3l-2-1a61 61 0 0 1 4-7l29-48c11-18 22-36 32-56l34-77c10-22 17-46 21-70l7-65 1-47a19 19 0 0 0-1-3c-4-32-8-65-19-96-3-9-8-16-12-24l-13-25c-2-6-2-11 2-15l50-61 14-18c6-7 10-7 16 0 8 11 16 21 23 33a312 312 0 0 1 40 155l-3 9-6-6a33 33 0 0 1-3-3Zm-1184-22-2 6a103 103 0 0 0 2 14l7 33a47 47 0 0 0 2 9l5 2c6-3 9-2 10 6l2 40-3 37c-1 22-7 44-14 65l-10 24-4 16a25 25 0 0 1-3 7l-16 22c-7 11-13 21-21 31-6 6-10 14-15 21l-3 4-46 70c-1 2-4 3-6 4v-8l11-21c10-18 20-36 26-56l11-32a290 290 0 0 0 16-141 476 476 0 0 0-24-109c-10-28-19-57-34-84-7-13-16-24-24-36l-4-6c-6-8-6-12 0-21l13-19 9-15 27-43c5-7 8-7 14-1 18 21 32 44 45 68 15 27 25 56 36 84 5 14 9 28 9 42 0 3 1 8-3 8-1 1-4-3-5-6l-4-10a35 35 0 0 0-3-5ZM533 294a22 22 0 0 1 0-4l6-22 13-34c9-27 22-51 36-75 12-22 31-35 57-38 16-1 30 3 40 17 8 10 10 22 8 34-1 10-5 19-7 29-4 20-13 37-23 54-3 6-5 12-9 17a22 22 0 0 1-4 6c-3 3-6 2-7-3l-1-5-4-32a20 20 0 0 0-2-5c-12-30-37-27-54-10-13 13-23 29-31 45l-13 24-4 3ZM317 673c8 2 18 2 26 5 8 2 10 7 6 14l-28 48-11 20c-5 8-9 10-18 7-16-4-31-3-45 2-22 8-41 19-55 37l-15 17a5 5 0 0 1-1 2l-5 2-2-5c2-10 3-22 6-32 7-22 19-43 34-62l14-18c25-23 53-36 87-36h6l1-1Zm-28-317 2-14c6-26 12-51 21-76l2-4 5-2c2 0 3 3 3 4v8c0 10 4 18 12 24 5 4 11 5 17 3a40 40 0 0 0 18-15l11-17c1-2 4-4 6-4 1-1 3 3 4 5 2 3 5 5 8 2a70 70 0 0 0 10-13l10-17a16 16 0 0 1 3-5c3-2 6-1 6 3a16 16 0 0 1-1 5 102 102 0 0 1-3 11l-25 59-16 35a47 47 0 0 1-7 12c-5 5-10 5-16 2-5-3-7-3-11 2l-12 16a39 39 0 0 1-9 7c-15 9-29 4-34-13l-4-18Zm-53-154 7-2c16-1 32-6 46-12l39-14a300 300 0 0 0 105-64l20-19a21 21 0 0 1 4-4c4-2 6 0 7 3a11 11 0 0 1-1 5l-21 57c-6 13-13 26-24 35l-28 19-2 1c-8 5-16 10-27 6-5-2-10 0-16 0l-76-5-27-2a32 32 0 0 1-6-2Zm1742 30c18 0 20 2 15 16l-23 64c-3 9-9 13-19 13-20 0-36 10-49 25l-20 27-6 3-3-6a179 179 0 0 1 35-95c7-10 14-21 25-29 14-11 30-18 45-18Z" />
    </svg>

    <svg id="calligraphy-nubian-pyramids" fill="currentColor" viewBox="0 0 2016 844">
      <path d="M1624 202a17 17 0 0 0-6-6c-10-5-21-5-31-3-28 5-54 13-78 30-23 15-45 32-59 56-8 14-15 27-19 42l-4 18-5 45-6 37c-3 15-4 32-18 43a8 8 0 0 0-1 1c-16 21-26 44-35 67l-23 67a193 193 0 0 1-48 73c-16 15-34 27-54 36a267 267 0 0 1-80 24l-19 3c12 1 22 5 34 2 11-2 22 0 33 0a67 67 0 0 1 18 4c2 1 4 4 4 7l-5 4a13 13 0 0 1-6 2l-26-1v3a88 88 0 0 0 9 2l41 2 21-2c9-1 19-1 27-4 8-2 16-5 21-11 5-5 8-11 12-17a152 152 0 0 0 26-57c2-11 6-21 9-32 6-19 11-40 18-59 3-9 9-16 14-24 7-10 15-21 27-27a26 26 0 0 0 6-5c4-4 8-7 15-5a13 13 0 0 0 3 0c12 1 22 0 33-5 9-4 19-7 28-13a215 215 0 0 0 54-51 252 252 0 0 0 29-50l12-29 17-42 12-44c3-13 7-26 9-40 3-15-1-28-9-41Zm-128 180c-15 15-30 30-49 41h-6c-2-1-1-4 1-5a5 5 0 0 0 1-3l4-19c4-9 9-18 16-23 6-6 16-8 23-11 7 1 9 6 12 11 3 3 0 6-2 9Zm99-50a208 208 0 0 1-31 47 162 162 0 0 1-43 35l-7 3 6-18c5-17 9-34 15-50 4-11 7-22 8-33 1-10 2-20-6-28-2-2-1-5 2-6 12-2 23-6 35-7 8 0 15 4 18 13l7 19c2 8-1 17-4 25Zm250-102a25 25 0 0 0-1-5h-2l-1 10-1 10-2 9-2-1c0-36-3-72-13-107l2-1 12 33c1-1 2-2 1-3-2-11-3-21-6-31a392 392 0 0 0-47-106c-3-6-7-6-10 0l-18 35-5 9-13 31c-4 7-4 14 0 21l6 10 25 59c14 40 19 81 18 124l-1 10-2 1-10-19-22-37-27-39-34-43c-5-6-10-5-12 2a578 578 0 0 0-21 69l1 8 27 32c21 26 41 54 58 84 7 13 12 28 18 42 1 4 3 8 2 12a226 226 0 0 1-9 31l-19 43a309 309 0 0 1-38 70 158 158 0 0 0-20 36 30 30 0 0 1-6 10c-16 16-30 34-39 55l-20 60v6l3-2a24 24 0 0 0 1-2c13-23 30-42 53-53 14-7 29-11 45-15 13-3 27-3 41 0 9 1 13 0 17-8l18-39c6-12 10-24 14-36 6-16 11-32 15-49 3-19 3-39 3-59-1-34-8-67-15-100a16 16 0 0 1 0-8l11-34 11-33 6-24c4-23 9-45 8-68Zm-56 367c0 11-1 12-11 11-25-2-49 1-72 11l-8 2 74-140c3 6 6 11 7 16l10 49c2 8 1 17 1 25l-1 26ZM543 746l23-3 11-1 4-3-4-4a80 80 0 0 0-14-1l-30 2h-18c-6-1-12 3-18-4l13-2c33-2 63-12 92-27 15-9 27-20 40-31 14-13 27-27 36-43a476 476 0 0 0 40-79c6-18 16-35 24-52 5-9 11-17 14-26 4-8 6-17 9-26l14-47 9-18 16-62c5-23 4-48 2-71a273 273 0 0 0-46-139 107 107 0 0 0-10-12c-4-4-4-9-2-14l33-74a33 33 0 0 1 2-4c4-6 9-7 13-1a120 120 0 0 1 10 16c7 15 15 29 21 45l19 54 1 9-3 1-13-30h-2c9 29 14 59 16 90h2l3-36h1l1 7c5 34 3 68-6 101-2 10-7 19-11 29l-17 49-15 35a96 96 0 0 0-5 11l3 2a10 10 0 0 0 5-2c19-11 38-21 53-37l20-21 6-3 4 7a140 140 0 0 1-7 21l-13 30c-11 27-20 55-35 80a149 149 0 0 1-38 41c-18 14-36 27-49 47a213 213 0 0 0-20 39l-25 73-18 45c-5 12-15 20-23 29a48 48 0 0 1-7 7l-7 3h-3c-8 6-18 6-28 8-15 4-29 0-44-1-8 0-15-2-23-3l-6-2v-2ZM126 599l13 14 1-1-2-7c-9-20-12-40-13-62 0-24 2-47 4-70 0-6 1-12-5-16l-5-1c-21 6-39 16-54 31-24 23-39 51-52 80l-6 13c0 2-2 2-3 3l-3-3-1-19 2-31a150 150 0 0 1 7-28c5-14 10-29 17-42 12-24 27-47 49-63 9-7 19-13 29-17 12-5 26-9 39-8 10 0 16 7 15 16a142 142 0 0 1-5 23c-5 20-12 39-15 59-5 26 0 52 18 73 10 12 21 22 36 30a99 99 0 0 0 51 10c17-1 34-6 50-13a238 238 0 0 0 65-45c14-14 29-28 42-44a452 452 0 0 0 39-60c12-23 21-47 32-71a45 45 0 0 1 3-5h2v6c-2 13-3 26-7 39-5 20-13 40-19 60-3 9-5 19-9 28l-31 57a365 365 0 0 1-123 117c-18 8-37 15-58 15a132 132 0 0 1-31-3c-17-4-31-13-43-25-10-9-18-20-27-31l-4-7Zm1767 61 5-11 26-71c5-15 8-30 12-46l7-31a411 411 0 0 0 8-117l-3-51c-2-26-10-50-19-74-11-27-25-52-38-77l-13-22a12 12 0 0 1 0-14l14-22 18-32 14-23c3-4 6-4 9 1l32 60c8 16 17 31 24 47l14 44a13 13 0 0 1 0 3l-2 1-15-30-3 1c14 38 24 76 24 117l3-1 2-38 2-1 2 5v53a396 396 0 0 1-4 42l-6 27-9 33-11 39-31 78-23 46-17 30-17 30a51 51 0 0 1-4 5Z"/>
      <path d="m887 622 3-8 24-51 15-30 11-34c7-24 13-48 15-74l4-30a266 266 0 0 0-1-31l-4-46c-4-30-11-59-23-86-9-22-20-43-31-64-3-6-8-11-12-16-3-4-1-9 0-13l21-41 21-39c2-2 4-5 7-5l6 5 38 76c7 15 11 31 17 45 5 11 8 23 10 35 3 13 5 27 3 40l-2 2c-6-10-6-22-11-33h-1l-2 6c2 15 4 30 4 45l2 58v6h2l1-14 2-26 4-5 2 5v37c0 22-6 42-13 62-4 11-10 21-13 32-5 20-15 37-23 55-6 12-13 22-18 34l-29 59-25 41a29 29 0 0 1-3 4Zm125 101 7-36a60 60 0 0 0-15 37l-1 41-4-5c-4-12-7-25-6-38v-43c1-15 4-31 7-46 4-24 19-43 36-59l36-35a60 60 0 0 1 13-9c6-4 8-9 8-15a2531 2531 0 0 0 1-41c0-9 4-15 14-19a214 214 0 0 0 66-39l22-26c6-7 10-16 16-24 1-2 5-3 7-4l3 7-5 24-16 69c-7 29-15 58-34 82a256 256 0 0 1-30 30c-11 11-25 20-37 30s-23 22-34 33a223 223 0 0 0-23 28 139 139 0 0 0-20 42c-1 6-3 12-11 16Zm-609-37 5-1h32a34 34 0 0 0 19-5v-2l-7-2c-17-2-35-2-52 0-13 2-25-1-38 0l-7-2v-1h14l12 1 17-4 40-8a228 228 0 0 0 156-121c7-13 11-26 9-41a10 10 0 0 0-3-6c-3 6-7 11-9 17-5 10-14 15-24 18-7 2-19-3-24-9-8-11-13-23-13-36 0-16-1-33 4-48l14-43c5-12 12-23 23-32 9-8 27-8 37-1 9 6 14 14 17 24 9 25 9 50 4 75-4 25-8 50-15 74-10 37-21 75-42 109l-5 12a7 7 0 0 1-1 1c-10 12-17 25-31 33-7 4-13 8-22 6-2-1-4 1-7 1-20 2-40 3-59 0l-41-6a11 11 0 0 1-3-1Z"/>
      <path d="m1331 238-6-20-8-26c0-2-2-3-3-4l-1 5 8 36 5 43 1 48a17 17 0 0 0 1 3h2l4-33c5 1 6 3 6 7l-4 42c-2 17-4 33-11 49l-6 23-3 10c-6 18-11 37-18 54l-20 44a76 76 0 0 0-3 7c-6 18-17 33-26 50l-13 24-12 20-4 2c-1-2-2-4-1-5l16-39 20-38a789 789 0 0 0 30-113 292 292 0 0 0 4-45l-3-46-3-27-16-67c-7-30-19-57-31-85l-10-16c-1-2-2-6-1-8l9-16 21-40 12-22c1-2 4-5 5-4 2 0 5 2 6 4l17 43 17 51 13 38c5 17 9 33 7 51ZM129 227l12 1c6 1 8 4 6 9l-25 65c-3 6-8 6-13 8l-35 13c-16 7-26 22-37 35a189 189 0 0 0-30 51 31 31 0 0 1-2 5 27 27 0 0 1-2 3l-2-4c1-20 0-41 2-61 1-9 7-18 11-27 8-20 20-38 34-55 18-21 42-35 69-42a14 14 0 0 1 4-1l8 1ZM1614 24c9 5 6-4 9-7l2 10 4 13c3 8 10 9 18 4a188 188 0 0 1 20-11l6 2v1c10 1 9 9 10 15 3 16 0 32-3 48a203 203 0 0 0-2 27c0 9-1 17-5 25l-12 24-6 3c0-2-2-4-1-6 0-3-2-4-5-4l-12 4-6-1c0-2 0-5 2-6 12-10 15-25 21-39l-1-3-14 8c-8 5-17 4-25-1-12-7-18-23-15-37l13-54 2-15ZM364 267a28 28 0 0 1 0 6c-1 3-2 6 2 7 2 0 7-1 8-3a156 156 0 0 0 11-22l9-26c1-2 4-2 6-3 1 2 3 4 2 5l-13 51c-6 22-13 43-21 64-2 7-7 13-12 19-3 3-8 3-12 0s-6-2-9 2c-6 10-13 20-24 26-10 7-21 2-24-9-6-24-2-46 3-69a135 135 0 0 1 3-14l5-6c1 2 4 3 4 5 3 7 9 10 17 11a11 11 0 0 0 6-1c13-10 23-23 29-38 3-4 5-6 10-5ZM165 843l5-22c5-17 10-33 17-50 9-23 23-44 44-59 16-12 33-20 54-19l23 1c5 1 7 4 4 8l-15 27c-4 7-7 15-12 22a182 182 0 0 1-13 18 7 7 0 0 1-5 2c-20-5-39-4-55 10a259 259 0 0 0-29 30c-5 6-7 14-10 21l-6 12Zm102-606 22-16c22-14 44-27 65-42a357 357 0 0 0 45-40c10-10 17-23 26-35l5-7c1-2 4-2 6-4l1 2-4 24-10 35a104 104 0 0 1-9 19l-28 48a41 41 0 0 1-24 17c-8 2-15 6-23 9l-23 7h-9c2-5 5-6 8-7a11 11 0 0 0 6-3c4-4 7-6 12-5 4-8 13-8 19-14-4-6-10-6-16-6-17-1-33 4-48 12l-20 8-1-2Z"/>
    </svg>

    <svg id="calligraphy-kings-and-queens" fill="currentColor" viewBox="0 0 3003 731">
      <path
        d="m1413 433-20 30-35 52c-7 10-16 18-27 24-18 9-34 20-47 34-13 13-27 25-43 34-14 7-29 10-43 12-8 1-16-1-22-8l-7-6h5c3-1 4-3 2-6l-15-22-26-26-15-16c-3-3-5-3-7 0l-32 42-22 27-12 15c-4 4-8 5-12 2l-34-18-9-8-15-7c-15-8-31-16-48-20-14-3-29-7-43-8a331 331 0 0 0-54 1l-73 11c-14 2-28 7-41 9l-45 6-37 3h-8a104 104 0 0 1-36-8l-21-9c-4-2-5-4-3-8l5-12c13-27 17-57 22-87 5-33 7-66 6-99l-4-61a368 368 0 0 0-46-169l-22-31c-2-3-3-6-1-10l34-59 4-6c2-3 5-3 7 0l12 18a555 555 0 0 1 52 136c3 16 4 33 5 49a1187 1187 0 0 1 3 142c0 9-2 17-4 26l-19 77c-1 5-4 9-6 14-3 6-2 9 4 12l25 9a96 96 0 0 0 19 3c8 1 17 2 26 1l36-6 19-3 29-5 24-5 32-6 25-2 19-2h22l50 7 34 8 23 7h5l1-5c-3-8-6-17-11-24-9-15-23-25-37-34-24-16-50-26-78-32l-60-12-35-5-21-1c-23-2-45-6-66-18a64 64 0 0 1-13-11c-6-6-7-13-5-22l16-59c7-22 13-44 21-65 3-9 9-16 15-23a234 234 0 0 1 48-39 22 22 0 0 1 2-2l60-28c34-16 69-30 103-45 24-11 45-25 63-45 8-8 13-18 20-27v-1l6-4c1 2 2 5 1 7l-12 24-29 55c-7 14-18 26-28 37l-22 16c-24 17-50 30-77 41-33 15-68 28-99 46-12 7-23 16-33 24a149 149 0 0 0-18 16c-4 4-8 9-11 15l2 5a164 164 0 0 0 20 11l25 8 15 4 35 6 53 10 46 9c14 3 28 7 41 12l43 17a17 17 0 0 1 4 2l23 17c25 18 38 42 39 73 0 21-7 39-17 56-4 6-3 8 3 10 11 3 21 10 30 16l11 7c3 2 6 1 8-2 13-22 27-45 35-70 9-25 12-50 13-76v-36l-3-36-6-45a359 359 0 0 0-10-44c-8-26-16-52-26-76-7-18-17-35-26-52-2-3-2-7 0-10l27-41 22-31a30 30 0 0 1 3-3c3-4 5-4 8 0a153 153 0 0 1 10 17l20 43 20 56c3 9 4 19 6 28a8 8 0 0 1 0 2l-1 1-7-18-2 1v9l12 50 3 23a37 37 0 0 0 1 4h1l3-12 4 6 2 20v64c0 11-2 21-4 31-1 11-4 21-4 32-1 14-6 27-10 40-10 30-27 57-48 81l-8 11c-3 3-2 6 3 7l27 9c25 9 50 14 76 12l15-6 6-3c4-2 6-4 5-8a5 5 0 0 1 1-3l11-23a245 245 0 0 0 17-46l14-50a259 259 0 0 0 5-61l-1-55c-1-13-5-27-7-40-2-9-3-19-6-28-6-22-12-44-20-65s-20-41-30-61a25 25 0 0 0-1-3c-6-8-6-9 0-17l50-73c5-7 9-6 13 1 7 13 15 26 21 40 5 10 8 22 12 33l10 27 12 49c1 3 0 6-1 9-4-6-2-14-10-19v7l7 34 7 40 1 6c4-5 3-9 3-13l-1-31 2-3 2 5 4 31c3 15 2 31 2 46l-2 31-4 27c-4 24-10 48-23 70-7 10-12 22-18 33l-16 23a38 38 0 0 0-3 4c-1 3-1 5 3 4l27-4c17-4 34-8 49-17 6-5 12-9 19-12l7-1v7Zm1430-26-4 12-34 62c-14 25-29 50-45 74a103 103 0 0 1-48 39 60 60 0 0 0-6 3c-5 3-10 2-13-3-5-10-12-16-21-21-22-12-45-22-70-26l-22-6c-6-2-8-1-11 5l-25 43a117 117 0 0 1-8 13c-4 4-8 5-12 2l-6-3-33-29c-5-4-7-4-10 2l-30 66c-10 21-21 41-39 57-15 13-31 24-50 32-6 2-14 2-20 1a170 170 0 0 1-31-9c-14-5-29-7-41-16a9 9 0 0 1-3-3l13 1c4 1 8 1 8-4s-2-7-6-8l-30-7-12-3a20 20 0 0 1-4-2v-2l10-1c25-1 49-2 73-6 39-6 75-19 107-41a110 110 0 0 0 38-46 42 42 0 0 0 3-14l1-32-2-7-7 3-13 8c-12 5-22-1-30-10a77 77 0 0 1-22-58c1-22 5-43 16-62 8-12 17-21 30-27a25 25 0 0 1 18-2c19 6 31 19 40 35 13 26 13 54 9 82a20 20 0 0 0 2 12c8 14 17 27 29 38a78 78 0 0 0 8 6c4 3 7 2 8-2 14-31 29-61 39-94 7-23 13-46 15-70a485 485 0 0 0 1-86c-1-19-3-39-6-58-4-22-11-42-17-63-1-4-4-8-6-11-3-5-4-5-8 0l-5-6c-8-16-18-32-30-46-6-6-4-13 0-20l34-64a59 59 0 0 1 6-9c2-3 6-3 8-1 3 3 6 5 7 8l29 57c8 18 15 35 19 54 7 31 13 62 15 94a443 443 0 0 1-4 119c-6 34-17 68-33 99l-33 65a35 35 0 0 0-2 4c-2 6-1 9 5 10 37 10 74 11 111 0l12-4c4-1 5-4 3-8-4-9-1-18 3-27l18-45 5-14c18-44 28-90 32-138 5-45-1-90-17-133l-6-16c-1-4-3-6-7-3-4 2-5-2-6-4l-22-36-11-11c-7-7-8-11-3-19l19-28 18-28 1-2c7-12 12-12 21-1 26 33 43 70 53 111 8 30 14 60 12 91-1 33-5 65-14 97l-12 41c-9 25-21 48-35 71l-3 10h10c27-6 50-18 71-36 2-1 5-2 6-1l2 5Z" />
      <path
        d="M2376 226a552 552 0 0 0-46-158c-8-20-16-39-28-56-5-7-8-8-12-1l-41 72a16 16 0 0 0-1 3c-1 4-1 8 2 12a134 134 0 0 1 11 15c19 33 34 68 44 105 7 26 10 54 15 80l3 10 7-5 3 8a9 9 0 0 1 0 2 488 488 0 0 1 1 104c-3 26-8 52-18 77-1 5-4 9-9 11l-39 19c-30 11-62 15-94 19a341 341 0 0 1-67 1c-10 0-20 0-30-2-36-5-71-15-106-26-17-6-35-11-51-21l-52-34-28-21-7-4-2 1 8 7c8 5 15 12 22 20l21 20c5 5 6 10 4 13s-7 3-13-2l-10-7-2 1a183 183 0 0 0 21 32 320 320 0 0 0 37 38c14 12 28 24 45 33a260 260 0 0 0 49 19 348 348 0 0 0 57 11l66 3a147 147 0 0 0 24-2 405 405 0 0 0 65-14c27-8 50-23 65-48 13-22 27-44 42-65a292 292 0 0 0 51-168 488 488 0 0 0-7-102Zm-47 69h-2l-2-12h3c1 4 3 8 1 12ZM555 432c-5 23-14 43-31 60-10 10-18 22-27 34l-19 24c-5 6-9 14-15 20a84 84 0 0 1-19 14c-20 11-43 16-66 21-15 3-31 4-46 5l-48 3-33-2-28-2c-27-1-54-6-80-14-9-2-14-9-21-13l-12-9-8-6-28-20-6-7a102 102 0 0 0-9-5l-4-3-14-16-2-5h6l19 12 22 15h4l-1-4-15-13-51-43-20-18a7 7 0 0 1-3-3 6 6 0 0 1 1-5h4l32 17 30 19 25 11a367 367 0 0 0 62 20l31 8 24 4 10 2 44 6c11 2 23 3 35 3l53 1a167 167 0 0 0 28-2l46-6a104 104 0 0 0 16-4l40-12c7-2 9-8 11-14 5-16 9-32 8-49 1-27-5-52-18-75l-15-28c-2-4-2-7 0-10l37-47 8-10c3-3 6-3 9 0a116 116 0 0 1 10 17l18 40c6 14 7 29 8 44a140 140 0 0 1-2 45Zm984-158c0-19-2-38-4-56-1-6-4-11-7-17l-1 1-2 10h-3l-2-8-4-39v-5h1l6 9 2-1 1-11c-7-27-13-56-26-81l-17-33-24-33c-6-9-9-9-16-2a25 25 0 0 0-3 3l-28 40-20 34c-2 5-2 8 0 13l25 47c18 30 27 64 36 98 3 11 4 23 6 34a327 327 0 0 1 7 103c-1 17-2 35-5 52-3 26-8 51-17 76l-12 31-11 23-12 23v3h2l20-20 22-33 35-53a462 462 0 0 0 23-46c9-21 13-44 18-66l3-19 5-43 2-34Zm-27-130-3-11h3l2 11Zm14 88h-2l-1-9h2c2 2 3 5 1 9Zm1461-22v67a7 7 0 0 0 0 3 28 28 0 0 0 3 4l3-4 4-20 1-8 2-1v6l-14 83c-3 10-8 21-13 31-6 15-12 31-21 45-11 19-24 37-37 56l-28 36-12 13a24 24 0 0 1-4 2h-1a81 81 0 0 1 4-9l13-21c26-44 42-91 47-142l3-54c0-32-5-65-15-96-5-15-12-30-16-45-4-19-14-35-20-52a41 41 0 0 0-5-11c-4-5-4-9-1-14l26-44 11-17a105 105 0 0 0 7-13c3-6 6-7 10-1l15 23 9 17 10 22 23 69a489 489 0 0 1 11 49c2 8 1 16 0 23 0 2-2 4-3 5l-3-4-5-3-4 5ZM1717 534a868 868 0 0 1-43 106c-11 22-23 44-42 61-3 2-4 6-6 9l-3 4-27 10c-13 5-27 4-40 0-20-6-39-14-59-21a59 59 0 0 1-6-3v-2h14l7-2-6-6-17-5-13-6v-2l12-2 21-1 33-2c12-1 23-5 34-9l55-25a86 86 0 0 0 19-13 340 340 0 0 0 26-25c9-9 10-21 8-33-1-8-5-10-11-4-10 9-22 9-34 6-10-1-15-9-21-16-6-9-9-18-10-28-2-21 0-42 9-61 5-12 13-23 24-32s22-13 36-8c23 8 35 26 43 48 6 21 3 42-3 62Z" />
      <path
        d="M2145 251a333 333 0 0 1-14 31l-27 51a300 300 0 0 1-18 29 87 87 0 0 1-27 25c-6 3-9 2-11-4l-1-3c-8-21-9-20-32-24l-26-6-3-2v-1l11-1c15 1 28 0 41-5 12-6 25-10 36-17 9-5 18-13 27-20 3-2 3-6 2-9-3-10-15-15-24-10l-11 7a26 26 0 0 1-8 2c-10 2-19-1-17-15a160 160 0 0 1 31-85l4-3 2 6-2 7c-2 10 4 18 14 17 7 0 13-2 20-4l24-5c6-1 8 2 11 8 4 11 1 21-2 31ZM358 301l-16 25-11 18-11 13c-1 2-5 3-8 3a124 124 0 0 0-86 18c-18 13-32 29-41 49l-5 9-2-1v-7l3-16a11 11 0 0 1 0-3l13-29c8-21 20-41 36-57a115 115 0 0 1 60-32c10-3 21-5 32-6l19 2 12 2c7 2 9 6 5 12Zm1970-18c1 4 3 8 1 12h-2l-2-12Zm-816-139-3-11h3l2 11Zm12 88-1-9h2c2 2 3 5 1 9Z" />
    </svg>

    <svg id="calligraphy-arkamani" fill="currentColor" viewBox="0 0 2654 730">
      <path
        d="m2565 445-9 15-16 33c-4 8-9 14-18 17a35 35 0 0 0-13 8c-9 8-18 16-25 25-11 13-21 26-33 37l-17 15-14 7a5 5 0 0 1-4 0c-15-6-31-13-41-28l-8-10-10-12-16-15c-2-2-3 0-4 1l-11 17-17 26-10 13c-2 3-4 2-6 0l-6-10c-1-2-3-3-3-5a227 227 0 0 0-55-56l-18-10-4 2-16 22-15 24c-7 10-17 16-28 20l-53 16c-12 4-25 4-37 5l-37 2a7 7 0 0 1-3-1c-5-2-11-1-16-2l-6-1-14-3c-9-3-19-5-28-9l-45-19c-18-10-35-22-52-33l-18-12-4-5h7l21 11 7 4 1-2-35-24c-12-8-22-17-32-26v-2a10 10 0 0 1 3 1 46 46 0 0 1 8 3c24 16 50 27 77 37l6 2c22 9 45 12 68 16 12 3 25 5 37 6l16 1a356 356 0 0 0 61-3c36-5 71-12 105-24 8-3 10-10 14-17 4-8 5-17 6-25a11 11 0 0 1 1-3c5-10 4-21 7-31l1-2c4-4 4-9 4-14l1-41c0-16-1-33-4-48v-10a15 15 0 0 0 0-2l-5-20-7-20-5-17-7-22c-4-11-8-22-15-32a132 132 0 0 1-13-20c-1-2-1-7 1-10l20-37 7-7 9-16c3-6 7-6 11 0a162 162 0 0 1 12 21l20 43 11 36 3 15a9 9 0 0 1 0 4c-7-6-7-17-12-24h-2a26 26 0 0 0 1 5l7 30c3 9 4 19 6 28a99 99 0 0 0 3 14 16 16 0 0 0 0-3v-22l2-5 4 4 1 7c2 18 5 36 3 54a330 330 0 0 1-5 39c-3 18-8 35-13 53-1 5-4 10-7 15-3 6-2 7 3 10l33 21 17 14a71 71 0 0 1 20 19l11 15 3 2c1 0 2-1 2-3a19 19 0 0 0 1-3l9-33a93 93 0 0 0 3-21l-1-59-6-36-4-26-5-17-5-16-14-37-15-36-16-25c-6-7-6-12-1-20l19-26 19-30c2-4 3-5 6-1l14 21 20 36c8 16 14 32 17 49a19 19 0 0 1 0 4h-2a33 33 0 0 1-3-5l-5-14c0-2-2-3-3-4-2 7 15 69 20 73l1-18h1a9 9 0 0 1 1 3c2 14 6 28 7 43a322 322 0 0 1 3 43c0 14-3 27-4 41l-3 21-8 36c-1 8-4 15-9 21l-24 43c-2 2-2 4 1 6 8 5 16 7 25 10 8 2 15 1 23 0 8 0 16 0 24-2s15-7 23-10l2-3-3-1-11-5c-7-4-7-10-5-16l10-22 1-2 10-20c5-12 10-24 13-37l4-22 8-31v-26l-1-12a22 22 0 0 1 0-5c1-9 0-19-3-28-3-13-6-27-12-40l-10-27-6-12c-8-14-17-27-29-37-6-4-7-8-4-14l15-27 18-30a22 22 0 0 0 1-4c2-6 6-7 11-3 11 11 20 23 29 35s16 25 21 40l10 24 1 7-2 1a39 39 0 0 1-3-6l-13-28-6-8h-1v4a167 167 0 0 0 6 17 180 180 0 0 1 14 44l4 25a11 11 0 0 0 1 2c4-7 1-15 6-21l1 8 3 23-4 42-1 11-13 45-12 34a47 47 0 0 1-4 7l-4 5c-3 10-9 17-15 25s-6 10 3 16c3 2 7 3 11 2a533 533 0 0 0 74-22c2-1 5-1 7 2 2 2 2 5 0 7ZM1592 84c-4 13-7 26-14 38l-27 45c-6 9-14 16-23 22-15 10-32 15-49 22l-37 16-38 16c-15 7-29 15-41 26l-14 15c-3 2-2 4 0 6l25 17 33 19 40 20 30 15 19 10a161 161 0 0 1 22 20c6 7 12 14 15 23 5 14 3 27-2 40l-19 40c-5 12-12 23-19 33-3 4-5 4-9 1l-7-4c-16-10-32-21-50-27l-7-4v-2l21 4-1-2c-11-5-21-13-33-15a207 207 0 0 0-31-2c-5 0-10 3-14 4-12 3-22 10-31 18a8 8 0 0 0-2 2 13 13 0 0 0 0 3 14 14 0 0 0 2 0l19-1c21-3 43-3 64 5a78 78 0 0 1 12 5c6 3 7 8 4 13l-19 30-14 24-12 15a5 5 0 0 1-3 2 15 15 0 0 1-6-1c-11-5-23-4-35-3-9 2-18 6-26 11-9 5-18 11-29 12-15 2-29 1-43-5l-26-13a45 45 0 0 1-9-7 6 6 0 0 1-2-5l14-37a219 219 0 0 0 19-90 300 300 0 0 0 0-30l-2-32-1-21-6-33-17-68c-5-21-16-40-25-60l-7-9a9 9 0 0 1 0-9l25-57 5-11c2-3 6-3 9 0a115 115 0 0 1 7 11c9 12 14 26 20 40a269 269 0 0 1 18 57l9 51v13l-1 30 1 37-1 13-1 30c0 22-3 43-11 63-4 13-10 26-16 39l-4 9c-2 4 0 6 3 7l33 10 7 3c4 1 6 0 7-4l4-18a134 134 0 0 1 63-85l18-7a160 160 0 0 1 27-3c24-1 47 6 69 17l12 5 1-1a35 35 0 0 0-4-3l-18-15c-2-2-5-2-8-3l-33-17-28-13c-15-6-31-12-45-22l-27-19c-6-5-8-11-7-19l2-22 4-13a326 326 0 0 1 17-50c-1-8 5-10 9-14 20-22 44-38 72-49l96-39c14-6 28-13 40-22 12-8 20-19 27-32l8-12 1 1 1 2ZM591 450a146 146 0 0 0-3-27l-8-28-3-6c-3-6-5-13-9-18-8-10-11-20-9-33l2-30v-35l-1-11v-13l-1-9v-18a281 281 0 0 0-7-29 149 149 0 0 0-7-18c-1-1-3-2-4-1l-2 3a11 11 0 0 0 1 5 185 185 0 0 1 13 39 18 18 0 0 1 0 3l-1 1a19 19 0 0 1-2-4l-7-19-18-38-14-26a27 27 0 0 1-2-4l2-1 19 28 2-1a13 13 0 0 0-1-3 145 145 0 0 0-16-32c-7-11-16-21-24-31-4-6-6-6-10 0a32 32 0 0 0-3 4l-5 10-12 28-11 25c-1 3-1 7 1 10l16 18c10 11 18 22 25 36 11 23 22 47 28 73l-1 4a14 14 0 0 1-3-2l-26-27c-11-11-23-21-38-29a189 189 0 0 0-20-8 6 6 0 0 0-9 3 128 128 0 0 0-5 12l-13 43c-2 6-1 6 4 10 12 7 24 13 35 22a279 279 0 0 1 47 41c11 13 21 25 29 40a11 11 0 0 1 2 7l-6 24a148 148 0 0 1-17 43l-33 47a307 307 0 0 0-16 27 244 244 0 0 0-18 46 128 128 0 0 0-4 13l2 4 5-1c2-1 2-3 2-4 6-13 16-21 28-24 14-4 28-6 42-7 10 0 19 2 29 3h9c3 0 6-1 7-3 11-18 21-36 29-56 4-12 8-23 9-36l1-40Zm-33 69-24-3a284 284 0 0 0-29 1l-12 2a17 17 0 0 1-4 0l1-5 21-32c4-5 6-11 8-16l13-27a5 5 0 0 1 3-3l3 2c8 14 13 28 17 43l6 34c0 3-1 4-3 4ZM312 324l-4 38-1 10-2 7-4 23a154 154 0 0 1-6 18 391 391 0 0 1-24 54l-17 28-5 13a165 165 0 0 1-12 18c-6 8-11 16-18 23-11 10-22 20-36 27l-22 12a133 133 0 0 1-40 11 252 252 0 0 1-35 2c-16 0-31-5-45-13-10-5-16-12-23-21-9-11-12-24-15-38a114 114 0 0 1-3-24 125 125 0 0 1 3-26l15-63 13-34 7-17a18 18 0 0 1 2-3h1a8 8 0 0 1 0 3l-7 15-3 12-5 31-3 26c-1 7 0 14 2 20a107 107 0 0 0 15 26c7 8 15 14 23 21 3 3 8 5 12 7 19 8 38 11 58 10 19 0 37-3 55-9a164 164 0 0 0 53-32l12-11 8-13 8-43a336 336 0 0 0 2-41l-2-42a189 189 0 0 0-5-26l-10-41c-3-10-9-19-13-29l-7-18-10-25c-2-3-2-7-4-9l-15-25c-1-3-2-5-1-8l19-37 13-24c5-7 7-7 12 0 10 14 20 29 27 45l3 8 5 10 8 15 9 32a63 63 0 0 1 1 7l-1 1-5-6c-3 2-2 5-1 7l4 21 1 13a4 4 0 0 0 1 2l4 5v-6l-2-16 2-3 2 3c0 7 5 14 3 23l2 7 1 28a207 207 0 0 1 0 21Z" />
      <path
        d="M1216 413a92 92 0 0 1-6 11l-41 68a253 253 0 0 1-67 71c-16 11-32 19-49 28-19 9-40 13-60 16l-17 4c-14 3-27 1-40-3-26-8-49-20-72-32l-16-9-33-22-7-7 1-1c5-1 9 1 13 4l23 14a71 71 0 0 0 11 4h3a4 4 0 0 0 0-4 39 39 0 0 0-7-6l-23-13-6-3a62 62 0 0 1-6-5 24 24 0 0 0-3-3l-11-6-34-22-2-1a19 19 0 0 1-1-4h3c4 1 8 2 11 5a409 409 0 0 0 75 35 251 251 0 0 0 45 12 331 331 0 0 0 139-5c9-2 20-3 29-7 17-6 34-13 48-24l25-16 9-9 12-10a28 28 0 0 0 5-6c1-2 0-4-2-4-10 1-20 0-30 2-14 1-28 4-41 7l-22 7a14 14 0 0 1-4 1c-3 0-4-1-3-4l14-40c2-4 6-7 10-11a87 87 0 0 1 13-8c4-2 7-5 8-10l3-30c0-15-4-29-10-42a62 62 0 0 0-11-17c-4-5-4-7-2-13 3-5 7-11 9-17l10-21 8-15c3-4 5-4 8-1a155 155 0 0 1 12 17 67 67 0 0 1 8 15c4 15 5 30 4 45-2 21-8 40-16 59l-8 17a26 26 0 0 0-2 4 27 27 0 0 0 5 0l30-4 17-2 34 4a16 16 0 0 1 4 1c3 1 4 3 3 6Zm1438-121-6 56-18 64-3 10-5 20-6 11-6 15-12 21-20 35-3 3-10 16-17 29a39 39 0 0 1-3 4l-1-3 5-16 11-26c3-7 2-14 5-21 3-6 4-14 6-21l16-54 3-15a69 69 0 0 1 3-8 30 30 0 0 0 1-4l3-15 2-32-2-30v-9l-9-46a290 290 0 0 0-43-93l-3-4c-7-10-5-9-1-16l28-40c4-6 8-11 11-18l4-2 7 4 18 27 8 12c7 16 15 32 20 49l4 16a24 24 0 0 1 0 4c-5-1-7-4-8-7l-4-9-2 1a21 21 0 0 0 0 4l13 56 1 17 2 4 2-5 1-20 1-5h1a9 9 0 0 1 2 3c2 12 5 25 4 38Zm-907 109a244 244 0 0 1-10 39c-4 13-9 25-15 38l-28 57-18 30-10 16a4 4 0 0 1-2 2l1-3 3-11c2-6 3-13 7-19s5-12 7-18l4-11a143 143 0 0 0 4-15l10-53c2-12 1-23 2-34a11 11 0 0 0-1-3l-10-43c-3-11-5-22-10-32l-26-55-16-28-23-34c-2-4-4-7-1-11l7-13 26-44 4-8c2-4 4-5 7-2a59 59 0 0 1 8 10l27 40c5 7 8 15 12 23a300 300 0 0 1 21 49c1 3 1 7-1 11l-6-10-1 1a30 30 0 0 0 1 5l7 23c6 15 9 30 12 46a48 48 0 0 0 2 7l2-1-1-9-7-33 1-5c3-1 5 1 5 4l4 12a117 117 0 0 1 5 31l1 8c0 15-2 29-4 43ZM712 356l-6 39a176 176 0 0 1-5 20l-4 9-13 36-3 7-13 30-11 24-6 9-18 30c-1 3-3 5-5 6a2 2 0 0 1-2 1c-4-2-5 0-6 2l-4 5 1-3 3-5 1-3 6-13c7-13 12-27 17-42l7-22 6-31 5-36v-22a383 383 0 0 0-11-77l-15-48c-5-16-13-31-21-46l-11-19a8 8 0 0 1 0-8l18-34a1126 1126 0 0 1 24-37 998 998 0 0 1 28 45c3 6 7 12 7 19a5 5 0 0 0 1 3 163 163 0 0 1 15 43l6 25a21 21 0 0 1 0 3l-7-5v9l4 43v1a36 36 0 0 0 3 3l1-3-1-20 2-4 2 3 2 9c4 18 4 36 3 54ZM422 490l-1 18c-1 7-3 16-6 23-5 11-6 24-12 35-4 6-2 14-5 20l-4 11c-3 9-5 17-9 25-9 21-20 41-36 58-6 6-14 13-22 15a49 49 0 0 1-30 0l-27-8-6-2-13-5a14 14 0 0 1-2-3l3-1 25 3 7-2-5-3-38-7c-10-1-19-5-28-8l-7-2-4-4 5-1a160 160 0 0 0 48 1l33-6a165 165 0 0 0 100-74l8-13c2-7-1-13-1-20h-2l-2 5-10 19c-7 10-16 16-28 15-8 0-14-4-16-11-3-12-8-23-7-36l2-23 3-25a122 122 0 0 1 6-21 90 90 0 0 1 10-19c9-12 25-22 41-19 12 3 19 11 23 22 2 5 5 10 6 16l1 13v14Z" />
      <path
        d="m1650 364-6 34a61 61 0 0 1-4 16l-1 11-3 32-2 18c-2 10-4 20-8 29-6 14-13 28-22 40a145 145 0 0 1-31 33c-13 9-26 12-41 13l-30 1h-24a36 36 0 0 1-4-4l4-3 18-2 4-1v-1a18 18 0 0 0-4-1l-42 2h-20l-3-2 3-2a83 83 0 0 1 10-4l22-5c12-2 22-7 34-11a167 167 0 0 0 38-20c12-8 21-18 31-28l23-23a184 184 0 0 0 16-22c5-6 7-14 11-21 4-6 5-13 8-19 5-10 5-20 8-30l7-30v-2c1-2 2-4 5-3s3 3 3 5Zm452-23-3 12-13 32-12 27-26 39c-2 4-8 6-12 9a3 3 0 0 1-3 1c-6-2-13-4-18-9-2-3-7-4-11-5l-34-3-7 1h-18l-3-2 3-3 28-5a182 182 0 0 0 84-36c3-3 5-5 4-10l-3-3c-4 0-9 0-12 4-6 6-14 8-22 9-7 1-11-2-11-10l-1-7c0-10 3-18 7-26l2-7v-6l15-31c1-2 3-5 6-4s3 5 3 8a10 10 0 0 1-1 4c-3 4-2 8 1 11s7 4 11 2l17-8 19-4 5 2c5 5 8 11 5 18ZM1675 93l-12 26c-1 3-4 5-7 4-8-1-15 2-23 5l-21 10-16 6a18 18 0 0 1-2 1l-1-1 17-13 11-8 14-11a13 13 0 0 0 2-5c3-4 0-7-5-7-12 1-19-5-22-17-1-7 1-13 2-19 5-19 10-38 18-55a33 33 0 0 1 4-7l4-2 1 4-2 14a29 29 0 0 0 1 11c2 5 9 7 15 5s11-5 17-6c10-1 13 2 15 11 4 19-1 37-10 54ZM400 166c-2 4-2 9-3 13l-11 50-9 22c-3 5-8 4-11 1-5-5-10-5-15-3l-17 5h-7l-1-1 10-7 17-13 19-21 2-2c2-2 5-5 3-8-2-4-4-7-9-7l-16 1-9 1c-8 0-14-6-14-14 0-10 2-21 5-31l11-34a21 21 0 0 1 4-6l3-2a19 19 0 0 1 1 4l2 16c0 4 3 6 8 5a95 95 0 0 0 14-5c5-2 11-3 17-2 5 1 10 8 10 14 0 8 0 16-4 24Zm647 192-13 20a24 24 0 0 0-3 8c-1 4-4 6-7 7s-3-2-4-4l-2-12c-6-14-13-27-24-37l-4-4c-4-4-4-6-1-11l22-39c6-9 14-13 25-3a60 60 0 0 1 21 42v5c1 11-6 19-10 28Zm27 286-15 20-13 20a89 89 0 0 1-8 11l-7 4v-2h-15c-10 0-19 4-27 9-11 5-20 13-29 21a7 7 0 0 1-2 2 28 28 0 0 1-3 1c-1-1-2-3-1-4a44 44 0 0 1 3-8c7-13 13-26 21-38 15-23 35-38 62-44 11-2 21-1 32 1 3 1 4 4 2 7Zm-462-63 4-7-3 8-5 9-2 4-2-1a24 24 0 0 1 2-3l6-10Zm4-7Zm809 4h-7v-2h7v2Z" />
    </svg>

    <svg id="calligraphy-arkamani-ii" fill="currentColor" viewBox="0 0 2873 734">
      <path
        d="M2873 300v1a14 14 0 0 0-1 3l-1 21-4 27a187 187 0 0 1-4 21l-10 35-11 31-2 10c-4 13-11 25-17 36-2 6-6 11-9 16l-19 34a5 5 0 0 1-1 1c-8 7-12 15-16 24s-10 16-14 24a18 18 0 0 1-2 3h-2a16 16 0 0 1 1-4l8-23c2-6 4-14 8-20a17 17 0 0 0 2-9 11 11 0 0 1 0-3l15-49 12-38a29 29 0 0 0 1-7c0-4 1-8 4-11l1-5 3-14a78 78 0 0 0 2-13 1291 1291 0 0 0-2-65l-3-10-8-40-12-33c-6-14-15-28-22-43l-12-17a6 6 0 0 1 0-6l23-35c6-10 15-16 18-27 1-3 3-4 6-2l8 6 24 39c9 16 16 32 20 50l3 11v6a10 10 0 0 1-7-6l-3-7-3-3v4l1 8 11 50 1 16 3 4 2-5v-21l2-3a12 12 0 0 1 2 3 105 105 0 0 1 2 12l1 19a29 29 0 0 0 1 4Z" />
      <path
        d="m2782 456-20 37-9 16c-2 6-7 9-13 11-9 3-16 8-23 14-10 10-19 21-27 33a108 108 0 0 1-12 12c-7 8-15 16-23 22-6 5-13 8-20 12a4 4 0 0 1-4 0c-11-6-23-9-32-19l-28-34-15-14c-2-2-3-1-4 1l-13 21-14 21-12 15c-2 2-4 2-5-1-4-6-9-12-11-19-2-5-8-10-12-14a224 224 0 0 0-38-36l-22-13-4 2-26 40c-8 13-20 21-33 26-22 8-43 15-66 18a241 241 0 0 1-25 3l-38 1a21 21 0 0 1-3-1l-15-2-13-3c-19-2-37-10-55-18l-30-15-50-32-12-7a35 35 0 0 1-6-5l-1-4h4l23 12 8 4v-1a8 8 0 0 0-1-2l-29-19a25 25 0 0 1-3-1l-26-22-8-9 1-1 9 4c23 16 48 26 74 36l21 8 34 8c21 4 41 9 62 11 16 2 32 1 48 1l21-2a444 444 0 0 0 116-25c4-2 7-4 8-9l4-7c4-9 5-19 7-28v-1c5-9 4-19 7-28l4-12a7 7 0 0 0 1-3l1-53c1-15-2-30-4-46l-3-25-5-16-10-28-9-29-11-20c-4-6-9-13-12-20-2-3-1-7 1-10l21-36 8-10a28 28 0 0 0 2-4l8-13c2-3 5-1 7 1l11 16c8 18 16 35 22 52 5 12 8 24 11 36l3 15-1 4-2-3-7-19a35 35 0 0 0-3-4h-1c5 27 13 52 15 79h1l1-3v-22a5 5 0 0 1 0-3 22 22 0 0 1 3-3l2 4a257 257 0 0 1 2 81l-6 36-13 43-5 10c-3 5-2 6 2 9l29 17 11 9c8 7 17 13 24 21 7 7 12 15 17 23a24 24 0 0 0 4 3l3-4 7-28c3-9 5-17 6-26v-17l-1-33v-8l-3-29-4-19-2-17a61 61 0 0 0-2-8l-6-21-6-15-9-26-8-19-8-19a109 109 0 0 0-7-14l-10-14c-4-5-4-11 0-17l12-17 18-26 12-20a86 86 0 0 1 6 8l29 51c7 12 12 26 16 40a128 128 0 0 1 2 13v5c-7-7-5-18-12-25-2 8 15 71 20 74v-17h1a15 15 0 0 1 1 3l7 34 2 22 1 35-5 36-1 11-3 18-9 38-5 8-20 34-8 13c-1 2-1 3 1 4a57 57 0 0 0 26 11l5 1a215 215 0 0 0 36-1c11-1 20-5 30-11l2-3-4-1c-8-1-16-7-16-13a37 37 0 0 1 3-14c2-6 6-11 9-16l5-14c4-7 8-13 10-20 4-8 6-17 9-25l2-9 10-43 1-15v-14l-1-11a19 19 0 0 1 0-6c2-11-1-22-5-33a9 9 0 0 1 0-1c-1-12-6-22-9-32s-6-20-10-28a219 219 0 0 0-19-31l-17-19c-5-5-6-10-3-15l25-45 9-12 1-4c1-5 6-7 9-3l22 26a200 200 0 0 1 16 23l14 28 9 25v7c-6-7-8-15-12-22s-6-16-12-22l-1 1c1 4 1 9 3 13a205 205 0 0 1 22 80l1 1 4-22h2l1 9 2 19-2 28-2 22-6 24-10 31a233 233 0 0 1-9 24l-16 32c-2 4-7 8-10 12-5 8-5 10 3 15 4 3 8 4 13 3l28-7 44-14c3-1 5-1 8 1s2 6 0 8ZM1802 84l-6 19c-4 13-11 24-18 36l-19 29c-5 9-13 15-21 21a59 59 0 0 1-10 6c-4 3-9 5-14 6l-91 37a368 368 0 0 0-33 16c-12 7-22 17-31 26-7 7-7 7 0 13 11 10 24 16 36 23l40 22 50 25 17 9c10 7 18 16 26 25a59 59 0 0 1 13 23c3 13 1 25-4 36l-19 41c-5 11-12 22-19 32-4 5-4 5-10 1l-7-4c-16-10-31-20-49-27a21 21 0 0 1-4-2l-5-3 1-1 23 4-2-2c-11-5-21-13-33-15-11-3-22-5-32-3-12 2-24 6-34 13l-12 10-3 5 20-2c17-1 33-2 50 1 10 2 20 5 28 10 7 3 9 8 4 15l-28 45-13 17a20 20 0 0 0-2 2c-3 6-3 6-10 4a71 71 0 0 0-26-4c-12 1-24 4-35 11-10 6-20 12-32 13h-20a61 61 0 0 1-26-8c-11-5-21-12-31-18l-1-6 14-35a250 250 0 0 0 16-50 205 205 0 0 0 3-28l2-45-2-24-1-26a179 179 0 0 0-3-22l-15-66c-5-17-8-36-18-52l-10-20-8-15a11 11 0 0 1 0-8l20-47 10-20c2-4 6-4 8-1 6 8 12 15 16 24 8 17 15 34 21 52 7 19 10 39 13 58a260 260 0 0 1 4 56l-1 20v40l-1 15-2 40c-2 18-6 36-14 53l-17 38c-1 3 0 5 3 6l42 14c3 1 5 0 6-3l4-20c6-18 12-35 24-50 10-12 21-21 33-30 9-6 19-9 29-11 23-4 45-3 67 4a220 220 0 0 1 35 15l3 2 1-1a35 35 0 0 0-4-4l-18-15-8-4-32-16-50-23a287 287 0 0 1-31-18l-22-17c-5-4-6-10-6-16a147 147 0 0 1 4-27c2-11 6-22 10-33l10-27 1-4 1-3 25-23c18-15 39-26 61-35l50-20 37-14c17-7 35-14 50-27 9-8 17-18 23-30l7-10h1a6 6 0 0 1 1 2ZM812 313a410 410 0 0 1-56 160l-20 35-9 13-18 32-8 15c-2 3-4 3-6 1a49 49 0 0 1-7-7l-13-16c-6-10-12-20-15-32l-4-16-2-4-5 2-17 25-34 50-13 20c-4 6-9 6-13 1l-9-9a333 333 0 0 1-90-190 307 307 0 0 1 2-85l7-40c4-21 11-41 21-60l34-60c6-9 14-17 21-25a36 36 0 0 0 3-3l1 1-2 4-12 32-7 20-11 43-6 49-3 34c-2 15 2 29 4 43 3 19 10 38 16 56 7 21 17 39 27 58l14 23 5 8 16 23 13 12c2 2 4 0 5-2a78 78 0 0 0 5-11c4-14 8-28 8-43a84 84 0 0 0-7-30l-3-7a6 6 0 0 1 1-4l34-43 1-2c5-6 9-6 13 1 5 11 7 23 8 34 2 21 8 40 20 57 7 9 16 17 25 26 2 2 3 0 4-2 5-9 11-19 14-29a430 430 0 0 0 27-175l-12-56-12-30-20-33c-3-4-4-8-1-12a538 538 0 0 0 29-53c2-4 4-5 8-1a15 15 0 0 1 2 4l24 47a186 186 0 0 1 13 37 389 389 0 0 1 12 74c1 13 0 27-2 40Z" />
      <path
        d="M1420 412a125 125 0 0 1-7 15l-32 51-22 32c-13 18-30 33-47 47-18 14-38 24-58 34-17 7-35 11-52 14l-28 5h-18c-12 0-22-4-32-8a403 403 0 0 1-78-40c-12-7-23-16-34-24l-3-4c7-1 11 2 16 5l25 15a39 39 0 0 0 8 3h3a3 3 0 0 0 0-4l-6-6-24-14a27 27 0 0 0-3-2 32 32 0 0 1-11-7c-4-4-9-6-14-9l-14-9-17-12-4-4c1-4 4-1 6-1a35 35 0 0 1 9 5 258 258 0 0 0 41 22c11 4 23 8 34 14 14 6 30 9 45 12l35 4a277 277 0 0 0 32 1 388 388 0 0 0 41-3l50-9c15-4 30-11 44-18a347 347 0 0 0 32-20l21-17 10-9a14 14 0 0 0 3-4 13 13 0 0 0 1-4 26 26 0 0 0-4 0l-23 1-29 3-40 11a15 15 0 0 1-4 1c-4 0-5-1-3-5l11-32c3-9 8-15 15-19l7-5c9-3 12-10 13-18l2-23c1-15-3-29-9-43a61 61 0 0 0-12-19c-3-3-3-6-1-10l8-16 18-36 2-3c2-4 4-5 7-1 5 5 9 10 12 16a99 99 0 0 1 9 20c4 13 5 27 3 41a175 175 0 0 1-8 38c-5 14-9 28-18 40l-1 3 4 1a103 103 0 0 1 31-5c8 0 15-2 23-1l32 4c4 1 5 3 3 6Zm-962-18-8 17a342 342 0 0 1-32 54l-22 34c-13 20-26 40-44 55a192 192 0 0 1-120 56l-31 1a49 49 0 0 1-20-2c-15-5-30-9-44-16-17-8-33-18-50-27l-24-13-15-12 1-1 13 5 3 1a23 23 0 0 0 4 0l-1-5a55 55 0 0 0-6-6l-24-19a97 97 0 0 0-10-7c-8-5-14-12-20-18a49 49 0 0 0-5-5l-3-3 1-1 7 3 33 18 28 17c16 8 32 17 51 20 14 1 27 5 40 7a136 136 0 0 0 19 1l55 1 34-5c12-2 25-4 37-8 22-6 42-18 61-30a125 125 0 0 0 28-27l18-23 12-21v-3l-3-1c-21 3-42 6-61 17l-21 8-27 17-2 1a22 22 0 0 1-4 0v-3l5-9 15-31c5-11 13-18 23-24 7-3 10-7 11-15 3-14 5-28 2-42-1-10-5-19-9-29l-6-12a9 9 0 0 1 0-6 118 118 0 0 1 7-13l14-23 11-20c2-3 4-3 6 0a112 112 0 0 1 14 89c-2 11-6 21-10 31l-11 24-1 4a15 15 0 0 0 4 0l36-5a18 18 0 0 1 2-1h35c5 0 6 1 4 5Zm1501-24-2 21-7 36a137 137 0 0 1-7 25 1785 1785 0 0 1-42 88l-19 30-10 17a14 14 0 0 1-2 2v-2l10-31 3-5 6-16a38 38 0 0 1 1-5c6-11 8-23 10-35 2-13 4-26 8-39 2-12 1-23 1-34v-5l-6-27-4-14-9-30c-7-18-16-35-24-53l-16-30-25-39c-2-3-3-6-1-9l8-14 26-44 4-9c1-2 3-3 5-1a37 37 0 0 1 7 7l27 40a193 193 0 0 1 11 20l19 43 6 16a5 5 0 0 1 0 3l-1 5a38 38 0 0 1-4-4l-3-6-1 1v2c9 26 16 52 21 79a7 7 0 0 0 1 2l2-1a78 78 0 0 0-1-9l-7-34 1-5 5 4 4 12a122 122 0 0 1 4 34l1 14ZM919 293c-2 10-1 20-2 31l-8 39a175 175 0 0 1-5 18 442 442 0 0 1-28 69l-10 18-16 36c-3 8-8 15-13 23l-16 24-5 9-2 3h-1l9-21 5-13 12-37a439 439 0 0 0 20-73 461 461 0 0 0 7-57 331 331 0 0 0-5-76c-3-20-8-40-15-58l-23-51c-1-3-2-6 0-9l21-35 14-24c3-4 4-4 8-1l6 6c7 7 10 16 14 25 7 14 14 28 19 42 4 8 5 17 8 25 5 18 3 36 6 53a118 118 0 0 1 0 34Z" />
      <path
        d="m1857 367-2 15-4 25-1 4-4 17-2 22-2 11c-1 12-2 23-5 34-2 10-7 19-11 27a163 163 0 0 1-14 25c-9 11-18 21-29 30-4 3-8 7-13 9-8 3-16 6-25 7l-40 1h-18c-5 0-5 0-8-5 8-5 18-2 26-5l1-1-4-1h-16l-45 1h-4l-1-1c1-1 2-3 4-3 12-5 25-7 37-10a158 158 0 0 0 31-10c13-6 27-13 39-21 10-6 18-16 26-23l8-6 1-1c3-7 9-11 14-17a212 212 0 0 0 15-19l11-18 9-16a23 23 0 0 0 1-4l8-25c2-5 2-11 3-16l7-25v-3c1-2 3-4 5-3a6 6 0 0 1 2 5Zm461-20-7 19-11 27-18 35a193 193 0 0 1-13 20c-4 7-9 14-16 18-3 1-5 2-8 1-6-3-12-5-17-10-2-3-7-3-10-4l-34-3-22 1c-3 0-6 0-7-3l6-3 40-6a124 124 0 0 0 20-6 186 186 0 0 0 43-22l10-8c3-2 3-5 2-8l-3-3c-5 0-9 1-13 5-7 6-15 8-24 8-5 0-8-3-9-8l-1-5v-4a55 55 0 0 1 8-26l1-9 2-7 6-14a162 162 0 0 1 8-15c1-2 4-3 6-3 1 0 3 3 3 5a18 18 0 0 1-2 7c-1 3-1 8 2 11s7 3 11 2l18-9a38 38 0 0 1 20-3 6 6 0 0 1 3 2c5 5 8 11 6 18ZM1889 87l-14 28-2 4c-2 6-3 5-10 5l-19 5-22 9-16 7a25 25 0 0 1-4 1v-1l19-14 10-6 14-12a9 9 0 0 0 3-4l-1-6-5-2c-9 2-17-3-20-11a29 29 0 0 1-1-19l13-47c2-7 6-14 10-21l5-3 1 5-3 15c-1 4 0 9 4 13 4 3 9 3 14 1 6-3 13-6 20-6 6 1 8 3 10 8 5 18 1 34-6 51ZM309 646l-28 31-12 13c-2 1-5 2-6 1-18-4-34-2-50 5-13 6-25 13-35 23l-16 14-6 1c0-2-2-5-1-6l17-25 31-36c16-20 38-27 61-33l18-2 24 5c7 2 7 5 3 9Zm370-399-2 19c-1 10-7 19-13 27-4 8-11 16-16 23a8 8 0 0 1-2 2l-4 2-1-4c0-13-5-24-16-32-4-3-8-3-12-1a61 61 0 0 0-25 22c-6 9-10 20-15 30a18 18 0 0 1-2 3l-1-1a48 48 0 0 1 1-6l17-45a121 121 0 0 1 21-37c8-11 18-20 31-25 11-4 22-2 32 5 6 4 7 11 7 18Zm583 86a33 33 0 0 1-2 5c-6 13-13 26-22 38-2 2-3 6-4 9-1 4-4 5-7 6l-2-1a10 10 0 0 1-1-5c0-11-6-20-11-29a75 75 0 0 0-19-22c-4-4-4-7-1-12l21-33c2-5 4-10 9-12 5-4 10-3 15 1 12 11 21 23 23 39l1 16Zm13 312-15 21-17 25c-3 5-6 8-12 7l-8-1c-13-2-24 4-35 9-11 6-20 14-29 22l-4 2v-5l7-14 19-34c6-8 14-16 22-23 2-3 6-5 10-7 14-7 28-13 43-13a108 108 0 0 1 16 3c6 1 7 4 3 8ZM317 327l-19 23-17 18c-2 3-5 1-8-1l-8-9-26-23-4-5 4-8 18-23 18-19c4-3 5-3 9 0 10 8 19 17 25 28l8 10c3 3 2 6 0 9Z" />
    </svg>

    <svg id="calligraphy-amanishakheto" fill="currentColor" viewBox="0 0 3751 761">
      <path
        d="M3742 305v15l-1 3-4 38c0 12-2 24-6 36-9 28-19 57-32 84l-17 38-29 51a3205 3205 0 0 1-38 61l-7 8h-2l1-4a218 218 0 0 1 26-54c7-19 16-38 22-58l12-45 8-45c1-20 2-41 1-62-1-23-4-46-6-68-3-24-10-46-18-69-5-11-8-24-14-35-8-15-17-31-29-44-4-4-4-9-2-14 10-23 23-44 37-64l5-9c3-7 7-7 12-2a708 708 0 0 1 68 138l4 21-1 5c-10-8-8-22-17-28h-1v8c2 12 6 23 7 34l6 51 2 15h2l1-5 1-27v-2l3-5 3 4 2 19 1 11z"/>
      <path
        d="m3635 479-29 52-30 47c-3 6-10 9-16 12-12 6-24 11-34 18-14 9-27 20-40 30l-21 17c-11 7-23 9-35 4-6-3-12-7-16-12l-27-28-22-21c-6-6-9-5-12 2l-22 42c-7 14-12 28-22 40-4 3-8 7-13 9-2 1-5 0-7-1l-5-5c-12-23-34-33-57-40-20-6-41-6-62-4-29 3-58 9-87 16-25 6-50 13-75 16s-51 2-75-8l-17-10c-11-9-21-19-26-32l-5-9c-3-5-5-10-4-16l-1-14 1-55c0-7-2-10-9-11a58 58 0 0 0-53 21c-16 21-25 44-30 69l-2 16-1 9h-2l-2-8c-2-21-1-43 2-65 2-14 4-29 8-43 7-24 20-45 37-63 14-16 31-23 51-26 11-1 22 2 33 5 9 3 10 11 8 21-4 18-8 35-10 52-1 7 1 15 2 23 5 31 36 51 63 54l30 3 57-7c39-6 78-14 118-19 20-3 41-2 61 1l7-1-2-6c-7-7-12-16-20-22l-35-20-46-21-33-13-30-13-56-24-25-13c-12-8-14-14-10-28l17-54c3-9 6-18 7-28 3-11 7-22 12-32l14-31c9-17 20-31 36-43 20-15 43-25 65-37l45-25 3-1c22-8 42-19 62-30 13-7 26-15 37-26l14-17c2-2 5-6 9-3 4 2 5 7 3 12l-14 26c-2 2-4 5-4 8-3 13-11 23-19 33l-14 15-4 5c-7 9-15 17-24 23l-41 26c-21 13-43 23-64 35l-69 41c-12 8-21 19-28 31-6 8-4 13 4 18l33 15 18 8 51 21 99 43a136 136 0 0 1 74 73c4 15 8 31-1 47l-7 15c-2 4-1 7 2 10l1 1c13 5 20 17 30 26 5 4 8 3 10-2 7-20 18-38 23-59 3-14 9-27 12-41 4-13 6-26 8-39l5-19a401 401 0 0 0-12-125 309 309 0 0 0-65-133c-4-4-4-7-1-11l13-21 6-12 25-42c4-6 7-6 13 0 17 18 30 38 41 60l30 65c4 8 5 17 8 26l-1 4-2 3c-1 1-2-1-2-2l-4-11-9-25-2-3c-4 3-3 6-2 9l10 43 7 47 4 29 2 2 1-6v-26l3-6 4 5 1 19c1 33-5 64-16 94-9 26-19 51-33 75l-41 68c-6 10-5 12 6 13l18 3c22 5 44 2 66 0l17-3c6-2 10-6 10-12l2-7 32-74a362 362 0 0 0 21-185 378 378 0 0 0-32-87c-7-13-17-25-26-38l-13-22c-2-5-2-10 1-15 12-24 27-48 43-70 3-5 9-5 12 0 10 13 21 26 30 40 6 9 10 19 15 29l21 48c3 5 4 11 5 16l-2 6-4-3-7-5 1 5 8 35 4 40 1 22 1 7h2l2-5 1-36v-7l3-4 2 4v19l-4 40a411 411 0 0 1-33 98l-18 38-18 32c-2 2-3 6-2 7l8 3c19-2 38-5 56-13 10-5 19-12 29-18 2-2 5-6 9-2s-1 6-2 9zm-2528 41a258 258 0 0 1-18 68l-21 39-2 3-4 1-2-3 1-4c5-16 8-34 7-51l-5-27c-1-2-4-5-6-5l-30-5c-20-2-41-5-61-3-17 2-33 5-50 6-8 0-16 4-24 6l-70 16-28 8c-18 5-36 9-55 12-13 2-27 3-41 2-17-2-33-4-47-17-11-10-19-22-27-34-4-7-7-8-11-1l-49 76c-5 7-7 8-14 3l-17-19-10-14-22-36c-10-18-18-37-21-57l-1-12-4-5-4 4-26 34-14 15-15 15c-13 14-29 24-46 32-6 2-12 5-17 9-3 1-5 4-6 6-7 16-13 31-21 46l-23 45c-11 20-27 34-46 46-6 4-13 6-21 6-24 2-47-3-69-13l-34-14-43-18-23-14-19-9-26-14-3-2 2-2 22 7c16 7 32 10 49 13l49 9c15 3 31 1 46-2 23-4 46-10 66-22 27-15 48-37 63-64 3-4 1-5-3-6l-20-3c-10-1-18-7-24-14a79 79 0 0 1-22-56l1-47a186 186 0 0 1 21-64c6-11 14-20 26-25s23-2 33 5l11 13 4 6c6 6 11 14 12 23l2 6c7 13 8 28 9 42l-1 28c0 7 1 8 8 7 19-2 35-11 50-21l28-18 9-9 7-7c20-17 35-39 50-60l16-21 5-2 1 6-20 36c-2 4-5 8-6 13-1 4 0 8 1 12 5 19 12 38 23 54 10 15 20 30 33 41l15 14c5 3 8 3 10-2 6-15 11-30 9-46-2-21-6-40-17-58-3-5-2-11 0-16l32-58 6-3c2 0 4 2 5 4l12 30c3 8 5 17 6 27l1 33-1 6-4 17c0 3 1 5 3 7 13 14 29 23 48 27 25 5 50 3 75 0 27-3 53-11 78-18l36-8 39-8 26-5 9-2c2 0 3-2 3-3l-2-3-36-17-59-26-17-7-29-12-25-11c-25-13-52-22-74-39-16-13-32-25-43-43-5-9-6-19-5-29l2-26 6-27 4-20v-3l5-6 3 7c-1 22 12 36 26 50 24 23 52 37 81 50l128 56 42 18c28 13 56 25 80 44 15 11 29 24 41 40 7 10 12 22 16 35 3 11 3 21 2 32z"/>
      <path
        d="m1472 582-17 23c-3 4-7 4-10 1a76 76 0 0 1-29-38l-9-24c-2-5-5-6-8-1l-31 46-16 27c-3 5-6 5-10 1-17-16-31-33-39-56l-7-18c-2-6-5-6-9-1l-27 35-31 29a81 81 0 0 1-73 11l-32-10-3-2c-9-4-10-7-6-16l41-89 10-35c6-22 8-44 10-66 1-17 0-34-1-51a550 550 0 0 0-47-203c-9-17-21-31-37-43l-6-6c-3-4-3-9 0-13l33-56 4-5c3-3 6-3 9 0l22 24c13 15 24 33 31 52 6 15 12 30 16 45a960 960 0 0 1 23 121c2 24 2 49 2 74a1300 1300 0 0 1-19 98c-4 17-14 33-23 49l-24 40c-2 4-1 7 5 9l41 14c11 4 24 4 36 1l7-1c13-1 24-9 26-22 5-25 11-51 5-76-3-14-6-28-14-41-3-6-3-12 2-18l31-43 8-8c4-5 7-4 10 1l14 39a244 244 0 0 1-3 83c-1 4 0 8 1 11 9 18 19 34 33 48l14 15c5 6 8 5 11-3 6-15 7-31 7-47 0-23-5-46-16-67l-6-10c-3-4-4-8-1-13l36-51 4-5c5-4 9-3 12 2 9 12 14 26 17 40 6 22 5 44 3 66v8c4 17 9 33 18 48l17 20c5 5 8 3 9-2 8-27 10-53 2-80l-11-33c-2-4-3-8 0-12a1906 1906 0 0 1 37-56l6-5c2 0 4 4 6 6 12 21 18 45 17 69 0 21-3 42-10 62l-12 26m1014-81-21 44-4 7c-5 9-10 18-17 25l-16 22-54 81c-6 8-14 14-25 13-4 0-7-1-10-3l-15-11-20-13-21-12-17-6c-4-1-7 1-9 4l-7 13-4 3c0-2-2-3-1-4 0-4 1-8 3-11l14-33c9-21 15-43 18-65l6-61c1-23-2-45-5-68-4-25-8-50-17-74-8-24-17-47-27-70-5-10-12-19-18-27-5-8-6-10-2-18l18-25 13-19 23-29c4-5 9-5 13 1a447 447 0 0 1 38 68c11 24 19 49 20 76 0 7-1 7-8 4-2 13 4 25 3 38h2l2-9c0-2 2-3 3-5l3 5c2 16 5 33 5 49l-2 53c-2 21-7 42-15 62a616 616 0 0 1-54 103c-5 6-8 14-12 21-3 4-2 6 2 8 17 9 35 10 53 2 18-7 34-16 49-27l3-5-5-2c-12 1-14 0-12-11 3-21 5-43 15-63 2-4 5-6 9-7 33-3 65-12 93-30l2-1h8v7z"/>
      <path
        d="M2659 406c-6 32-14 64-29 93-15 31-32 62-48 92l-12 14-19 26-11 17c-1 2-3 2-5 3v-6l2-4a520 520 0 0 0 51-146c3-19 7-38 8-57 1-18-1-36-1-55l-2-25-3-14c-6-34-18-65-32-96-8-17-18-33-30-48l-8-10c-3-5-3-10 0-15l24-35 27-35 1-2c5-5 8-5 12 1l16 27 28 53 17 45a225 225 0 0 1 11 65h-2l-5-11h-2c0 16 4 31 4 47h3c5-3 7-2 7 3l2 19c3 18-1 36-4 54zM510 203l-5 14-12 33-10 20-8 5-37 5c-14 3-26 12-38 20-9 7-16 15-21 25l-2 4c-3 3-6 2-7-1l-5-25c2-17 7-33 17-47l19-26c13-16 31-24 51-30 13-4 27-5 41-6l13 3c4 0 5 3 4 6zM2518 32l-2 14-13 50-8 31c-3 13-11 26-23 34-4 4-5 3-7-2l-5-1-11 8-24 13h-4l1-5 5-4 33-27 5-8 10-15 2-4 6-16c1-4 3-8-1-12s-12-5-16-2l-8 5-8 7c-11 10-20 3-26-6l-4-15c-1-13 3-25 8-37 2-3 2-5 2-8 0-12 7-22 11-33l4-2 3 3 2 9c2 10 9 12 18 7 7-6 15-11 24-14 10-4 17-1 22 9 4 9 4 12 4 21zM1508 153l-2 18c-1 5-2 10-5 14l-26 37c-1 2-5 5-8 4-2 0-4-4-5-7-2-10-5-20-13-27-15-14-30-10-44 1-11 8-19 19-25 31-4 8-9 14-14 21l-4 3-2-1 6-20 5-13c8-26 24-47 41-68 8-11 17-20 27-28 16-11 34-14 52-5 11 5 16 16 17 28v12zm1413 163-9 14-17 32c-3 5-5 10-9 14-2 3-5 4-9 5-12 2-24 2-36 5-21 5-36 19-46 37-4 5-6 11-9 17l-4 6-3-1 2-11c3-11 5-21 4-32l3-13 2-5c9-24 25-45 45-62 11-8 24-14 38-17 15-4 29-2 43 1 5 2 7 5 5 10zM624 661l-19 28-14 22c-3 5-6 7-12 7-11-1-22-2-33 1-15 4-28 9-40 18l-17 16-6 5-2-1 2-10c4-11 8-23 14-34 9-16 19-32 33-44 14-13 31-22 51-26 12-2 25-1 37 3 9 2 11 8 6 15zm277-471a4517 4517 0 0 1-38 65c-2 0-3-2-4-4-9-15-22-27-37-36-4-2-8-3-11-6l-5-6 5-13 26-52c4-7 6-7 13-4a97 97 0 0 1 52 48c1 2 0 6-1 8zm1351 146-7 14-52 85a315 315 0 0 1-220 144l-21 4c-17 3-34 2-50-4-32-9-61-24-90-39-7-4-14-7-20-12-14-8-27-17-41-27l-9-8 1-2c6-1 12 2 17 5l29 17 13 6 4-1v-4l-9-8-28-17-8-3a157 157 0 0 1-12-9l-13-8-43-27-2-2-1-4 4-1c5 2 10 3 14 6a518 518 0 0 0 150 58 411 411 0 0 0 172-5c13-3 26-5 38-9 21-7 41-16 60-30l30-20 12-11 15-13 6-8c2-2 0-4-3-4-12 0-25 0-37 2l-51 9-28 9-5 1c-4 0-5-2-4-6l18-48c2-6 8-10 12-14l17-11c5-2 9-6 9-12 1-12 4-25 4-37 1-19-5-36-12-53-3-8-8-15-14-21-4-6-5-9-1-15l11-22 12-26 10-19c3-5 6-6 10-1 5 6 11 13 15 21 4 6 7 12 9 19 6 18 7 37 6 56-2 25-10 49-20 73l-11 21-1 6h5l38-6 22-2 42 4 5 2c3 2 4 4 3 7z"/>
      <path
        d="M2040 268c-4 9-11 17-16 25l-3 10c-1 5-5 8-9 9s-4-3-5-5l-3-15c-6-18-15-34-30-46l-5-5c-5-6-5-7-1-14l28-48c8-12 18-16 31-4a76 76 0 0 1 26 52v6c2 14-7 24-13 35zm35 356-19 26-16 24-10 14c-2 2-6 3-9 4v-2h-19c-13-1-23 5-34 11-14 7-25 16-36 27l-2 2-5 1-1-4 5-11c8-16 16-32 26-47 18-28 43-48 78-55 13-2 26-1 39 2 4 1 5 4 3 8z"/>
    </svg>

    <svg id="calligraphy-amanitore" fill="currentColor" viewBox="0 0 2566 742">
      <path
        d="m2470 517-27 45-26 39c-3 4-7 7-12 9-16 7-33 14-47 25l-18 14-20 15c-10 6-24 8-35-1-12-11-23-23-33-36l-18-16c-3-3-5-2-7 1l-9 14-19 38c-6 10-11 20-23 26-3 1-6 1-8-2l-3-3c-8-17-24-25-40-33-11-5-22-6-33-7-26-3-51 1-76 5l-87 16c-14 3-28 1-41-1-9-1-18-3-27-7-6-2-11-6-15-10-9-8-17-16-21-28l-4-6c-2-4-4-9-3-15v-12l2-47c0-6-1-8-7-9-15-2-29 1-40 11-8 6-13 15-18 23-11 17-17 36-18 56l-2 6h-1l-1-6c-2-19 0-38 3-56a146 146 0 0 1 42-90c12-13 27-19 44-20 10-1 19 1 27 4s9 10 7 19c-5 19-11 37-9 57 2 27 18 43 42 52 15 5 30 7 46 5 32-2 64-7 96-12 26-4 52-7 78-5l19 2h5l-1-6c-12-16-28-28-46-37l-37-19c-8-3-16-8-25-10-11-4-22-9-32-15l-57-27-9-6c-10-7-11-11-8-23l16-45 8-25c2-9 6-18 11-26s7-18 12-27c8-14 18-27 32-36 18-12 37-20 56-30a4883 4883 0 0 1 45-22c25-9 49-21 72-36 6-3 10-8 15-13l9-10c2-1 6-3 7-2 3 2 5 5 3 9l-12 22-5 8c-2 9-7 16-12 22-10 12-20 24-32 34-15 12-32 23-50 31l-25 13-61 31c-17 10-34 19-47 35-9 13-9 17 5 24 12 7 25 12 38 18l100 45c20 9 40 19 57 34 15 13 27 28 31 47 2 9 3 18 1 27-1 7-5 14-9 21-3 6-2 8 3 12l6 4 7 6 11 13c3 3 6 3 8-1 8-20 19-38 23-59l3-9c8-17 10-35 15-52 1-5 4-10 4-15a333 333 0 0 0-7-106 267 267 0 0 0-52-116c-3-3-3-6-1-9l12-18 13-21 16-26c3-3 6-3 8 1l16 19c17 24 26 50 37 76 5 11 10 23 12 35v3l-2 5-3-4-8-26-3-6-2 1v7l8 39 5 39 2 26h2l1-5v-20l1-4 3-3 3 4v14c0 28-5 55-15 81-9 22-19 44-31 64-11 20-25 38-37 58l-2 3c-2 4-1 6 3 7l26 5a186 186 0 0 0 64-2c5-2 9-5 9-10l2-6 29-62c11-24 18-50 22-77a230 230 0 0 0-17-140l-16-33-10-14-12-20c-2-4-2-10 0-14 12-21 25-40 39-59 3-4 8-4 11 1l24 35a1671 1671 0 0 1 30 70c2 3 2 7 2 11 1 1 0 3-1 4l-4-2-4-5h-1l1 9 5 26c2 11 2 23 3 34v19l1 5h1l2-4 2-31v-5l2-4 3 4-1 17a608 608 0 0 1-10 56c-6 20-15 40-25 59l-20 39-13 21-2 6c2 1 4 3 7 3 16-2 33-3 48-10 9-4 17-10 25-15 2-1 6-2 8-1 2 2 0 5-2 7zM599 456l-23 21c-25 23-54 38-85 50-12 4-26 6-40 8-5 1-9 2-11 7l-12 28-7 14c-9 18-19 36-32 52-9 10-19 20-30 28-14 10-28 20-43 28-6 4-13 5-20 7h-1c-13-3-27-4-39-12l-7-5c-10-4-18-11-26-18l-6-6c-1-3 0-5 3-4l13 6 15 9c2 1 6 1 8-2 1-4 0-6-3-8l-17-8-9-6-42-25c-4-2-6-5-7-10 0-3 1-4 4-3l13 7c11 6 24 11 37 13l12 2 21 2c26 1 51-5 75-15 13-6 25-14 37-21 17-10 31-23 45-37 4-4 7-10 9-15 3-5 0-8-5-6-14 3-25-2-33-13l-12-12c-7-10-7-21-10-32-3-16 1-32 4-47a183 183 0 0 1 25-60l9-12c5-9 13-15 21-20 10-5 19-4 28 2 8 5 13 12 17 21 6 17 10 34 10 52l-2 21-4 22c-2 5 0 9 6 8l27-3 32-10 7-3 13-7c7-3 14-4 19-8l38-25 7-7 22-23c4-3 6-8 9-12l33-42c1-2 4-3 6-4l-1 8a756 756 0 0 1-30 44m830 83c-1 4-3 9-6 12-13 13-20 31-29 47-10 19-19 39-32 56-10 14-23 26-37 36-16 11-31 23-45 38l-12 8c-3 2-6 1-9-1l-31-31c-6-6-12-10-19-14-5-4-11-6-16-9s-8-2-10 3l-6 10-3 4h-2v-6l3-8c11-24 19-50 25-77l12-60c6-40 7-81 1-121a513 513 0 0 0-43-146c17-26 33-51 53-75l3-3c3-3 6-2 7 1 12 27 23 53 29 82l8 37v7h-1l-3-5-4-3-2 4v4l6 91 3 6 4-5 2-5h1l2 6v19l-4 30 1 9c0 4 1 9-1 12-4 5-6 12-8 18l-7 20-22 51-16 38-13 20-16 28c-3 4-1 8 4 9 7 1 14 3 22 3l26 1c12-1 22-5 31-11l18-13c2-2 3-4 3-7 1-9 3-17 6-25l15-47 1-3c3-8 6-12 16-12 16-2 32-7 49-11 10-2 20-5 28-12l8-6c2-2 6-2 7-1s4 5 3 7z"/>
      <path
        d="m1623 410-16 59c-11 32-26 61-45 89l-41 57-18 20-5 6-17 22-3 3-2-1 3-6 27-51a526 526 0 0 0 50-162c1-16 3-33 2-49l-6-48c-4-27-15-52-27-76-6-12-14-23-21-35-4-6-3-8 1-13l26-33 32-35c4-4 7-3 10 1l15 26 14 28 12 30c7 20 11 41 13 62v9h-2l-2-6-5-27c-1-3-1-7-5-7-4 1-3 5-3 8l6 51c1 17-1 34-1 51v2l2 4 3-3 4-27c0-2-1-5 2-7l2 7-1 27c1 8-2 16-4 24zm942-21-6 44-5 18c-9 28-22 54-34 80-8 17-17 33-27 49l-29 47-17 23-4 5-2-2 9-21 15-27c5-9 9-19 13-30 5-12 11-25 15-39 4-13 5-27 9-40 5-18 6-36 6-53 0-23-2-45-3-67a324 324 0 0 0-30-105l-19-30c-3-4-3-7-1-12 9-19 20-37 33-53l5-9c3-5 6-5 9-1a547 547 0 0 1 48 98c4 12 9 24 10 37l-1 6c-8-6-6-17-13-24h-2l1 8 5 28 3 44 2 13h1l2-11 1-17 2-4c1 1 3 2 3 4 2 13 2 27 1 41zM320 339c-2 11-3 21-7 31-7 16-11 33-17 49l-11 29c-7 17-13 34-23 50l-14 20-38 45a149 149 0 0 1-53 37c-6 3-13 2-20 1-22-3-44-6-65-15l-15-7v-1h12l25 5 6-2-3-5-20-7-29-7-25-11c-2 0-3-2-4-4l12 1c22 2 45 5 68 1 17-3 34-6 50-12 12-4 22-11 33-18 16-10 31-23 44-37l17-15c8-8 16-16 22-25 12-16 21-34 28-53l8-19 14-31 5-5v5zM1518 49l-2 14-5 23-15 54c-6 23-12 46-26 66-5 8-12 14-20 19-4 2-9 2-13 2l-23-4-6-4 4-3c1-1 4-3 3-5l-4-4-42-12-6-3v-1l7-1 22-2c7-1 15-3 22-6 11-4 21-10 31-16 13-8 24-18 33-29l4-8 1-4c1-2 2-4 1-5l-5-2-4 1-27 9c-9 2-15-1-18-10-1-5-2-11-1-16l7-34 12-24 8-17 4-6 5-1 1 4-3 13c-1 8 6 14 14 10l19-8 11-2c8-1 12 5 11 12zM648 182l-37 56c-3 5-7 6-13 5-19-2-39 2-56 12l-19 12c-5 3-8 7-12 11l-15 19-1-1-1-3c6-25 15-49 30-70 14-20 33-33 56-41 16-6 32-10 50-9l16 2c3 1 4 4 2 7zm1216 178-11 17-18 31c-2 4-6 6-11 7-13 0-26 0-37 5-16 7-28 17-36 33a210 210 0 0 1-9 14h-2l1-9c3-9 5-18 5-28 0-4 2-7 3-11l1-3c6-16 17-29 28-41 16-18 38-26 62-27 7 0 14 3 21 4 4 1 5 4 3 8zm-655 22-6 13-48 77a286 286 0 0 1-199 131l-20 3c-15 4-30 2-45-3-29-9-55-22-82-36l-18-10-37-25-8-7 1-2c5-1 10 1 14 4l27 16 12 5c1 1 3 0 4-1v-4l-9-7-25-15-8-3a94 94 0 0 1-10-8l-12-7-39-25-2-2-1-4h4l12 5a467 467 0 0 0 137 53 375 375 0 0 0 157-4c11-3 23-5 33-9 20-6 38-15 55-27l28-18 11-10 13-12 6-7c1-2 0-4-3-4-11 1-23 0-34 2l-46 8-25 8-5 1c-4 0-5-1-3-5 5-15 9-30 15-44 3-5 8-9 12-13l15-9c5-3 8-6 8-11 1-12 4-23 4-34a113 113 0 0 0-23-67c-5-5-5-8-2-14l10-20 11-23 9-18c3-5 6-5 9-1l14 19c4 6 7 11 9 18 5 16 6 33 4 50-2 24-8 45-17 67l-10 19-2 5h5l35-5 19-2 39 4 4 2c3 1 5 3 3 6z"/>
      <path
        d="M1017 320c-4 8-10 15-15 23l-3 9c-1 5-4 7-8 8-3 1-4-2-4-5l-3-13c-6-16-14-31-27-42l-5-5c-4-4-5-6-1-12l26-44c6-11 16-15 28-4 12 12 21 26 23 43v11c2 12-6 21-11 31zm31 324-17 23-15 23-9 12-8 4v-2h-17c-11-1-21 5-31 10a128 128 0 0 0-34 26l-5 1-1-4 4-10 24-42c17-26 40-44 71-50 12-3 24-1 36 2 4 1 4 3 2 7z"/>
    </svg>

    <svg id="calligraphy-language" fill="currentColor" viewBox="0 0 1890 736">
      <path
        d="M1746 287c-2 21-10 40-16 60-4 16-10 30-16 45l-11 22-14 27c-2 5-4 11-7 15l-36 59a49 49 0 0 0-3 6c-6 13-15 25-24 37a78 78 0 0 0-6 10c-3 7-8 12-14 16-4 3-12 2-16-3l-13-15c-12-14-26-25-42-35l-11-8a64 64 0 0 0-6-4c-6-4-8-3-12 2l-25 38a59 59 0 0 0-6 12c-4 10-12 9-19 4-13-8-23-19-33-30-7-9-13-19-15-31a19 19 0 0 0-2-7c-9-16-12-33-15-51a14 14 0 0 1 0-4l5-35 8-25 3-13-2-1-3 3-18 29-43 79c-8 14-15 27-24 40s-21 21-36 25c-17 5-29-1-40-13-9-8-13-19-15-31a496 496 0 0 1-5-74l1-37a38 38 0 0 0 0-6c-1-4-3-6-7-6-20 0-37 6-50 21a99 99 0 0 0-25 50l-4 23a20 20 0 0 1-2 4h-1l-1-4v-18l-1-13a170 170 0 0 1 4-56l9-34a101 101 0 0 1 41-52c15-10 31-15 50-12 9 1 12 5 10 14a485 485 0 0 0-12 110 88 88 0 0 0 12 37c6 11 24 20 40 14 11-3 20-9 28-17 13-13 25-27 35-43l14-22c4-7 3-9-5-11l-21-9c-9-6-12-16-12-27a408 408 0 0 1 32-126c7-15 15-30 28-41 9-7 18-10 29-12 8-1 14 2 20 5 4 3 5 7 3 11l-15 51c-2 6-6 8-12 9a123 123 0 0 0-25 7c-6 3-11 7-15 11l-15 18c-3 4-2 8 1 12 5 6 12 9 20 9 14 1 27-2 40-8 17-8 33-16 50-22 16-7 32-11 49-12a4 4 0 0 1 2 0c3 1 7 1 8 4 2 1 0 5-1 8l-3 7-12 33-6 16c-2 7-7 10-13 11-9 2-18 3-26 6l-31 16c-5 2-7 7-7 12l-1 30c0 14 6 26 13 38l14 26c6 9 12 17 21 23s16 14 24 22c4 5 6 5 10 0a272 272 0 0 0 40-81l13-39a81 81 0 0 0 2-15l5-55-3-34-3-42a238 238 0 0 0-13-58l-16-45a306 306 0 0 0-14-31l-10-15c-3-4-3-8-1-12l22-35 17-20 10-12c5-5 9-5 12 1l19 40 11 27 8 22c8 22 12 44 15 67 1 4 3 9 3 14l-2 6c-1-2-3-3-3-5l-11-35-1-4h-1v16l7 42a233 233 0 0 1 3 52l-1 23a23 23 0 0 0 1 4h1a31 31 0 0 0 2-5l3-26 1-5 4-4 3 5a55 55 0 0 1 0 10c-2 23-5 46-12 68l-17 51c-6 15-13 29-22 43l-14 22c-3 6-2 8 3 12l25 18c14 10 25 23 36 37l3 3c3 3 6 3 8-1a346 346 0 0 0 27-53c6-15 12-30 16-46a452 452 0 0 0 12-164l-8-34-10-35a194 194 0 0 0-17-43l-5-13-11-20-11-17c-2-4-1-7 0-10l16-29 24-38c6-8 11-9 17 0 9 12 18 25 25 39l28 71a155 155 0 0 1 9 46 9 9 0 0 1 0 3l-2 2a3 3 0 0 1-2-2 63 63 0 0 1-3-8l-11-31-3-8h-2l1 8 10 47 5 34 3 15a15 15 0 0 0 1 3c4-2 4-5 4-9l2-7c4 2 2 5 2 7 2 23-1 46-3 69Zm-829-40-8 17c-5 14-11 27-15 41a161 161 0 0 1-39 64c-7 8-16 13-25 19-14 9-30 17-44 27-25 17-40 40-49 69-8 27-17 53-30 77-7 14-16 27-28 37a13 13 0 0 0-3 2c-8 12-21 17-32 23-7 4-14 4-22 2l-47-11-29-11a11 11 0 0 1-2-2v-1h8l27 6a58 58 0 0 0 9 1l4-1 1-1c-3-2-5-4-8-4l-41-11-22-4c-5-1-7-3-9-7l5-1c35 3 67-6 98-20 15-7 28-17 42-26 16-10 28-23 40-37 12-15 22-32 30-50l19-46c9-19 21-36 35-51l24-24c3-3 5-7 6-11a70 70 0 0 0 4-12 84 84 0 0 0 2-13l5-74c0-12 0-25-2-36-4-18-9-36-20-52l-19-34a75 75 0 0 0-10-12c-4-5-6-9-3-15l21-48 6-12c3-6 7-7 12-2l7 7c18 22 29 47 39 74 5 14 7 28 8 43l-1 13-3 56a65 65 0 0 1-3 18l-23 61a40 40 0 0 0-3 9c0 3 2 5 5 4a50 50 0 0 0 10-2c18-8 35-16 50-30l11-12 3-3c3-2 6-4 7-3 3 2 3 5 2 9Zm-503 61-13 33-8 21-25 60c-6 12-14 24-22 36-13 22-28 44-47 63-20 19-42 34-69 41-11 3-23 3-35 3-9-1-17-4-25-6-11-5-20-13-28-22a92 92 0 0 1-23-60 296 296 0 0 1 5-55l1-3c1-10-1-14-12-17-15-4-30-5-43 4-8 6-16 13-23 21-9 11-16 24-22 38l-8 19-6 20-2 5H8a24 24 0 0 1-2-4c-3-21-3-41 2-62a313 313 0 0 1 32-75c7-13 17-25 29-34 16-11 33-18 53-17l18 5c5 1 7 5 6 10l-8 36c-2 14-4 28-3 42 0 17 7 33 19 47 20 23 46 32 76 29 30-2 55-16 78-33 20-17 37-37 51-59l15-23c9-12 15-26 22-40l12-24a4 4 0 0 1 1-1l4-3 1 5Zm1473-25-19 72c-2 9-6 18-10 26l-27 56-26 43-13 25-15 32c-1 3-2 6-6 6-4-1-4-4-2-10l12-28 18-59c6-21 13-42 18-64a299 299 0 0 0 8-44l2-52a149 149 0 0 0-5-50l-16-49c-7-23-19-42-32-62a1686 1686 0 0 0-22-34c-5-5-5-9-1-14l37-58 11-14c3-3 6-2 9 1 12 18 25 36 36 56s18 41 26 61l9 39-2 6-4-5-9-32-5-14-4-5c-2 5-1 9 0 12l6 20c6 21 11 42 14 65a280 280 0 0 1 0 68v10h1a40 40 0 0 0 2-6l3-23 2-22 3-4 2 4a124 124 0 0 1-1 47Z" />
      <path
        d="m1028 274-5 42-3 13c-5 17-8 35-14 52-4 13-10 25-16 37l-15 37c-8 23-19 46-31 68l-9 17a25 25 0 0 1-5 6l-4 1v-4l5-16 16-42c7-14 9-30 14-46 5-17 7-36 9-54 3-14 4-29 5-44a232 232 0 0 0-1-36 413 413 0 0 0-37-141l-16-34-20-33c-3-5-3-9-1-15 11-25 23-50 39-73 4-5 7-5 10 0l16 26c11 16 18 34 26 52 6 11 9 23 13 35 8 19 13 40 18 60a48 48 0 0 1 0 11l-1 4-4-3-5-9h-1l7 81h1a39 39 0 0 0 2-6l1-13c0-2 2-4 3-5l4 5-1 27Zm-427 35-3 36c-1 9-4 18-6 26-7 31-15 60-28 89a378 378 0 0 1-32 56c-11 17-24 33-41 45-10 8-21 15-35 15a2 2 0 0 0-1 0c-23 7-46 1-69 0a62 62 0 0 1-9-1c-2 0-3-2-5-3l4-3 13-2a70 70 0 0 0 11-2l4-4-5-3a13 13 0 0 0-6 0l-37 5a34 34 0 0 1-5 0l-21-1a18 18 0 0 1-4-1v-1l7-2c18-3 37-6 54-11 11-2 21-8 31-13 28-15 57-28 81-49 14-12 26-26 39-39l14-19 1-6a43 43 0 0 0-6 2l-6 6c-16 11-39 4-46-16-4-11-6-21-4-32l3-34c2-12 7-23 13-34 7-11 12-23 21-33 9-9 18-17 31-19 11-3 26 3 32 12 6 11 12 22 10 36ZM290 614l-13 24c-5 10-11 19-15 29-3 5-7 7-13 7-27 0-50 8-70 26a103 103 0 0 0-21 26c-2 3-4 7-8 10l-1-5 4-27c5-19 17-36 28-52a118 118 0 0 1 26-28c11-8 24-13 37-17a119 119 0 0 1 39-5c8 1 11 5 7 12ZM118 190a22 22 0 0 1-1 2l-18 58c-2 6-6 10-12 10-27 0-45 14-61 34L8 320a8 8 0 0 1-2 2l-4 2-2-5c2-30 9-60 26-86 11-16 24-31 42-40 11-6 24-10 37-9h8c4 0 5 2 5 6Zm246-21-6 29-10 40c-3 12-9 23-19 31-6 5-11 6-17 4-4 0-7-2-11-3-5-2-7-1-10 4s-5 10-9 14c-7 8-16 11-26 11-4 0-7-4-9-8a28 28 0 0 1-2-16l5-29 6-28 4-5 3 6c-1 10 3 13 12 13 10-1 18-7 23-15l13-22 4-3 2 4a130 130 0 0 1-3 16c-1 4 1 7 6 6 6-2 12-5 15-11l15-29a109 109 0 0 1 8-12l4-2 2 5Zm23-102-21 42-10 15-11 14a83 83 0 0 1-18 19 34 34 0 0 1-14 7c-9 3-17 6-26 7-6 2-12 1-18 1l-4-1 6-3 28-9a29 29 0 0 0 5-3v-1a10 10 0 0 0-3-1l-50 7-38 2h-12l-3-1c2-4 6-5 9-6l33-10a287 287 0 0 0 38-16l40-25c14-8 27-15 39-24l24-19c2-2 6-5 7-4 4 3 1 6-1 9Zm998 11-1 1-1 3-11 28-17 36c-2 5-5 6-9 2l-25-27-19-17c-3-3-3-6-2-10l8-18 18-36c3-6 6-6 12-5 16 3 25 15 36 24 5 4 7 12 11 19Zm-132 85a126 126 0 0 1-6 16l-18 44c-3 7-5 8-12 8-12 0-23 4-33 11s-19 14-26 24l-5 2-3-5c5-18 5-36 13-53a101 101 0 0 0 5-12c4-11 11-19 19-25 18-13 37-20 59-19 5 0 8 3 7 9Zm516 388a46 46 0 0 1-4 6l-2-3a30 30 0 0 1 3-6l1 1 2 2Z" />
    </svg>

    <svg id="calligraphy-streetview" fill="currentColor" viewBox="0 0 2554 654">
      <path
        d="m2393 0-3 3c-6 10-15 16-24 23-18 14-37 25-58 33l-77 27a307 307 0 0 0-63 28 140 140 0 0 0-28 21c-19 19-30 42-33 69a531 531 0 0 1-12 59c-3 11-4 22-5 33-1 6 2 11 5 16 12 14 26 24 43 31l44 19c15 7 31 14 45 22l24 15 30 23c18 16 34 34 45 55a25 25 0 0 1 3 8l-1 7c-1 1-5 0-7-1l-43-15c-19-6-39-7-58-7l-66 2-63 6c-15 1-30-1-43-10a68 68 0 0 0-7-4c-7-5-12-12-15-20l-7-19c-2-5-3-9-1-15l29-63c2-3 2-7 3-10l-2-4-3 1-12 16-5 10c-21 33-47 61-84 76-17 7-34 15-53 17a53 53 0 0 1-15-1c-18-3-32-13-47-22-2-2-3-4-2-7 3-18 8-35 7-53-1-17-2-34-12-49l-21-26c-6-7-11-7-15 1-9 15-18 31-26 48s-10 13 3 28c5 6 9 12 10 19l8 48c1 11-1 22-2 33-1 5-4 6-8 2-8-7-16-15-22-23-11-14-20-29-16-48a9 9 0 0 0 0-1c2-26 1-51-6-75-3-12-10-23-16-34-1-3-5-3-7-1a18 18 0 0 0-6 5 1219 1219 0 0 0-31 56c-3 5-2 10 1 15 12 20 19 40 18 63v3c1 15 2 30-1 44-1 4-3 5-6 3-15-10-31-21-40-38l-7-14c-2-4-3-8-2-12 2-11 4-22 3-33-1-12-3-25-6-37-3-16-13-29-24-40-7-7-12-6-17 1l-33 50c-3 4-3 8 1 12a155 155 0 0 1 10 12c5 8 10 14 12 24l2 13c7 25 5 50-3 75-2 5-4 6-9 4-11-6-24-11-34-19-17-12-33-26-49-40-6-5-6-7-3-15 12-31 16-64 8-98-7-29-20-54-44-74-6-4-8-4-12 3l-6 9-19 32-34 68c-8 18-10 37-2 56a226 226 0 0 0 14 28l20 30c3 4 2 6-3 8l-11 4c-29 9-59 11-89 13-20 2-40 1-60 1-30-1-60-2-90-6a258 258 0 0 1-74-22c-24-12-49-21-71-38a83 83 0 0 0-9-6 12 12 0 0 0-4-1l-1 2 8 8 22 18 20 16c7 5 12 13 19 17l41 22 6 4c-6 6-6 6-11 2a9 9 0 0 0-2-1l-36-16a39 39 0 0 0-5-2l-1 2 5 4 29 17c21 10 41 23 64 29l54 14c11 2 23 2 34 3 26 3 53 1 79-3a245 245 0 0 0 87-33l29-35c4-4 5-4 8-1l30 29c9 9 17 20 29 26l21 12c7 3 10 2 15-4l16-21 40-47a21 21 0 0 1 4-2 21 21 0 0 1 2 3c7 19 15 38 30 52a181 181 0 0 0 20 17c5 3 9 2 12-3l8-13 25-48 4-3 3 4 10 19c9 15 19 29 37 35 4 2 7 1 9-3l23-34c9-13 7-13 24-8l24 6a227 227 0 0 0 85-3c14-4 26-12 39-19a54 54 0 0 0 14-12c13-14 28-27 36-45l4-3 2 5-1 23c1 25 8 48 24 68 10 13 24 18 40 17l48-7 29-3c19-1 39-1 58-3a188 188 0 0 1 62 3c17 4 35 7 51 15 3 1 5 1 7-2l20-29a52 52 0 0 0 6-16l7-34c2-18 1-35-7-52a166 166 0 0 0-39-51l-56-43c-30-20-63-34-94-51a178 178 0 0 1-44-35c-6-7-6-9-1-16a46 46 0 0 1 5-6c25-25 54-43 89-54l32-12 27-11c17-4 32-11 47-18 22-9 38-24 49-45l8-16c4-8 10-16 13-25 3-10 4-20 5-29l-1-5Zm-951 407-2-1-29-51c-3-6-3-13-4-19-1-2 1-3 1-5l3 3c12 15 23 31 29 50l3 18a40 40 0 0 1-1 5ZM564 192l-3 17-5 14-4 8-13 30c-4 9-9 17-12 26a212 212 0 0 1-30 54l-18 25a228 228 0 0 1-17 19c-9 9-17 18-27 26l-35 25c-16 11-34 19-52 25a165 165 0 0 1-29 7l-47 5a206 206 0 0 1-33 0c-7-1-13-4-20-6l-39-17a67 67 0 0 1-8-4l-48-29-44-31c-7-4-12-10-18-15a11 11 0 0 1-2-2l1-1a71 71 0 0 1 8 3l22 14c2 1 4 0 6-1l-2-5-31-23-20-16-29-27-14-16-1-5 5 1 64 45c16 10 34 18 52 25l23 10 26 10c18 6 36 11 54 14a250 250 0 0 0 35 2l46-2 19-3a260 260 0 0 0 121-48c28-17 49-42 71-67 13-14 12-29 7-45a106 106 0 0 0-5-12c-4-9-13-14-24-14-11 1-20 7-29 12-8 5-15 11-23 15-10 7-22 9-34 8-8-1-18-12-17-22 2-12 3-25 7-37l18-57c10-28 24-55 44-78 8-9 17-18 29-22 11-4 22-4 32 3 7 5 7 8 3 15l-22 43-7 15c-2 4-5 5-9 2-10-7-20-4-30 2-14 9-23 22-31 37-4 7-1 13 7 15 14 5 27-1 40-6 16-8 33-16 51-19 9-1 18-2 27 4a24 24 0 0 1 7 8c8 14 10 30 7 46Zm529-90c-13 31-25 62-40 92-8 16-18 32-29 46-8 9-19 16-30 24l-32 21c-9 5-18 9-26 15-29 23-52 50-64 85l-25 66c-7 16-19 30-30 44-13 16-29 25-48 33-10 4-20 2-29 1-26-3-50-11-74-17a163 163 0 0 1-18-6l-4-4 5-2 23 3h6c2 0 4-3 5-4-1-1-2-4-4-4l-26-4-34-4a2 2 0 0 1-1 0l-6-5 7-2a94 94 0 0 1 10 0c28 1 55 0 82-7a198 198 0 0 0 66-29c14-10 29-19 41-31a203 203 0 0 0 36-53l37-74a131 131 0 0 1 16-24c11-13 23-26 38-36 3-2 5-5 6-10l10-54c1-8 3-9 11-10 25-3 48-13 71-24a117 117 0 0 0 39-32 17 17 0 0 1 5-4c1-1 4-2 5-1 2 1 2 4 2 6 1 2 0 3-1 5Zm1461 179a382 382 0 0 1-7 40 347 347 0 0 1-10 37l-19 52c-10 23-22 45-37 66l-29 41-37 50-13 15-2-1 3-8 16-28c14-26 29-51 40-78 10-24 16-48 22-73 4-18 9-37 10-56a370 370 0 0 0-26-157c-12-29-26-55-41-81-4-7-5-13 0-20 11-15 19-30 29-45a184 184 0 0 1 13-17c3-4 7-4 10-1a98 98 0 0 1 9 13c15 26 31 52 42 80 12 28 21 58 24 89a42 42 0 0 1 0 5l-2 1c-7-16-7-33-15-48l10 121c7-4 0-14 9-20 0 9 2 16 1 23ZM738 291l-13 35c-9 21-17 42-30 60l-21 28c-9 13-21 22-36 26-9 2-18 2-27 2l-20-2c-14-1-27-6-40-10l-19-6-9-5 1-2c12-3 24 3 36 4v-1l-15-5c-11-5-23-5-34-8l-17-6v-2a42 42 0 0 1 6-1l32 2a137 137 0 0 0 55-7l33-10c34-12 62-33 85-61l12-15c7-7 6-15 6-23l-2-3a7 7 0 0 0-4 2c-6 6-11 12-18 17-19 16-40 8-47-15-3-9-4-18-5-27-3-21 4-40 11-58 5-15 12-30 22-42 14-17 31-21 46-15 14 5 23 16 28 29 4 12 4 24 4 35 0 30-9 57-20 84ZM412 512l-15 24-18 29c-3 6-7 8-14 8-17-1-33 2-49 7a162 162 0 0 0-47 24c-7 5-14 12-19 20-4 7-10 13-15 19l-8 11-1-6a209 209 0 0 1 22-64c7-13 16-25 24-36 4-5 9-8 14-12 11-8 23-18 35-24 10-6 22-8 33-11 17-4 33-1 49 0a17 17 0 0 1 5 1c6 2 7 4 4 10Z" />
      <path
        d="m1743 185-18 23-5 2v-4c4-19-7-41-25-47a18 18 0 0 0-8-1c-19 3-36 11-49 26-8 10-14 21-20 32-2 3-3 8-7 6s-2-7-1-10l17-35 15-34c8-15 17-29 30-40 14-13 30-20 50-20 10 1 17 6 23 14 11 13 13 30 14 47 0 16-8 29-16 41Zm-284-77-24 38-14 22c-3 5-9 6-13 1l-14-13-29-26c-3-2-4-5-6-8l9-22 24-45c5-9 9-10 17-3l34 28a183 183 0 0 1 16 15c4 4 3 9 0 13Zm576 68-23 37c-5 9-10 13-22 10-15-4-32-2-48 2-13 4-26 9-37 18l-12 12a51 51 0 0 1-6 4l1-5c3-9 6-19 11-27a183 183 0 0 1 18-29c15-18 33-31 57-35l33-3c9 0 17 3 26 7 5 3 5 4 2 9Z" />
    </svg>
  </defs>
</svg>
